  0
SECTION
  2
HEADER
  9
$ACADVER
  1
AC1015
  9
$ACADMAINTVER
 70
     6
  9
$DWGCODEPAGE
  3
ANSI_1252
  9
$INSBASE
 10
0.0
 20
0.0
 30
0.0
  9
$EXTMIN
 10
-3.0
 20
-3.0
 30
0.0
  9
$EXTMAX
 10
3.0
 20
3.0
 30
0.0
  9
$LIMMIN
 10
0.0
 20
0.0
  9
$LIMMAX
 10
12.0
 20
9.0
  9
$ORTHOMODE
 70
     0
  9
$REGENMODE
 70
     1
  9
$FILLMODE
 70
     1
  9
$QTEXTMODE
 70
     0
  9
$MIRRTEXT
 70
     1
  9
$LTSCALE
 40
1.0
  9
$ATTMODE
 70
     1
  9
$TEXTSIZE
 40
0.1377952756
  9
$TRACEWID
 40
0.05
  9
$TEXTSTYLE
  7
Standard
  9
$CLAYER
  8
0
  9
$CELTYPE
  6
ByLayer
  9
$CECOLOR
 62
   256
  9
$CELTSCALE
 40
1.0
  9
$DISPSILH
 70
     0
  9
$DIMSCALE
 40
1.0
  9
$DIMASZ
 40
0.13
  9
$DIMEXO
 40
0.05
  9
$DIMDLI
 40
0.38
  9
$DIMRND
 40
0.0
  9
$DIMDLE
 40
0.0
  9
$DIMEXE
 40
0.125
  9
$DIMTP
 40
0.0
  9
$DIMTM
 40
0.0
  9
$DIMTXT
 40
0.1377952756
  9
$DIMCEN
 40
0.09
  9
$DIMTSZ
 40
0.0
  9
$DIMTOL
 70
     0
  9
$DIMLIM
 70
     0
  9
$DIMTIH
 70
     1
  9
$DIMTOH
 70
     1
  9
$DIMSE1
 70
     0
  9
$DIMSE2
 70
     0
  9
$DIMTAD
 70
     1
  9
$DIMZIN
 70
     1
  9
$DIMBLK
  1

  9
$DIMASO
 70
     1
  9
$DIMSHO
 70
     1
  9
$DIMPOST
  1

  9
$DIMAPOST
  1

  9
$DIMALT
 70
     0
  9
$DIMALTD
 70
     2
  9
$DIMALTF
 40
25.4
  9
$DIMLFAC
 40
1.0
  9
$DIMTOFL
 70
     0
  9
$DIMTVP
 40
0.0
  9
$DIMTIX
 70
     0
  9
$DIMSOXD
 70
     0
  9
$DIMSAH
 70
     0
  9
$DIMBLK1
  1

  9
$DIMBLK2
  1

  9
$DIMSTYLE
  2
Standard
  9
$DIMCLRD
 70
     0
  9
$DIMCLRE
 70
     0
  9
$DIMCLRT
 70
     0
  9
$DIMTFAC
 40
1.0
  9
$DIMGAP
 40
0.06
  9
$DIMJUST
 70
     0
  9
$DIMSD1
 70
     0
  9
$DIMSD2
 70
     0
  9
$DIMTOLJ
 70
     1
  9
$DIMTZIN
 70
     1
  9
$DIMALTZ
 70
     0
  9
$DIMALTTZ
 70
     0
  9
$DIMUPT
 70
     0
  9
$DIMDEC
 70
     2
  9
$DIMTDEC
 70
     2
  9
$DIMALTU
 70
     2
  9
$DIMALTTD
 70
     2
  9
$DIMTXSTY
  7
Standard
  9
$DIMAUNIT
 70
     0
  9
$DIMADEC
 70
     2
  9
$DIMALTRND
 40
0.0
  9
$DIMAZIN
 70
     0
  9
$DIMDSEP
 70
    46
  9
$DIMATFIT
 70
     3
  9
$DIMFRAC
 70
     0
  9
$DIMLDRBLK
  1

  9
$DIMLUNIT
 70
     2
  9
$DIMLWD
 70
    -2
  9
$DIMLWE
 70
    -2
  9
$DIMTMOVE
 70
     0
  9
$LUNITS
 70
     2
  9
$LUPREC
 70
     5
  9
$SKETCHINC
 40
0.1
  9
$FILLETRAD
 40
0.5
  9
$AUNITS
 70
     0
  9
$AUPREC
 70
     2
  9
$MENU
  1
.
  9
$ELEVATION
 40
0.0
  9
$PELEVATION
 40
0.0
  9
$THICKNESS
 40
0.0
  9
$LIMCHECK
 70
     0
  9
$CHAMFERA
 40
0.0
  9
$CHAMFERB
 40
0.0
  9
$CHAMFERC
 40
0.0
  9
$CHAMFERD
 40
0.0
  9
$SKPOLY
 70
     0
  9
$TDCREATE
 40
2458829.081589548
  9
$TDUCREATE
 40
2458829.414922882
  9
$TDUPDATE
 40
2458829.081629236
  9
$TDUUPDATE
 40
2458829.414962569
  9
$TDINDWG
 40
0.0000000116
  9
$TDUSRTIMER
 40
0.0000000116
  9
$USRTIMER
 70
     1
  9
$ANGBASE
 50
0.0
  9
$ANGDIR
 70
     0
  9
$PDMODE
 70
     0
  9
$PDSIZE
 40
-1.0
  9
$PLINEWID
 40
0.0
  9
$SPLFRAME
 70
     0
  9
$SPLINETYPE
 70
     6
  9
$SPLINESEGS
 70
     8
  9
$HANDSEED
  5
136
  9
$SURFTAB1
 70
     6
  9
$SURFTAB2
 70
     6
  9
$SURFTYPE
 70
     6
  9
$SURFU
 70
     6
  9
$SURFV
 70
     6
  9
$UCSBASE
  2

  9
$UCSNAME
  2

  9
$UCSORG
 10
0.0
 20
0.0
 30
0.0
  9
$UCSXDIR
 10
1.0
 20
0.0
 30
0.0
  9
$UCSYDIR
 10
0.0
 20
1.0
 30
0.0
  9
$UCSORTHOREF
  2

  9
$UCSORTHOVIEW
 70
     0
  9
$UCSORGTOP
 10
0.0
 20
0.0
 30
0.0
  9
$UCSORGBOTTOM
 10
0.0
 20
0.0
 30
0.0
  9
$UCSORGLEFT
 10
0.0
 20
0.0
 30
0.0
  9
$UCSORGRIGHT
 10
0.0
 20
0.0
 30
0.0
  9
$UCSORGFRONT
 10
0.0
 20
0.0
 30
0.0
  9
$UCSORGBACK
 10
0.0
 20
0.0
 30
0.0
  9
$PUCSBASE
  2

  9
$PUCSNAME
  2

  9
$PUCSORG
 10
0.0
 20
0.0
 30
0.0
  9
$PUCSXDIR
 10
1.0
 20
0.0
 30
0.0
  9
$PUCSYDIR
 10
0.0
 20
1.0
 30
0.0
  9
$PUCSORTHOREF
  2

  9
$PUCSORTHOVIEW
 70
     0
  9
$PUCSORGTOP
 10
0.0
 20
0.0
 30
0.0
  9
$PUCSORGBOTTOM
 10
0.0
 20
0.0
 30
0.0
  9
$PUCSORGLEFT
 10
0.0
 20
0.0
 30
0.0
  9
$PUCSORGRIGHT
 10
0.0
 20
0.0
 30
0.0
  9
$PUCSORGFRONT
 10
0.0
 20
0.0
 30
0.0
  9
$PUCSORGBACK
 10
0.0
 20
0.0
 30
0.0
  9
$USERI1
 70
     0
  9
$USERI2
 70
     0
  9
$USERI3
 70
     0
  9
$USERI4
 70
     0
  9
$USERI5
 70
     0
  9
$USERR1
 40
0.0
  9
$USERR2
 40
0.0
  9
$USERR3
 40
0.0
  9
$USERR4
 40
0.0
  9
$USERR5
 40
0.0
  9
$WORLDVIEW
 70
     1
  9
$SHADEDGE
 70
     3
  9
$SHADEDIF
 70
    70
  9
$TILEMODE
 70
     1
  9
$MAXACTVP
 70
    64
  9
$PINSBASE
 10
0.0
 20
0.0
 30
0.0
  9
$PLIMCHECK
 70
     0
  9
$PEXTMIN
 10
1.0000000000E+20
 20
1.0000000000E+20
 30
1.0000000000E+20
  9
$PEXTMAX
 10
-1.0000000000E+20
 20
-1.0000000000E+20
 30
-1.0000000000E+20
  9
$PLIMMIN
 10
0.0
 20
0.0
  9
$PLIMMAX
 10
12.0
 20
9.0
  9
$UNITMODE
 70
     0
  9
$VISRETAIN
 70
     1
  9
$PLINEGEN
 70
     0
  9
$PSLTSCALE
 70
     1
  9
$TREEDEPTH
 70
  3020
  9
$CMLSTYLE
  2
Standard
  9
$CMLJUST
 70
     0
  9
$CMLSCALE
 40
1.0
  9
$PROXYGRAPHICS
 70
     1
  9
$MEASUREMENT
 70
     0
  9
$CELWEIGHT
370
    -1
  9
$ENDCAPS
280
     0
  9
$JOINSTYLE
280
     0
  9
$LWDISPLAY
290
     1
  9
$INSUNITS
 70
     1
  9
$HYPERLINKBASE
  1

  9
$STYLESHEET
  1

  9
$XEDIT
290
     1
  9
$CEPSNTYPE
380
     0
  9
$PSTYLEMODE
290
     1
  9
$FINGERPRINTGUID
  2
{1fbc16e2-a085-4d70-9fc2-74bae38a18fb}
  9
$VERSIONGUID
  2
{FAEB1C32-E019-11D5-929B-00C0DF256EC4}
  9
$EXTNAMES
290
     1
  9
$PSVPSCALE
 40
0.0
  9
$OLESTARTUP
290
     0
  0
ENDSEC
  0
SECTION
  2
CLASSES
  0
CLASS
  1
ACDBDICTIONARYWDFLT
  2
AcDbDictionaryWithDefault
  3
ObjectDBX Classes
 90
        0
280
     0
281
     0
  0
CLASS
  1
VISUALSTYLE
  2
AcDbVisualStyle
  3
ObjectDBX Classes
 90
     4095
280
     0
281
     0
  0
CLASS
  1
MATERIAL
  2
AcDbMaterial
  3
ObjectDBX Classes
 90
     1153
280
     0
281
     0
  0
CLASS
  1
SCALE
  2
AcDbScale
  3
ObjectDBX Classes
 90
     1153
280
     0
281
     0
  0
CLASS
  1
TABLESTYLE
  2
AcDbTableStyle
  3
ObjectDBX Classes
 90
     4095
280
     0
281
     0
  0
CLASS
  1
MLEADERSTYLE
  2
AcDbMLeaderStyle
  3
ACDB_MLEADERSTYLE_CLASS
 90
     4095
280
     0
281
     0
  0
CLASS
  1
SUN
  2
AcDbSun
  3
SCENEOE
 90
     1153
280
     0
281
     0
  0
CLASS
  1
ACDBPLACEHOLDER
  2
AcDbPlaceHolder
  3
ObjectDBX Classes
 90
        0
280
     0
281
     0
  0
CLASS
  1
LAYOUT
  2
AcDbLayout
  3
ObjectDBX Classes
 90
        0
280
     0
281
     0
  0
ENDSEC
  0
SECTION
  2
TABLES
  0
TABLE
  2
VPORT
  5
8
330
0
100
AcDbSymbolTable
 70
     1
  0
VPORT
  5
29
330
8
100
AcDbSymbolTableRecord
100
AcDbViewportTableRecord
  2
*Active
 70
     0
 10
0.0
 20
0.0
 11
1.0
 21
1.0
 12
0.0
 22
0.0
 13
0.0
 23
0.0
 14
0.5
 24
0.5
 15
0.5
 25
0.5
 16
0.0
 26
0.0
 36
1.0
 17
0.0
 27
0.0
 37
0.0
 40
6.12
 41
1.0
 42
50.0
 43
0.0
 44
0.0
 50
0.0
 51
0.0
 71
     0
 72
   100
 73
     1
 74
     3
 75
     0
 76
     0
 77
     0
 78
     0
281
     0
 65
     1
110
0.0
120
0.0
130
0.0
111
1.0
121
0.0
131
0.0
112
0.0
122
1.0
132
0.0
 79
     0
146
0.0
  0
ENDTAB
  0
TABLE
  2
LTYPE
  5
5
330
0
100
AcDbSymbolTable
 70
     6
  0
LTYPE
  5
14
330
5
100
AcDbSymbolTableRecord
100
AcDbLinetypeTableRecord
  2
ByBlock
 70
     0
  3

 72
    65
 73
     0
 40
0.0
  0
LTYPE
  5
15
330
5
100
AcDbSymbolTableRecord
100
AcDbLinetypeTableRecord
  2
ByLayer
 70
     0
  3

 72
    65
 73
     0
 40
0.0
  0
LTYPE
  5
16
330
5
100
AcDbSymbolTableRecord
100
AcDbLinetypeTableRecord
  2
Continuous
 70
     0
  3
Solid line
 72
    65
 73
     0
 40
0.0
  0
LTYPE
  5
6E
330
5
100
AcDbSymbolTableRecord
100
AcDbLinetypeTableRecord
  2
HIDDEN
 70
     0
  3
Hidden __ __ __ __ __ __ __ __ __ __ __ __ __ __
 72
    65
 73
     2
 40
0.075
 49
0.05
 74
     0
 49
-0.025
 74
     0
  0
LTYPE
  5
6F
330
5
100
AcDbSymbolTableRecord
100
AcDbLinetypeTableRecord
  2
PHANTOM
 70
     0
  3
Phantom ______  __  __  ______  __  __  ______
 72
    65
 73
     6
 40
0.5
 49
0.25
 74
     0
 49
-0.05
 74
     0
 49
0.05
 74
     0
 49
-0.05
 74
     0
 49
0.05
 74
     0
 49
-0.05
 74
     0
  0
LTYPE
  5
70
330
5
100
AcDbSymbolTableRecord
100
AcDbLinetypeTableRecord
  2
CENTER
 70
     0
  3
Center ____ _ ____ _ ____ _ ____ _ ____ _ ____
 72
    65
 73
     4
 40
0.4
 49
0.25
 74
     0
 49
-0.05
 74
     0
 49
0.05
 74
     0
 49
-0.05
 74
     0
  0
LTYPE
  5
71
330
5
100
AcDbSymbolTableRecord
100
AcDbLinetypeTableRecord
  2
CENTERX2
 70
     0
  3
Center (2x) ________  __  ________  __  _____
 72
    65
 73
     4
 40
0.8
 49
0.5
 74
     0
 49
-0.1
 74
     0
 49
0.1
 74
     0
 49
-0.1
 74
     0
  0
LTYPE
  5
72
330
5
100
AcDbSymbolTableRecord
100
AcDbLinetypeTableRecord
  2
DOT2
 70
     0
  3
Dot (.5x) ........................................
 72
    65
 73
     2
 40
0.025
 49
0.0
 74
     0
 49
-0.025
 74
     0
  0
ENDTAB
  0
TABLE
  2
LAYER
  5
2
330
0
100
AcDbSymbolTable
 70
     1
  0
LAYER
  5
10
330
2
100
AcDbSymbolTableRecord
100
AcDbLayerTableRecord
  2
0
 70
     0
 62
     7
  6
Continuous
370
    -3
390
F
  0
ENDTAB
  0
TABLE
  2
STYLE
  5
3
330
0
100
AcDbSymbolTable
 70
     2
  0
STYLE
  5
11
330
3
100
AcDbSymbolTableRecord
100
AcDbTextStyleTableRecord
  2
Standard
 70
     0
 40
0.0
 41
1.0
 50
0.0
 71
     0
 42
0.1377952756
  3
txt
  4

  0
STYLE
  5
133
330
3
100
AcDbSymbolTableRecord
100
AcDbTextStyleTableRecord
  2
SLDTEXTSTYLE0
 70
     0
 40
0.0
 41
0.7
 50
0.0
 71
     0
 42
0.1377952756
  3
TXT
  4

  0
ENDTAB
  0
TABLE
  2
VIEW
  5
6
330
0
100
AcDbSymbolTable
 70
     0
  0
ENDTAB
  0
TABLE
  2
UCS
  5
7
330
0
100
AcDbSymbolTable
 70
     0
  0
ENDTAB
  0
TABLE
  2
APPID
  5
9
330
0
100
AcDbSymbolTable
 70
     1
  0
APPID
  5
12
330
9
100
AcDbSymbolTableRecord
100
AcDbRegAppTableRecord
  2
ACAD
 70
     0
  0
ENDTAB
  0
TABLE
  2
DIMSTYLE
  5
A
330
0
100
AcDbSymbolTable
 70
     1
100
AcDbDimStyleTable
  0
DIMSTYLE
105
27
330
A
100
AcDbSymbolTableRecord
100
AcDbDimStyleTableRecord
  2
Standard
 70
     0
178
     0
340
11
  0
ENDTAB
  0
TABLE
  2
BLOCK_RECORD
  5
1
330
0
100
AcDbSymbolTable
 70
     1
  0
BLOCK_RECORD
  5
1F
330
1
100
AcDbSymbolTableRecord
100
AcDbBlockTableRecord
  2
*Model_Space
340
22
  0
BLOCK_RECORD
  5
1B
330
1
100
AcDbSymbolTableRecord
100
AcDbBlockTableRecord
  2
*Paper_Space
340
1E
  0
BLOCK_RECORD
  5
23
330
1
100
AcDbSymbolTableRecord
100
AcDbBlockTableRecord
  2
*Paper_Space0
340
26
  0
ENDTAB
  0
ENDSEC
  0
SECTION
  2
BLOCKS
  0
BLOCK
  5
20
330
1F
100
AcDbEntity
  8
0
100
AcDbBlockBegin
  2
*Model_Space
 70
     0
 10
0.0
 20
0.0
 30
0.0
  3
*Model_Space
  1

  0
ENDBLK
  5
21
330
1F
100
AcDbEntity
  8
0
100
AcDbBlockEnd
  0
BLOCK
  5
1C
330
1B
100
AcDbEntity
 67
     1
  8
0
100
AcDbBlockBegin
  2
*Paper_Space
 70
     0
 10
0.0
 20
0.0
 30
0.0
  3
*Paper_Space
  1

  0
ENDBLK
  5
1D
330
1B
100
AcDbEntity
 67
     1
  8
0
100
AcDbBlockEnd
  0
BLOCK
  5
24
330
23
100
AcDbEntity
  8
0
100
AcDbBlockBegin
  2
*Paper_Space0
 70
     0
 10
0.0
 20
0.0
 30
0.0
  3
*Paper_Space0
  1

  0
ENDBLK
  5
25
330
23
100
AcDbEntity
  8
0
100
AcDbBlockEnd
  0
ENDSEC
  0
SECTION
  2
ENTITIES
  0
LINE
  5
73
330
1F
100
AcDbEntity
  8
0
  6
Continuous
 62
     7
370
    25
100
AcDbLine
 10
0.5
 20
-2.1358974359
 30
0.0
 11
0.0897435897
 21
-2.1358974359
 31
0.0
  0
LINE
  5
74
330
1F
100
AcDbEntity
  8
0
  6
Continuous
 62
     7
370
    25
100
AcDbLine
 10
0.0897435897
 20
-2.1358974359
 30
0.0
 11
0.0897435897
 21
-2.1
 31
0.0
  0
LINE
  5
75
330
1F
100
AcDbEntity
  8
0
  6
Continuous
 62
     7
370
    25
100
AcDbLine
 10
0.0897435897
 20
-2.1
 30
0.0
 11
0.5
 21
-2.1
 31
0.0
  0
LINE
  5
76
330
1F
100
AcDbEntity
  8
0
  6
Continuous
 62
     7
370
    25
100
AcDbLine
 10
0.5
 20
-2.1
 30
0.0
 11
0.5
 21
-2.1358974359
 31
0.0
  0
SPLINE
  5
77
330
1F
100
AcDbEntity
  8
0
  6
Continuous
 62
     7
370
    25
100
AcDbSpline
210
0.0
220
0.0
230
1.0
 70
     8
 71
     3
 72
    19
 73
    15
 74
     0
 42
0.000000001
 43
0.00000001
 40
0.0
 40
0.0
 40
0.0
 40
0.0
 40
0.0912615868737156
 40
0.1820670055083148
 40
0.2718881518415414
 40
0.3620208275407281
 40
0.4500307570621195
 40
0.5339342469733326
 40
0.6133041663714537
 40
0.6898932697299475
 40
0.7654314281106565
 40
0.8414490899313769
 40
0.9197390961607305
 40
1.0
 40
1.0
 40
1.0
 40
1.0
 10
0.2025641025641026
 20
-1.485096153846154
 30
0.0
 10
0.2026694506343383
 20
-1.480309849834222
 30
0.0
 10
0.2028796201957161
 20
-1.470761166003964
 30
0.0
 10
0.2046487710272489
 20
-1.456596602173692
 30
0.0
 10
0.2073151807888332
 20
-1.442640247725653
 30
0.0
 10
0.2112686226461692
 20
-1.429138954946304
 30
0.0
 10
0.2160449126492448
 20
-1.416249206059246
 30
0.0
 10
0.2214407702502649
 20
-1.404215429118389
 30
0.0
 10
0.2275739600419261
 20
-1.393219358026591
 30
0.0
 10
0.2344069327918001
 20
-1.383164001425376
 30
0.0
 10
0.2421907792717984
 20
-1.374052145392297
 30
0.0
 10
0.2508462698997001
 20
-1.365650250273893
 30
0.0
 10
0.2604357071553022
 20
-1.357902959292317
 30
0.0
 10
0.2674984494251065
 20
-1.353507234586197
 30
0.0
 10
0.271073717948718
 20
-1.351282051282051
 30
0.0
  0
LINE
  5
78
330
1F
100
AcDbEntity
  8
0
  6
Continuous
 62
     7
370
    25
100
AcDbLine
 10
0.2710737179
 20
-1.3512820513
 30
0.0
 11
0.2897435897
 21
-1.3813301282
 31
0.0
  0
SPLINE
  5
79
330
1F
100
AcDbEntity
  8
0
  6
Continuous
 62
     7
370
    25
100
AcDbSpline
210
0.0
220
0.0
230
1.0
 70
     8
 71
     3
 72
    15
 73
    11
 74
     0
 42
0.000000001
 43
0.00000001
 40
0.0
 40
0.0
 40
0.0
 40
0.0
 40
0.1283242377690982
 40
0.2525844750621372
 40
0.373506483310902
 40
0.4933644513855717
 40
0.6146085973434207
 40
0.7384702442356693
 40
0.8659947178700178
 40
1.0
 40
1.0
 40
1.0
 40
1.0
 10
0.2897435897435898
 20
-1.381330128205128
 30
0.0
 10
0.2856489161620477
 20
-1.38462496996261
 30
0.0
 10
0.2775892464135658
 20
-1.391110306561482
 30
0.0
 10
0.2671881111823534
 20
-1.402371933572593
 30
0.0
 10
0.258254734980196
 20
-1.414373238054939
 30
0.0
 10
0.2509743062998829
 20
-1.427319300650911
 30
0.0
 10
0.2453489976862073
 20
-1.441191963514019
 30
0.0
 10
0.2413684027715834
 20
-1.455936517942676
 30
0.0
 10
0.2388879178768515
 20
-1.471550861360291
 30
0.0
 10
0.2386059936636557
 20
-1.482255455535781
 30
0.0
 10
0.2384615384615385
 20
-1.487740384615384
 30
0.0
  0
SPLINE
  5
7A
330
1F
100
AcDbEntity
  8
0
  6
Continuous
 62
     7
370
    25
100
AcDbSpline
210
0.0
220
0.0
230
1.0
 70
     8
 71
     3
 72
    23
 73
    19
 74
     0
 42
0.000000001
 43
0.00000001
 40
0.0
 40
0.0
 40
0.0
 40
0.0
 40
0.0695216413260445
 40
0.1369209822612549
 40
0.2019692428653315
 40
0.265461550384917
 40
0.3282478845128382
 40
0.3908167166700967
 40
0.4535501756793823
 40
0.5175419816323164
 40
0.5807383719174797
 40
0.6419215091741661
 40
0.7015967244089308
 40
0.7603128802455011
 40
0.818756513014695
 40
0.8777180795361952
 40
0.9380940530276963
 40
1.0
 40
1.0
 40
1.0
 40
1.0
 10
0.2384615384615385
 20
-1.487740384615384
 30
0.0
 10
0.2385823204283617
 20
-1.492124265405278
 30
0.0
 10
0.2388201972278943
 20
-1.500758199420923
 30
0.0
 10
0.2403071107537218
 20
-1.51343318838626
 30
0.0
 10
0.2430090545601858
 20
-1.525506600172821
 30
0.0
 10
0.2465691638964533
 20
-1.537054109761513
 30
0.0
 10
0.2513406256039123
 20
-1.547993586165076
 30
0.0
 10
0.2571474548748312
 20
-1.558353691130486
 30
0.0
 10
0.2638960309103076
 20
-1.568226318559254
 30
0.0
 10
0.2717143789558417
 20
-1.577325374712482
 30
0.0
 10
0.2802170838299612
 20
-1.585648689807562
 30
0.0
 10
0.2893317918713848
 20
-1.592859994269206
 30
0.0
 10
0.2987854937235786
 20
-1.599138500919877
 30
0.0
 10
0.3088142642632159
 20
-1.604064895930072
 30
0.0
 10
0.3191886703497003
 20
-1.608096343984509
 30
0.0
 10
0.3301045395704544
 20
-1.610748540577105
 30
0.0
 10
0.3414220261505484
 20
-1.612515934338586
 30
0.0
 10
0.3491384078342403
 20
-1.612718143323469
 30
0.0
 10
0.3530448717948719
 20
-1.612820512820513
 30
0.0
  0
SPLINE
  5
7B
330
1F
100
AcDbEntity
  8
0
  6
Continuous
 62
     7
370
    25
100
AcDbSpline
210
0.0
220
0.0
230
1.0
 70
     8
 71
     3
 72
    19
 73
    15
 74
     0
 42
0.000000001
 43
0.00000001
 40
0.0
 40
0.0
 40
0.0
 40
0.0
 40
0.0805239642078246
 40
0.1603749990456508
 40
0.240333419367425
 40
0.3225392808610305
 40
0.4050330270283462
 40
0.4866047854442846
 40
0.5678723327264883
 40
0.651338307638883
 40
0.7362417538888156
 40
0.8215319018066938
 40
0.9090063504022969
 40
0.9999999999999999
 40
0.9999999999999999
 40
0.9999999999999999
 40
0.9999999999999999
 10
0.3530448717948719
 20
-1.612820512820513
 30
0.0
 10
0.3581606218465079
 20
-1.612614087881244
 30
0.0
 10
0.368349370223717
 20
-1.612202963071829
 30
0.0
 10
0.3833637433612223
 20
-1.609076040289375
 30
0.0
 10
0.3978533862727539
 20
-1.603843874789405
 30
0.0
 10
0.4117399653355933
 20
-1.596775461827918
 30
0.0
 10
0.4246067508892731
 20
-1.587803277274313
 30
0.0
 10
0.436148013445891
 20
-1.577270163166118
 30
0.0
 10
0.4461383374175257
 20
-1.565164886220623
 30
0.0
 10
0.4544209335529836
 20
-1.551595542815341
 30
0.0
 10
0.4610793695602343
 20
-1.536880354036321
 30
0.0
 10
0.4658230663785912
 20
-1.521178632696454
 30
0.0
 10
0.4686861942262599
 20
-1.504618656449313
 30
0.0
 10
0.4690468734921487
 20
-1.493280742681667
 30
0.0
 10
0.4692307692307693
 20
-1.4875
 30
0.0
  0
SPLINE
  5
7C
330
1F
100
AcDbEntity
  8
0
  6
Continuous
 62
     7
370
    25
100
AcDbSpline
210
0.0
220
0.0
230
1.0
 70
     8
 71
     3
 72
    15
 73
    11
 74
     0
 42
0.000000001
 43
0.00000001
 40
0.0
 40
0.0
 40
0.0
 40
0.0
 40
0.1299810785766165
 40
0.2554473120268503
 40
0.3772983447181161
 40
0.4984417785420229
 40
0.6193721253366261
 40
0.7418565019578117
 40
0.8685636891457539
 40
1.0
 40
1.0
 40
1.0
 40
1.0
 10
0.4692307692307693
 20
-1.4875
 30
0.0
 10
0.4690822552655268
 20
-1.482202264642503
 30
0.0
 10
0.4687903859131939
 20
-1.471790808823537
 30
0.0
 10
0.466329932961432
 20
-1.456571690529822
 30
0.0
 10
0.4623020891200961
 20
-1.442082557861276
 30
0.0
 10
0.456685214828862
 20
-1.42832392579553
 30
0.0
 10
0.4494249272972066
 20
-1.415320935389101
 30
0.0
 10
0.440469593490141
 20
-1.403157601112714
 30
0.0
 10
0.4300768391680758
 20
-1.391591893880892
 30
0.0
 10
0.4220404995920763
 20
-1.384792239414366
 30
0.0
 10
0.417948717948718
 20
-1.381330128205128
 30
0.0
  0
LINE
  5
7D
330
1F
100
AcDbEntity
  8
0
  6
Continuous
 62
     7
370
    25
100
AcDbLine
 10
0.4179487179
 20
-1.3813301282
 30
0.0
 11
0.4376602564
 21
-1.3512820513
 31
0.0
  0
SPLINE
  5
7E
330
1F
100
AcDbEntity
  8
0
  6
Continuous
 62
     7
370
    25
100
AcDbSpline
210
0.0
220
0.0
230
1.0
 70
     8
 71
     3
 72
    23
 73
    19
 74
     0
 42
0.000000001
 43
0.00000001
 40
0.0
 40
0.0
 40
0.0
 40
0.0
 40
0.0596333961362509
 40
0.1190688615049891
 40
0.178196546215671
 40
0.2369566475521796
 40
0.2959319880758035
 40
0.3558557687429126
 40
0.4164733051171476
 40
0.4777415997317965
 40
0.53990299045361
 40
0.6025375151243945
 40
0.6654223850767749
 40
0.729765256044647
 40
0.7948287708416059
 40
0.8618265399701646
 40
0.9300109324340666
 40
1.0
 40
1.0
 40
1.0
 40
1.0
 10
0.4376602564102566
 20
-1.351282051282051
 30
0.0
 10
0.4402763394865444
 20
-1.353063502964096
 30
0.0
 10
0.4454998225292399
 20
-1.356620493465234
 30
0.0
 10
0.4528648644343099
 20
-1.362566507802838
 30
0.0
 10
0.4597587709831414
 20
-1.36898020285481
 30
0.0
 10
0.4661723012836093
 20
-1.375836556784689
 30
0.0
 10
0.4722589320508834
 20
-1.383046043622137
 30
0.0
 10
0.4777276834236538
 20
-1.390854947575933
 30
0.0
 10
0.4828859488769007
 20
-1.399011474600374
 30
0.0
 10
0.4875274199858157
 20
-1.407611378340227
 30
0.0
 10
0.4916995710194151
 20
-1.416565743827422
 30
0.0
 10
0.4952871333873447
 20
-1.425861971211967
 30
0.0
 10
0.4983694312051254
 20
-1.435459664093312
 30
0.0
 10
0.5008194136934643
 20
-1.445370107085185
 30
0.0
 10
0.5027749380912359
 20
-1.455612838320568
 30
0.0
 10
0.5040725039842746
 20
-1.466161367969086
 30
0.0
 10
0.5050411075407671
 20
-1.47701206300933
 30
0.0
 10
0.5050989209001433
 20
-1.484346023158873
 30
0.0
 10
0.5051282051282052
 20
-1.488060897435897
 30
0.0
  0
SPLINE
  5
7F
330
1F
100
AcDbEntity
  8
0
  6
Continuous
 62
     7
370
    25
100
AcDbSpline
210
0.0
220
0.0
230
1.0
 70
     8
 71
     3
 72
    23
 73
    19
 74
     0
 42
0.000000001
 43
0.00000001
 40
0.0
 40
0.0
 40
0.0
 40
0.0
 40
0.0695685382011896
 40
0.1363548397987122
 40
0.2011246604309306
 40
0.2644879520979901
 40
0.3271833227488747
 40
0.3895786829804758
 40
0.4521727783426249
 40
0.5158754226821203
 40
0.5791877819485268
 40
0.6401324160321591
 40
0.6999901837837883
 40
0.7586503122363214
 40
0.8177942249348461
 40
0.8769663120061787
 40
0.9376253238851796
 40
1.0
 40
1.0
 40
1.0
 40
1.0
 10
0.5051282051282052
 20
-1.488060897435897
 30
0.0
 10
0.5050261753543361
 20
-1.493730638541634
 30
0.0
 10
0.5048261962570266
 20
-1.504843372259528
 30
0.0
 10
0.502633329404148
 20
-1.521109848145874
 30
0.0
 10
0.4993152178788297
 20
-1.536650467294847
 30
0.0
 10
0.4945932175224331
 20
-1.551492539808168
 30
0.0
 10
0.4883572741007126
 20
-1.565545327202611
 30
0.0
 10
0.4809144533850154
 20
-1.578925819183388
 30
0.0
 10
0.4720187917290248
 20
-1.591495938064079
 30
0.0
 10
0.4618816203172276
 20
-1.603173278175526
 30
0.0
 10
0.4508793622185435
 20
-1.613852201838912
 30
0.0
 10
0.4390755915970988
 20
-1.623144544982374
 30
0.0
 10
0.4267311374835466
 20
-1.631019515484119
 30
0.0
 10
0.4137681898809476
 20
-1.637506658767006
 30
0.0
 10
0.4002399028236788
 20
-1.642578999568381
 30
0.0
 10
0.3860636310776764
 20
-1.646071125656937
 30
0.0
 10
0.3713596528873889
 20
-1.648324363959568
 30
0.0
 10
0.361333156359149
 20
-1.648585539794836
 30
0.0
 10
0.3562500000000001
 20
-1.648717948717949
 30
0.0
  0
SPLINE
  5
80
330
1F
100
AcDbEntity
  8
0
  6
Continuous
 62
     7
370
    25
100
AcDbSpline
210
0.0
220
0.0
230
1.0
 70
     8
 71
     3
 72
    31
 73
    27
 74
     0
 42
0.000000001
 43
0.00000001
 40
0.0
 40
0.0
 40
0.0
 40
0.0
 40
0.0412914469532471
 40
0.0821355032144642
 40
0.1226360352259629
 40
0.1628308697551233
 40
0.2030066005770551
 40
0.2435260831621605
 40
0.2841729362467875
 40
0.3254098107964588
 40
0.3668546660987575
 40
0.4075505951658511
 40
0.4481873740566099
 40
0.4886828510840634
 40
0.5290149651896814
 40
0.5698427286954858
 40
0.6113702381646683
 40
0.6532377352823795
 40
0.6954461190732804
 40
0.7377513945470109
 40
0.7800433605771134
 40
0.8228070703900522
 40
0.8659781422330314
 40
0.9095950301662469
 40
0.9542314047047883
 40
1.0
 40
1.0
 40
1.0
 40
1.0
 10
0.3562500000000001
 20
-1.648717948717949
 30
0.0
 10
0.3528010360508974
 20
-1.648667546873773
 30
0.0
 10
0.3459404774986907
 20
-1.648567289286796
 30
0.0
 10
0.3357581841636679
 20
-1.647417354688082
 30
0.0
 10
0.325711493268991
 20
-1.645931814924221
 30
0.0
 10
0.3159277539148523
 20
-1.643414587830237
 30
0.0
 10
0.3062585779069318
 20
-1.640507087067883
 30
0.0
 10
0.2968205091865048
 20
-1.63679559772098
 30
0.0
 10
0.2875696894345837
 20
-1.632441838301789
 30
0.0
 10
0.2785299489085338
 20
-1.627498758610348
 30
0.0
 10
0.2698500015388591
 20
-1.621934330597853
 30
0.0
 10
0.2616495827193948
 20
-1.61577647536928
 30
0.0
 10
0.2538301809505165
 20
-1.609257122658514
 30
0.0
 10
0.2466617511590473
 20
-1.602071281282881
 30
0.0
 10
0.2398576150128626
 20
-1.594523892271913
 30
0.0
 10
0.2335995436608068
 20
-1.586401426478536
 30
0.0
 10
0.2278691446927469
 20
-1.577750472003051
 30
0.0
 10
0.2225604572138273
 20
-1.568700949422589
 30
0.0
 10
0.2178336646326582
 20
-1.559258125270472
 30
0.0
 10
0.213761294591706
 20
-1.549479077231035
 30
0.0
 10
0.2102810002049428
 20
-1.539422731031785
 30
0.0
 10
0.2075256951487101
 20
-1.529073000267024
 30
0.0
 10
0.2052151324811151
 20
-1.518498580480061
 30
0.0
 10
0.2037616643305469
 20
-1.507616141856897
 30
0.0
 10
0.2027346617110424
 20
-1.496467316455879
 30
0.0
 10
0.2026214283201169
 20
-1.488918056717152
 30
0.0
 10
0.2025641025641027
 20
-1.485096153846154
 30
0.0
  0
LINE
  5
81
330
1F
100
AcDbEntity
  8
0
  6
Continuous
 62
     7
370
    25
100
AcDbLine
 10
0.1
 20
-0.5974358974
 30
0.0
 11
0.1
 21
-0.5923076923
 31
0.0
  0
LINE
  5
82
330
1F
100
AcDbEntity
  8
0
  6
Continuous
 62
     7
370
    25
100
AcDbLine
 10
0.1
 20
-0.5923076923
 30
0.0
 11
0.5
 21
-0.4076923077
 31
0.0
  0
LINE
  5
83
330
1F
100
AcDbEntity
  8
0
  6
Continuous
 62
     7
370
    25
100
AcDbLine
 10
0.5
 20
-0.4076923077
 30
0.0
 11
0.5
 21
-0.4467147436
 31
0.0
  0
LINE
  5
84
330
1F
100
AcDbEntity
  8
0
  6
Continuous
 62
     7
370
    25
100
AcDbLine
 10
0.5
 20
-0.4467147436
 30
0.0
 11
0.3717948718
 21
-0.505849359
 31
0.0
  0
LINE
  5
85
330
1F
100
AcDbEntity
  8
0
  6
Continuous
 62
     7
370
    25
100
AcDbLine
 10
0.3717948718
 20
-0.505849359
 30
0.0
 11
0.3717948718
 21
-0.6871794872
 31
0.0
  0
LINE
  5
86
330
1F
100
AcDbEntity
  8
0
  6
Continuous
 62
     7
370
    25
100
AcDbLine
 10
0.3717948718
 20
-0.6871794872
 30
0.0
 11
0.5
 21
-0.7479967949
 31
0.0
  0
LINE
  5
87
330
1F
100
AcDbEntity
  8
0
  6
Continuous
 62
     7
370
    25
100
AcDbLine
 10
0.5
 20
-0.7479967949
 30
0.0
 11
0.5
 21
-0.7871794872
 31
0.0
  0
LINE
  5
88
330
1F
100
AcDbEntity
  8
0
  6
Continuous
 62
     7
370
    25
100
AcDbLine
 10
0.5
 20
-0.7871794872
 30
0.0
 11
0.1
 21
-0.5974358974
 31
0.0
  0
LINE
  5
89
330
1F
100
AcDbEntity
  8
0
  6
Continuous
 62
     7
370
    25
100
AcDbLine
 10
0.141025641
 20
0.1871794872
 30
0.0
 11
0.141025641
 21
0.1
 31
0.0
  0
LINE
  5
8A
330
1F
100
AcDbEntity
  8
0
  6
Continuous
 62
     7
370
    25
100
AcDbLine
 10
0.141025641
 20
0.1
 30
0.0
 11
0.1
 21
0.1
 31
0.0
  0
LINE
  5
8B
330
1F
100
AcDbEntity
  8
0
  6
Continuous
 62
     7
370
    25
100
AcDbLine
 10
0.1
 20
0.1
 30
0.0
 11
0.1
 21
0.3102564103
 31
0.0
  0
LINE
  5
8C
330
1F
100
AcDbEntity
  8
0
  6
Continuous
 62
     7
370
    25
100
AcDbLine
 10
0.1
 20
0.3102564103
 30
0.0
 11
0.141025641
 21
0.3102564103
 31
0.0
  0
LINE
  5
8D
330
1F
100
AcDbEntity
  8
0
  6
Continuous
 62
     7
370
    25
100
AcDbLine
 10
0.141025641
 20
0.3102564103
 30
0.0
 11
0.141025641
 21
0.2230769231
 31
0.0
  0
LINE
  5
8E
330
1F
100
AcDbEntity
  8
0
  6
Continuous
 62
     7
370
    25
100
AcDbLine
 10
0.141025641
 20
0.2230769231
 30
0.0
 11
0.5
 21
0.2230769231
 31
0.0
  0
LINE
  5
8F
330
1F
100
AcDbEntity
  8
0
  6
Continuous
 62
     7
370
    25
100
AcDbLine
 10
0.5
 20
0.2230769231
 30
0.0
 11
0.5
 21
0.1871794872
 31
0.0
  0
LINE
  5
90
330
1F
100
AcDbEntity
  8
0
  6
Continuous
 62
     7
370
    25
100
AcDbLine
 10
0.5
 20
0.1871794872
 30
0.0
 11
0.141025641
 21
0.1871794872
 31
0.0
  0
LINE
  5
91
330
1F
100
AcDbEntity
  8
0
  6
Continuous
 62
     7
370
    25
100
AcDbLine
 10
0.2588141026
 20
1.0076923077
 30
0.0
 11
0.2076923077
 21
1.0076923077
 31
0.0
  0
LINE
  5
92
330
1F
100
AcDbEntity
  8
0
  6
Continuous
 62
     7
370
    25
100
AcDbLine
 10
0.2076923077
 20
1.0076923077
 30
0.0
 11
0.2076923077
 21
1.0435897436
 31
0.0
  0
LINE
  5
93
330
1F
100
AcDbEntity
  8
0
  6
Continuous
 62
     7
370
    25
100
AcDbLine
 10
0.2076923077
 20
1.0435897436
 30
0.0
 11
0.4396634615
 21
1.0435897436
 31
0.0
  0
SPLINE
  5
94
330
1F
100
AcDbEntity
  8
0
  6
Continuous
 62
     7
370
    25
100
AcDbSpline
210
0.0
220
0.0
230
1.0
 70
     8
 71
     3
 72
    15
 73
    11
 74
     0
 42
0.000000001
 43
0.00000001
 40
0.0
 40
0.0
 40
0.0
 40
0.0
 40
0.1634452548497627
 40
0.3154887127129205
 40
0.4562908239366661
 40
0.585864149574774
 40
0.7054286858067528
 40
0.8133707129824368
 40
0.9117182381600997
 40
1.0
 40
1.0
 40
1.0
 40
1.0
 10
0.4396634615384616
 20
1.043589743589743
 30
0.0
 10
0.4446049009220986
 20
1.043558081581642
 30
0.0
 10
0.4541430692312706
 20
1.043496966279229
 30
0.0
 10
0.4679348726156028
 20
1.043056855278698
 30
0.0
 10
0.4806738538192477
 20
1.042128777882084
 30
0.0
 10
0.4924181119437305
 20
1.041076357155964
 30
0.0
 10
0.5031132102362994
 20
1.039562446719444
 30
0.0
 10
0.5127910621990405
 20
1.037713719035057
 30
0.0
 10
0.5214609550410535
 20
1.035629641417675
 30
0.0
 10
0.5268009368727711
 20
1.033798759422897
 30
0.0
 10
0.5293269230769232
 20
1.032932692307692
 30
0.0
  0
SPLINE
  5
95
330
1F
100
AcDbEntity
  8
0
  6
Continuous
 62
     7
370
    25
100
AcDbSpline
210
0.0
220
0.0
230
1.0
 70
     8
 71
     3
 72
    23
 73
    19
 74
     0
 42
0.000000001
 43
0.00000001
 40
0.0
 40
0.0
 40
0.0
 40
0.0
 40
0.0613766068627211
 40
0.1209180927232315
 40
0.1794409159154775
 40
0.2376295324355921
 40
0.2959669216281051
 40
0.3542522835807677
 40
0.4132893883055337
 40
0.4738449258931507
 40
0.5351102167218739
 40
0.5969826408344862
 40
0.6598608193643987
 40
0.7242509867952881
 40
0.7899916606490015
 40
0.8577340073054445
 40
0.9278220932464709
 40
1.0
 40
1.0
 40
1.0
 40
1.0
 10
0.5293269230769232
 20
1.032932692307692
 30
0.0
 10
0.5326103349879137
 20
1.031653915981204
 30
0.0
 10
0.5390789869091532
 20
1.029134597916517
 30
0.0
 10
0.5482487341029547
 20
1.024416328599871
 30
0.0
 10
0.5568821975548871
 20
1.01913212479938
 30
0.0
 10
0.5649337105891156
 20
1.013098287514095
 30
0.0
 10
0.5723537403370661
 20
1.006334779991608
 30
0.0
 10
0.5793263714497874
 20
0.9990402263713188
 30
0.0
 10
0.5855892807600348
 20
0.9909587174911137
 30
0.0
 10
0.5912176895933113
 20
0.9822317651203525
 30
0.0
 10
0.5963861339704034
 20
0.9730355701762651
 30
0.0
 10
0.6007956122996783
 20
0.9633009826937156
 30
0.0
 10
0.6044733046585463
 20
0.953080300150559
 30
0.0
 10
0.6074994073780783
 20
0.9424206822029324
 30
0.0
 10
0.6099407345242741
 20
0.9313227512110269
 30
0.0
 10
0.6115696227659947
 20
0.9197495644163054
 30
0.0
 10
0.6126664448151752
 20
0.9077402328084551
 30
0.0
 10
0.612768656338927
 20
0.8995751860457546
 30
0.0
 10
0.612820512820513
 20
0.8954326923076922
 30
0.0
  0
SPLINE
  5
96
330
1F
100
AcDbEntity
  8
0
  6
Continuous
 62
     7
370
    25
100
AcDbSpline
210
0.0
220
0.0
230
1.0
 70
     8
 71
     3
 72
    19
 73
    15
 74
     0
 42
0.000000001
 43
0.00000001
 40
0.0
 40
0.0
 40
0.0
 40
0.0
 40
0.0964880491023622
 40
0.1884165990004284
 40
0.2768652065775232
 40
0.3621588706466742
 40
0.4434562196682508
 40
0.52018230260886
 40
0.592723908038665
 40
0.662929123397082
 40
0.7354280535989597
 40
0.8148874443057554
 40
0.9030639460756982
 40
1.0
 40
1.0
 40
1.0
 40
1.0
 10
0.612820512820513
 20
0.8954326923076922
 30
0.0
 10
0.6127103533870772
 20
0.8893904134012821
 30
0.0
 10
0.612495240054505
 20
0.8775913807506165
 30
0.0
 10
0.6104390694823499
 20
0.860353602841978
 30
0.0
 10
0.6071224386060069
 20
0.8440358856151686
 30
0.0
 10
0.6023970140933833
 20
0.8287571538928218
 30
0.0
 10
0.5965535965719362
 20
0.8146711319383159
 30
0.0
 10
0.5898596471920207
 20
0.8018564845743298
 30
0.0
 10
0.5821802228083783
 20
0.7904313361978141
 30
0.0
 10
0.5734374624929385
 20
0.7801314568521235
 30
0.0
 10
0.5630415670397915
 20
0.7708352837621766
 30
0.0
 10
0.5507902844965822
 20
0.7620893051553436
 30
0.0
 10
0.5364969214812686
 20
0.7536709125972387
 30
0.0
 10
0.5260063263149037
 20
0.7487373538658493
 30
0.0
 10
0.5205128205128207
 20
0.7461538461538461
 30
0.0
  0
LINE
  5
97
330
1F
100
AcDbEntity
  8
0
  6
Continuous
 62
     7
370
    25
100
AcDbLine
 10
0.5205128205
 20
0.7461538462
 30
0.0
 11
0.5205128205
 21
0.7820512821
 31
0.0
  0
SPLINE
  5
98
330
1F
100
AcDbEntity
  8
0
  6
Continuous
 62
     7
370
    25
100
AcDbSpline
210
0.0
220
0.0
230
1.0
 70
     8
 71
     3
 72
    15
 73
    11
 74
     0
 42
0.000000001
 43
0.00000001
 40
0.0
 40
0.0
 40
0.0
 40
0.0
 40
0.1247358891350073
 40
0.2438433032822237
 40
0.3597202588892489
 40
0.4747886231506209
 40
0.5934618615699082
 40
0.7193065090403338
 40
0.8538320351525409
 40
1.0
 40
1.0
 40
1.0
 40
1.0
 10
0.5205128205128207
 20
0.7820512820512818
 30
0.0
 10
0.5250948796945785
 20
0.7849397005933081
 30
0.0
 10
0.5340522411601722
 20
0.7905862031631257
 30
0.0
 10
0.5456615607693589
 20
0.8011103091952996
 30
0.0
 10
0.5554919430707167
 20
0.8127285812202693
 30
0.0
 10
0.5634681705337131
 20
0.8256875344223995
 30
0.0
 10
0.5696085498491689
 20
0.8400775504470094
 30
0.0
 10
0.5738735892025685
 20
0.8559917273915282
 30
0.0
 10
0.5764539134198222
 20
0.8734736175331703
 30
0.0
 10
0.5767624236864858
 20
0.8856476760345238
 30
0.0
 10
0.576923076923077
 20
0.8919871794871793
 30
0.0
  0
SPLINE
  5
99
330
1F
100
AcDbEntity
  8
0
  6
Continuous
 62
     7
370
    25
100
AcDbSpline
210
0.0
220
0.0
230
1.0
 70
     8
 71
     3
 72
    23
 73
    19
 74
     0
 42
0.000000001
 43
0.00000001
 40
0.0
 40
0.0
 40
0.0
 40
0.0
 40
0.0981800307022276
 40
0.189281271795562
 40
0.2744874710098453
 40
0.3552191901773294
 40
0.4311232324181565
 40
0.5010380099686397
 40
0.5665654201239714
 40
0.6296842707826611
 40
0.6626770370934039
 40
0.6987351108899722
 40
0.7385836310761078
 40
0.7821468808884896
 40
0.8303937011820631
 40
0.882567420728455
 40
0.9392232751035708
 40
1.0
 40
1.0
 40
1.0
 40
1.0
 10
0.576923076923077
 20
0.8919871794871793
 30
0.0
 10
0.5767603151809724
 20
0.8982465283802583
 30
0.0
 10
0.5764465268339443
 20
0.9103139265122419
 30
0.0
 10
0.5738725647136826
 20
0.9276623727430047
 30
0.0
 10
0.5696072231455609
 20
0.9435246397328296
 30
0.0
 10
0.5634806957514645
 20
0.9577255342427473
 30
0.0
 10
0.5561217685289983
 20
0.9701767095911115
 30
0.0
 10
0.547982996348218
 20
0.9809721697307675
 30
0.0
 10
0.5386969232669089
 20
0.9896467417335051
 30
0.0
 10
0.5301551042882019
 20
0.9955035989203964
 30
0.0
 10
0.5225402033918554
 20
0.9991409055155317
 30
0.0
 10
0.5159860442479282
 20
1.001459336962275
 30
0.0
 10
0.5085984714514362
 20
1.003329124705663
 30
0.0
 10
0.5003598564614337
 20
1.004934201614429
 30
0.0
 10
0.4912670371638053
 20
1.006206043339298
 30
0.0
 10
0.4812890044466596
 20
1.007040499501974
 30
0.0
 10
0.4704932472997734
 20
1.007632755265718
 30
0.0
 10
0.4630083774776242
 20
1.007671997857955
 30
0.0
 10
0.4591346153846155
 20
1.007692307692307
 30
0.0
  0
LINE
  5
9A
330
1F
100
AcDbEntity
  8
0
  6
Continuous
 62
     7
370
    25
100
AcDbLine
 10
0.4591346154
 20
1.0076923077
 30
0.0
 11
0.4439903846
 21
1.0076923077
 31
0.0
  0
SPLINE
  5
9B
330
1F
100
AcDbEntity
  8
0
  6
Continuous
 62
     7
370
    25
100
AcDbSpline
210
0.0
220
0.0
230
1.0
 70
     8
 71
     3
 72
    15
 73
    11
 74
     0
 42
0.000000001
 43
0.00000001
 40
0.0
 40
0.0
 40
0.0
 40
0.0
 40
0.1265838143806205
 40
0.2509410582741931
 40
0.3744426922751051
 40
0.4995726865995391
 40
0.6247326359516839
 40
0.7489936664398478
 40
0.8731569712690069
 40
1.0
 40
1.0
 40
1.0
 40
1.0
 10
0.4439903846153848
 20
1.007692307692307
 30
0.0
 10
0.4483248306891747
 20
1.004047524376349
 30
0.0
 10
0.4569174812591659
 20
0.9968220683655479
 30
0.0
 10
0.4681970548115367
 20
0.9843775265133398
 30
0.0
 10
0.4777941902733149
 20
0.9706991634518576
 30
0.0
 10
0.4857770853122537
 20
0.9559803273452754
 30
0.0
 10
0.4921018439865675
 20
0.9404403783457466
 30
0.0
 10
0.4966846835724811
 20
0.9243540643962898
 30
0.0
 10
0.4995272911911045
 20
0.907766545986544
 30
0.0
 10
0.4998413129066447
 20
0.8965390596598254
 30
0.0
 10
0.5000000000000001
 20
0.8908653846153844
 30
0.0
  0
SPLINE
  5
9C
330
1F
100
AcDbEntity
  8
0
  6
Continuous
 62
     7
370
    25
100
AcDbSpline
210
0.0
220
0.0
230
1.0
 70
     8
 71
     3
 72
    31
 73
    27
 74
     0
 42
0.000000001
 43
0.00000001
 40
0.0
 40
0.0
 40
0.0
 40
0.0
 40
0.0428629316923221
 40
0.0851867202395637
 40
0.1272194862102865
 40
0.1690407317455991
 40
0.2108956678708566
 40
0.2528557127387215
 40
0.2956583126994622
 40
0.3385814913226977
 40
0.3814896161437247
 40
0.4236061350521134
 40
0.4650889698019283
 40
0.5063332649154264
 40
0.5470588153174646
 40
0.5876934104089292
 40
0.6286906160143597
 40
0.6699605348942496
 40
0.711047893105208
 40
0.7520064011351514
 40
0.7926814459188899
 40
0.8334531181368431
 40
0.874195970338317
 40
0.9154971855660003
 40
0.9574796195743198
 40
1.0
 40
1.0
 40
1.0
 40
1.0
 10
0.5000000000000001
 20
0.8908653846153844
 30
0.0
 10
0.499929501038741
 20
0.8875253655350345
 30
0.0
 10
0.4997893898738522
 20
0.8808873391621551
 30
0.0
 10
0.4989370847428581
 20
0.8709977644219092
 30
0.0
 10
0.4972773589138109
 20
0.8612987866183616
 30
0.0
 10
0.4951520722801741
 20
0.8517286224291687
 30
0.0
 10
0.4923031850093183
 20
0.8423541313662336
 30
0.0
 10
0.4889595022773526
 20
0.8330629900150511
 30
0.0
 10
0.4848525755079214
 20
0.8239901276242385
 30
0.0
 10
0.4802287395700555
 20
0.8150892514738326
 30
0.0
 10
0.4750335384069773
 20
0.8065697712066744
 30
0.0
 10
0.4694205343237889
 20
0.7984584733861249
 30
0.0
 10
0.4634016922198166
 20
0.7908052457052751
 30
0.0
 10
0.4569222408022984
 20
0.7836809909640662
 30
0.0
 10
0.4499903559860358
 20
0.7770955651136788
 30
0.0
 10
0.4426802496424197
 20
0.7709602599555093
 30
0.0
 10
0.4348897611301601
 20
0.7653765647575324
 30
0.0
 10
0.4267609670068721
 20
0.760229891266497
 30
0.0
 10
0.4182397182977917
 20
0.7557661713400922
 30
0.0
 10
0.4095107931788906
 20
0.751847957386247
 30
0.0
 10
0.4005928555040427
 20
0.7484411682469675
 30
0.0
 10
0.3914560483487169
 20
0.7457251223320145
 30
0.0
 10
0.3821061319054704
 20
0.7436507093874929
 30
0.0
 10
0.3725584234633495
 20
0.7421066834457265
 30
0.0
 10
0.3627835220198127
 20
0.741230919827968
 30
0.0
 10
0.3561982249690056
 20
0.7410943570800429
 30
0.0
 10
0.3528846153846156
 20
0.7410256410256411
 30
0.0
  0
SPLINE
  5
9D
330
1F
100
AcDbEntity
  8
0
  6
Continuous
 62
     7
370
    25
100
AcDbSpline
210
0.0
220
0.0
230
1.0
 70
     8
 71
     3
 72
    31
 73
    27
 74
     0
 42
0.000000001
 43
0.00000001
 40
0.0
 40
0.0
 40
0.0
 40
0.0
 40
0.0420341186638458
 40
0.0839054330862331
 40
0.1250689344486241
 40
0.1661584697031402
 40
0.2072102728707295
 40
0.2484907320562534
 40
0.2898781122327934
 40
0.3321695142040873
 40
0.374475842153922
 40
0.416224980456209
 40
0.4576095869585057
 40
0.4990731704672239
 40
0.5405533615534476
 40
0.5822488491953585
 40
0.6245497501259992
 40
0.6674328009210359
 40
0.7103225433055331
 40
0.7524671185698666
 40
0.7940647568438064
 40
0.8352157072950134
 40
0.8762283442246852
 40
0.9174461887061518
 40
0.9586431404713236
 40
0.9999999999999999
 40
0.9999999999999999
 40
0.9999999999999999
 40
0.9999999999999999
 10
0.3528846153846155
 20
0.7410256410256408
 30
0.0
 10
0.3495699758418592
 20
0.7410849743142742
 30
0.0
 10
0.3429535348363069
 20
0.7412034110851036
 30
0.0
 10
0.3331387479348822
 20
0.7422263801538359
 30
0.0
 10
0.3234553839072379
 20
0.7436856018023019
 30
0.0
 10
0.3140032534281464
 20
0.7459950611161179
 30
0.0
 10
0.3046747103694759
 20
0.748774777974505
 30
0.0
 10
0.295538658208163
 20
0.7522174719810504
 30
0.0
 10
0.2865923143101961
 20
0.7563567587624144
 30
0.0
 10
0.2778290535735771
 20
0.7610435872968616
 30
0.0
 10
0.2693664690096392
 20
0.7663103407427488
 30
0.0
 10
0.2613291380491048
 20
0.7720854814064121
 30
0.0
 10
0.2537762041147178
 20
0.7783759813218158
 30
0.0
 10
0.2466314701869025
 20
0.7850950573927024
 30
0.0
 10
0.2399638709621621
 20
0.7923247507685088
 30
0.0
 10
0.2337895892611916
 20
0.8000613213222544
 30
0.0
 10
0.2280051291161033
 20
0.8082285076361168
 30
0.0
 10
0.2227352620119851
 20
0.8168516219213634
 30
0.0
 10
0.2180744338382753
 20
0.8257976091804163
 30
0.0
 10
0.2138215656183132
 20
0.8348391883567456
 30
0.0
 10
0.2104462376720123
 20
0.8440961295019774
 30
0.0
 10
0.2074721692108135
 20
0.853395848293286
 30
0.0
 10
0.2053652897571161
 20
0.8629021242662002
 30
0.0
 10
0.2037398906808015
 20
0.872498397823053
 30
0.0
 10
0.2027496368493393
 20
0.8822175221379411
 30
0.0
 10
0.2026260271370338
 20
0.8887264244290904
 30
0.0
 10
0.2025641025641027
 20
0.8919871794871794
 30
0.0
  0
SPLINE
  5
9E
330
1F
100
AcDbEntity
  8
0
  6
Continuous
 62
     7
370
    25
100
AcDbSpline
210
0.0
220
0.0
230
1.0
 70
     8
 71
     3
 72
    15
 73
    11
 74
     0
 42
0.000000001
 43
0.00000001
 40
0.0
 40
0.0
 40
0.0
 40
0.0
 40
0.120911078748713
 40
0.2387622286387251
 40
0.3547548590848623
 40
0.4703593994502188
 40
0.5891440987928704
 40
0.7163289048363446
 40
0.852445285857601
 40
0.9999999999999999
 40
0.9999999999999999
 40
0.9999999999999999
 40
0.9999999999999999
 10
0.2025641025641027
 20
0.8919871794871793
 30
0.0
 10
0.2027191509392043
 20
0.8973644296562606
 30
0.0
 10
0.203025323838902
 20
0.9079828464928693
 30
0.0
 10
0.205427740454125
 20
0.9236092467704105
 30
0.0
 10
0.2092579134085992
 20
0.9386883599106344
 30
0.0
 10
0.2147454140383339
 20
0.9533052759880027
 30
0.0
 10
0.222236846990909
 20
0.9675790646738613
 30
0.0
 10
0.2321046124777979
 20
0.9814626824235778
 30
0.0
 10
0.2444372227328797
 20
0.9949962977578539
 30
0.0
 10
0.253894692946275
 20
1.003348049820447
 30
0.0
 10
0.2588141025641027
 20
1.007692307692307
 30
0.0
  0
SPLINE
  5
9F
330
1F
100
AcDbEntity
  8
0
  6
Continuous
 62
     7
370
    25
100
AcDbSpline
210
0.0
220
0.0
230
1.0
 70
     8
 71
     3
 72
    19
 73
    15
 74
     0
 42
0.000000001
 43
0.00000001
 40
0.0
 40
0.0
 40
0.0
 40
0.0
 40
0.0825973897730137
 40
0.1638890659419901
 40
0.2456739874883926
 40
0.3279192166898947
 40
0.4088085026734913
 40
0.4856888350555661
 40
0.5591133624229463
 40
0.6302171951723623
 40
0.7052594052730742
 40
0.7915699377379796
 40
0.8897895971552948
 40
1.0
 40
1.0
 40
1.0
 40
1.0
 10
0.4692307692307693
 20
1.791266025641026
 30
0.0
 10
0.4691618366390792
 20
1.794849170272141
 30
0.0
 10
0.469025061153848
 20
1.801958816573825
 30
0.0
 10
0.4676760280541675
 20
1.812544040222217
 30
0.0
 10
0.4655379276830622
 20
1.822976133969327
 30
0.0
 10
0.4624584128509445
 20
1.833151509966072
 30
0.0
 10
0.4588523425125866
 20
1.84292187484159
 30
0.0
 10
0.4546080210058273
 20
1.852019751224199
 30
0.0
 10
0.4497690140778043
 20
1.860324860583217
 30
0.0
 10
0.4442700888147036
 20
1.868117356042324
 30
0.0
 10
0.4375214633102641
 20
1.875634773975141
 30
0.0
 10
0.4291807520562114
 20
1.883210146490832
 30
0.0
 10
0.4191533544705174
 20
1.891153657866289
 30
0.0
 10
0.4116564199780008
 20
1.896206462023501
 30
0.0
 10
0.4076923076923079
 20
1.898878205128206
 30
0.0
  0
LINE
  5
A0
330
1F
100
AcDbEntity
  8
0
  6
Continuous
 62
     7
370
    25
100
AcDbLine
 10
0.4076923077
 20
1.8988782051
 30
0.0
 11
0.4244391026
 21
1.9307692308
 31
0.0
  0
SPLINE
  5
A1
330
1F
100
AcDbEntity
  8
0
  6
Continuous
 62
     7
370
    25
100
AcDbSpline
210
0.0
220
0.0
230
1.0
 70
     8
 71
     3
 72
    19
 73
    15
 74
     0
 42
0.000000001
 43
0.00000001
 40
0.0
 40
0.0
 40
0.0
 40
0.0
 40
0.0933843035104752
 40
0.181688873772727
 40
0.2655458909096732
 40
0.3460389003617326
 40
0.4245971804377608
 40
0.5019124634157566
 40
0.58001345297492
 40
0.6582914396427477
 40
0.7385326591090114
 40
0.8218665907733598
 40
0.9087866811288322
 40
1.0
 40
1.0
 40
1.0
 40
1.0
 10
0.4244391025641027
 20
1.930769230769231
 30
0.0
 10
0.4289458432723666
 20
1.928226572365115
 30
0.0
 10
0.4377141759887778
 20
1.923279566021797
 30
0.0
 10
0.4497614867102336
 20
1.914806774872492
 30
0.0
 10
0.4605349192508122
 20
1.905843521478974
 30
0.0
 10
0.4698619599775345
 20
1.896117089720863
 30
0.0
 10
0.4780988950935059
 20
1.885920578102797
 30
0.0
 10
0.485203712256069
 20
1.875060323164371
 30
0.0
 10
0.4913046079918261
 20
1.863624970522711
 30
0.0
 10
0.4963037227753279
 20
1.851488565485993
 30
0.0
 10
0.5002338117847137
 20
1.838665646243436
 30
0.0
 10
0.5031362093426648
 20
1.825081805169516
 30
0.0
 10
0.5048193241380483
 20
1.810672904369408
 30
0.0
 10
0.5050236036710152
 20
1.80080570862049
 30
0.0
 10
0.5051282051282053
 20
1.795753205128205
 30
0.0
  0
SPLINE
  5
A2
330
1F
100
AcDbEntity
  8
0
  6
Continuous
 62
     7
370
    25
100
AcDbSpline
210
0.0
220
0.0
230
1.0
 70
     8
 71
     3
 72
    23
 73
    19
 74
     0
 42
0.000000001
 43
0.00000001
 40
0.0
 40
0.0
 40
0.0
 40
0.0
 40
0.0715779287389559
 40
0.1396278027222125
 40
0.2047946117667382
 40
0.2681322327359262
 40
0.3298103881951566
 40
0.3912974127986469
 40
0.4534288973736156
 40
0.5165464298068843
 40
0.5796253677956428
 40
0.6411123923991329
 40
0.7012869047874497
 40
0.7604890340066117
 40
0.8199335555762227
 40
0.8789208085708153
 40
0.9389834436435341
 40
0.9999999999999999
 40
0.9999999999999999
 40
0.9999999999999999
 40
0.9999999999999999
 10
0.5051282051282053
 20
1.795753205128205
 30
0.0
 10
0.5049970993724482
 20
1.790136979133563
 30
0.0
 10
0.5047413500245262
 20
1.779181349248222
 30
0.0
 10
0.5025364969991373
 20
1.763233949447575
 30
0.0
 10
0.4989396558168229
 20
1.748219159240149
 30
0.0
 10
0.4939150231778145
 20
1.734137820047258
 30
0.0
 10
0.4873518979879638
 20
1.721024425775945
 30
0.0
 10
0.4793565376887345
 20
1.708852877141436
 30
0.0
 10
0.4699699600109958
 20
1.697559301791271
 30
0.0
 10
0.4591110680773997
 20
1.687499070377697
 30
0.0
 10
0.4474897899617666
 20
1.678443820566658
 30
0.0
 10
0.4353822918088397
 20
1.670447982836689
 30
0.0
 10
0.4228305031575419
 20
1.663794299542756
 30
0.0
 10
0.4099091044501827
 20
1.658299216164221
 30
0.0
 10
0.3966474582446787
 20
1.653964636683145
 30
0.0
 10
0.3829696135321934
 20
1.65088441768208
 30
0.0
 10
0.3689298069419781
 20
1.649125200708471
 30
0.0
 10
0.3594331659781245
 20
1.648854410520782
 30
0.0
 10
0.3546474358974361
 20
1.648717948717949
 30
0.0
  0
SPLINE
  5
A3
330
1F
100
AcDbEntity
  8
0
  6
Continuous
 62
     7
370
    25
100
AcDbSpline
210
0.0
220
0.0
230
1.0
 70
     8
 71
     3
 72
    15
 73
    11
 74
     0
 42
0.000000001
 43
0.00000001
 40
0.0
 40
0.0
 40
0.0
 40
0.0
 40
0.1280448079611204
 40
0.2537679000244898
 40
0.3774284265813018
 40
0.5005508414825328
 40
0.6232958832424763
 40
0.7465783319335074
 40
0.8723475406047169
 40
1.0
 40
1.0
 40
1.0
 40
1.0
 10
0.3546474358974361
 20
1.648717948717949
 30
0.0
 10
0.3501565981354274
 20
1.648838993441446
 30
0.0
 10
0.3412563507426422
 20
1.649078888098479
 30
0.0
 10
0.328083145653467
 20
1.650590978086329
 30
0.0
 10
0.3152798939359174
 20
1.653270783008388
 30
0.0
 10
0.3028359570251893
 20
1.656948077174003
 30
0.0
 10
0.2907721702841511
 20
1.661696791023517
 30
0.0
 10
0.2790811915843613
 20
1.66750618750537
 30
0.0
 10
0.2677754613145946
 20
1.674385316395517
 30
0.0
 10
0.2606436746051299
 20
1.679696479110541
 30
0.0
 10
0.2570512820512822
 20
1.682371794871795
 30
0.0
  0
SPLINE
  5
A4
330
1F
100
AcDbEntity
  8
0
  6
Continuous
 62
     7
370
    25
100
AcDbSpline
210
0.0
220
0.0
230
1.0
 70
     8
 71
     3
 72
    15
 73
    11
 74
     0
 42
0.000000001
 43
0.00000001
 40
0.0
 40
0.0
 40
0.0
 40
0.0
 40
0.1288514141696354
 40
0.2532072518977739
 40
0.3746340222150045
 40
0.4953459460202965
 40
0.6163458534169406
 40
0.739634471565341
 40
0.8668256185408373
 40
1.0
 40
1.0
 40
1.0
 40
1.0
 10
0.2570512820512822
 20
1.682371794871795
 30
0.0
 10
0.252716235310453
 20
1.685989282786457
 30
0.0
 10
0.2441973899476178
 20
1.693098045849305
 30
0.0
 10
0.2331059815395352
 20
1.705246247047505
 30
0.0
 10
0.223618229788444
 20
1.718223364756819
 30
0.0
 10
0.2158781031529333
 20
1.732159933237233
 30
0.0
 10
0.2099247219994892
 20
1.747032477107982
 30
0.0
 10
0.2056901607187801
 20
1.762764284937722
 30
0.0
 10
0.2030552232692425
 20
1.779398839013694
 30
0.0
 10
0.2027302984046883
 20
1.790802007815576
 30
0.0
 10
0.2025641025641027
 20
1.796634615384616
 30
0.0
  0
SPLINE
  5
A5
330
1F
100
AcDbEntity
  8
0
  6
Continuous
 62
     7
370
    25
100
AcDbSpline
210
0.0
220
0.0
230
1.0
 70
     8
 71
     3
 72
    15
 73
    11
 74
     0
 42
0.000000001
 43
0.00000001
 40
0.0
 40
0.0
 40
0.0
 40
0.0
 40
0.1320486370255619
 40
0.2590493247643351
 40
0.381904125481749
 40
0.5025162511634201
 40
0.6227281827366155
 40
0.7447263881325085
 40
0.8701006615077165
 40
0.9999999999999999
 40
0.9999999999999999
 40
0.9999999999999999
 40
0.9999999999999999
 10
0.2025641025641027
 20
1.796634615384616
 30
0.0
 10
0.2027180759636036
 20
1.802628972079144
 30
0.0
 10
0.2030201366744966
 20
1.814388533473283
 30
0.0
 10
0.2058455254364559
 20
1.831530191874364
 30
0.0
 10
0.2102716666727151
 20
1.847781838305318
 30
0.0
 10
0.2167203443256199
 20
1.863009356202266
 30
0.0
 10
0.2247139207433445
 20
1.877447379227116
 30
0.0
 10
0.234817427052124
 20
1.890763617862636
 30
0.0
 10
0.2465119352514185
 20
1.903323611545956
 30
0.0
 10
0.2555148845546773
 20
1.910626684094672
 30
0.0
 10
0.260096153846154
 20
1.914342948717949
 30
0.0
  0
SPLINE
  5
A6
330
1F
100
AcDbEntity
  8
0
  6
Continuous
 62
     7
370
    25
100
AcDbSpline
210
0.0
220
0.0
230
1.0
 70
     8
 71
     3
 72
    15
 73
    11
 74
     0
 42
0.000000001
 43
0.00000001
 40
0.0
 40
0.0
 40
0.0
 40
0.0
 40
0.1185218400132596
 40
0.2362547631617457
 40
0.3561744339909305
 40
0.477249654898558
 40
0.601539870821702
 40
0.7296183821680424
 40
0.8621582661414388
 40
1.0
 40
1.0
 40
1.0
 40
1.0
 10
0.260096153846154
 20
1.914342948717949
 30
0.0
 10
0.2635479917188728
 20
1.916871741667948
 30
0.0
 10
0.2704286909975939
 20
1.921912495164689
 30
0.0
 10
0.2816482518091004
 20
1.928226449454418
 30
0.0
 10
0.2933866054491179
 20
1.93370729459541
 30
0.0
 10
0.3058334965447749
 20
1.93808820442567
 30
0.0
 10
0.3188414485645387
 20
1.941635575990989
 30
0.0
 10
0.3325034536747455
 20
1.944202069561296
 30
0.0
 10
0.3468154435445577
 20
1.945707168827792
 30
0.0
 10
0.3565670498847524
 20
1.946003019953327
 30
0.0
 10
0.3615384615384616
 20
1.946153846153847
 30
0.0
  0
LINE
  5
A7
330
1F
100
AcDbEntity
  8
0
  6
Continuous
 62
     7
370
    25
100
AcDbLine
 10
0.3615384615
 20
1.9461538462
 30
0.0
 11
0.3615384615
 21
1.6846153846
 31
0.0
  0
SPLINE
  5
A8
330
1F
100
AcDbEntity
  8
0
  6
Continuous
 62
     7
370
    25
100
AcDbSpline
210
0.0
220
0.0
230
1.0
 70
     8
 71
     3
 72
    23
 73
    19
 74
     0
 42
0.000000001
 43
0.00000001
 40
0.0
 40
0.0
 40
0.0
 40
0.0
 40
0.0683846151037682
 40
0.1344755875434508
 40
0.1983910577839563
 40
0.260753477448486
 40
0.3218292228076489
 40
0.3830372384795239
 40
0.4446531231064255
 40
0.5073980112040045
 40
0.5698252379730243
 40
0.6307776406313133
 40
0.690928686523716
 40
0.7509451326917352
 40
0.8110494767293266
 40
0.8723308525469933
 40
0.9350040935894055
 40
1.0
 40
1.0
 40
1.0
 40
1.0
 10
0.3615384615384616
 20
1.684615384615385
 30
0.0
 10
0.3653899431667033
 20
1.684791339635859
 30
0.0
 10
0.3729637264523837
 20
1.685137348087082
 30
0.0
 10
0.3840461016618092
 20
1.686750507306104
 30
0.0
 10
0.3946030550519375
 20
1.689293224308872
 30
0.0
 10
0.4045554027060486
 20
1.692866831467559
 30
0.0
 10
0.4140331315649385
 20
1.69719447092526
 30
0.0
 10
0.4229659357899248
 20
1.702495695700796
 30
0.0
 10
0.4313131277956273
 20
1.708820216152511
 30
0.0
 10
0.4391493720919851
 20
1.715874581796437
 30
0.0
 10
0.4461277447968653
 20
1.723726821263365
 30
0.0
 10
0.4523736620807823
 20
1.731987706660073
 30
0.0
 10
0.4576085874212809
 20
1.740775542658836
 30
0.0
 10
0.4618577176788178
 20
1.750021037915289
 30
0.0
 10
0.4651841537998582
 20
1.759709241931766
 30
0.0
 10
0.4674547618779065
 20
1.76984320708785
 30
0.0
 10
0.4689755740921769
 20
1.780402991814108
 30
0.0
 10
0.469144678686523
 20
1.787601361417854
 30
0.0
 10
0.4692307692307693
 20
1.791266025641026
 30
0.0
  0
SPLINE
  5
A9
330
1F
100
AcDbEntity
  8
0
  6
Continuous
 62
     7
370
    25
100
AcDbSpline
210
0.0
220
0.0
230
1.0
 70
     8
 71
     3
 72
    19
 73
    15
 74
     0
 42
0.000000001
 43
0.00000001
 40
0.0
 40
0.0
 40
0.0
 40
0.0
 40
0.0825973897730137
 40
0.1638890659419901
 40
0.2456739874883926
 40
0.3279192166898947
 40
0.4088085026734913
 40
0.4856888350555661
 40
0.5591133624229463
 40
0.6302171951723623
 40
0.7052594052730742
 40
0.7915699377379796
 40
0.8897895971552948
 40
1.0
 40
1.0
 40
1.0
 40
1.0
 10
0.4692307692307693
 20
2.319471153846154
 30
0.0
 10
0.4691618366390792
 20
2.323054298477269
 30
0.0
 10
0.469025061153848
 20
2.330163944778953
 30
0.0
 10
0.4676760280541675
 20
2.340749168427345
 30
0.0
 10
0.4655379276830622
 20
2.351181262174455
 30
0.0
 10
0.4624584128509445
 20
2.3613566381712
 30
0.0
 10
0.4588523425125866
 20
2.371127003046718
 30
0.0
 10
0.4546080210058273
 20
2.380224879429327
 30
0.0
 10
0.4497690140778043
 20
2.388529988788345
 30
0.0
 10
0.4442700888147036
 20
2.396322484247452
 30
0.0
 10
0.4375214633102641
 20
2.403839902180269
 30
0.0
 10
0.4291807520562114
 20
2.411415274695961
 30
0.0
 10
0.4191533544705174
 20
2.419358786071417
 30
0.0
 10
0.4116564199780008
 20
2.424411590228629
 30
0.0
 10
0.4076923076923079
 20
2.427083333333334
 30
0.0
  0
LINE
  5
AA
330
1F
100
AcDbEntity
  8
0
  6
Continuous
 62
     7
370
    25
100
AcDbLine
 10
0.4076923077
 20
2.4270833333
 30
0.0
 11
0.4244391026
 21
2.458974359
 31
0.0
  0
SPLINE
  5
AB
330
1F
100
AcDbEntity
  8
0
  6
Continuous
 62
     7
370
    25
100
AcDbSpline
210
0.0
220
0.0
230
1.0
 70
     8
 71
     3
 72
    19
 73
    15
 74
     0
 42
0.000000001
 43
0.00000001
 40
0.0
 40
0.0
 40
0.0
 40
0.0
 40
0.0933843035104752
 40
0.181688873772727
 40
0.2655458909096732
 40
0.3460389003617326
 40
0.4245971804377608
 40
0.5019124634157566
 40
0.58001345297492
 40
0.6582914396427477
 40
0.7385326591090114
 40
0.8218665907733598
 40
0.9087866811288322
 40
1.0
 40
1.0
 40
1.0
 40
1.0
 10
0.4244391025641027
 20
2.458974358974359
 30
0.0
 10
0.4289458432723666
 20
2.456431700570243
 30
0.0
 10
0.4377141759887778
 20
2.451484694226925
 30
0.0
 10
0.4497614867102336
 20
2.443011903077619
 30
0.0
 10
0.4605349192508122
 20
2.434048649684102
 30
0.0
 10
0.4698619599775345
 20
2.424322217925991
 30
0.0
 10
0.4780988950935059
 20
2.414125706307925
 30
0.0
 10
0.485203712256069
 20
2.403265451369499
 30
0.0
 10
0.4913046079918261
 20
2.391830098727839
 30
0.0
 10
0.4963037227753279
 20
2.379693693691121
 30
0.0
 10
0.5002338117847137
 20
2.366870774448564
 30
0.0
 10
0.5031362093426648
 20
2.353286933374644
 30
0.0
 10
0.5048193241380483
 20
2.338878032574536
 30
0.0
 10
0.5050236036710152
 20
2.329010836825618
 30
0.0
 10
0.5051282051282053
 20
2.323958333333334
 30
0.0
  0
SPLINE
  5
AC
330
1F
100
AcDbEntity
  8
0
  6
Continuous
 62
     7
370
    25
100
AcDbSpline
210
0.0
220
0.0
230
1.0
 70
     8
 71
     3
 72
    23
 73
    19
 74
     0
 42
0.000000001
 43
0.00000001
 40
0.0
 40
0.0
 40
0.0
 40
0.0
 40
0.0715779287389559
 40
0.1396278027222125
 40
0.2047946117667372
 40
0.2681322327359262
 40
0.3298103881951566
 40
0.3912974127986469
 40
0.4534288973736156
 40
0.5165464298068843
 40
0.5796253677956428
 40
0.6411123923991329
 40
0.7012869047874497
 40
0.7604890340066117
 40
0.8199335555762227
 40
0.8789208085708153
 40
0.9389834436435341
 40
0.9999999999999999
 40
0.9999999999999999
 40
0.9999999999999999
 40
0.9999999999999999
 10
0.5051282051282053
 20
2.323958333333334
 30
0.0
 10
0.5049970993724482
 20
2.318342107338691
 30
0.0
 10
0.5047413500245264
 20
2.30738647745335
 30
0.0
 10
0.5025364969991372
 20
2.291439077652703
 30
0.0
 10
0.498939655816823
 20
2.276424287445278
 30
0.0
 10
0.4939150231778149
 20
2.262342948252388
 30
0.0
 10
0.4873518979879637
 20
2.249229553981072
 30
0.0
 10
0.4793565376887346
 20
2.237058005346564
 30
0.0
 10
0.4699699600109958
 20
2.225764429996398
 30
0.0
 10
0.4591110680773997
 20
2.215704198582825
 30
0.0
 10
0.4474897899617666
 20
2.206648948771786
 30
0.0
 10
0.4353822918088397
 20
2.198653111041817
 30
0.0
 10
0.4228305031575419
 20
2.191999427747884
 30
0.0
 10
0.4099091044501827
 20
2.186504344369349
 30
0.0
 10
0.3966474582446787
 20
2.182169764888273
 30
0.0
 10
0.3829696135321934
 20
2.179089545887208
 30
0.0
 10
0.3689298069419781
 20
2.177330328913599
 30
0.0
 10
0.3594331659781245
 20
2.17705953872591
 30
0.0
 10
0.3546474358974361
 20
2.176923076923077
 30
0.0
  0
SPLINE
  5
AD
330
1F
100
AcDbEntity
  8
0
  6
Continuous
 62
     7
370
    25
100
AcDbSpline
210
0.0
220
0.0
230
1.0
 70
     8
 71
     3
 72
    15
 73
    11
 74
     0
 42
0.000000001
 43
0.00000001
 40
0.0
 40
0.0
 40
0.0
 40
0.0
 40
0.1280448079611204
 40
0.2537679000244898
 40
0.3774284265813018
 40
0.5005508414825328
 40
0.6232958832424763
 40
0.7465783319335074
 40
0.8723475406047169
 40
1.0
 40
1.0
 40
1.0
 40
1.0
 10
0.3546474358974361
 20
2.176923076923077
 30
0.0
 10
0.3501565981354274
 20
2.177044121646573
 30
0.0
 10
0.3412563507426422
 20
2.177284016303607
 30
0.0
 10
0.328083145653467
 20
2.178796106291457
 30
0.0
 10
0.3152798939359174
 20
2.181475911213516
 30
0.0
 10
0.3028359570251893
 20
2.185153205379132
 30
0.0
 10
0.2907721702841511
 20
2.189901919228645
 30
0.0
 10
0.2790811915843613
 20
2.195711315710497
 30
0.0
 10
0.2677754613145946
 20
2.202590444600645
 30
0.0
 10
0.2606436746051299
 20
2.20790160731567
 30
0.0
 10
0.2570512820512822
 20
2.210576923076923
 30
0.0
  0
SPLINE
  5
AE
330
1F
100
AcDbEntity
  8
0
  6
Continuous
 62
     7
370
    25
100
AcDbSpline
210
0.0
220
0.0
230
1.0
 70
     8
 71
     3
 72
    15
 73
    11
 74
     0
 42
0.000000001
 43
0.00000001
 40
0.0
 40
0.0
 40
0.0
 40
0.0
 40
0.1288514141696354
 40
0.2532072518977739
 40
0.3746340222150045
 40
0.4953459460202965
 40
0.6163458534169406
 40
0.739634471565341
 40
0.8668256185408373
 40
1.0
 40
1.0
 40
1.0
 40
1.0
 10
0.2570512820512822
 20
2.210576923076923
 30
0.0
 10
0.252716235310453
 20
2.214194410991584
 30
0.0
 10
0.2441973899476178
 20
2.221303174054433
 30
0.0
 10
0.2331059815395352
 20
2.233451375252633
 30
0.0
 10
0.223618229788444
 20
2.246428492961947
 30
0.0
 10
0.2158781031529333
 20
2.260365061442361
 30
0.0
 10
0.2099247219994892
 20
2.27523760531311
 30
0.0
 10
0.2056901607187801
 20
2.29096941314285
 30
0.0
 10
0.2030552232692425
 20
2.307603967218823
 30
0.0
 10
0.2027302984046883
 20
2.319007136020704
 30
0.0
 10
0.2025641025641027
 20
2.324839743589743
 30
0.0
  0
SPLINE
  5
AF
330
1F
100
AcDbEntity
  8
0
  6
Continuous
 62
     7
370
    25
100
AcDbSpline
210
0.0
220
0.0
230
1.0
 70
     8
 71
     3
 72
    15
 73
    11
 74
     0
 42
0.000000001
 43
0.00000001
 40
0.0
 40
0.0
 40
0.0
 40
0.0
 40
0.132048637025562
 40
0.2590493247643335
 40
0.3819041254817494
 40
0.5025162511634208
 40
0.6227281827366163
 40
0.7447263881325095
 40
0.8701006615077177
 40
1.0
 40
1.0
 40
1.0
 40
1.0
 10
0.2025641025641027
 20
2.324839743589743
 30
0.0
 10
0.2027180759636036
 20
2.330834100284273
 30
0.0
 10
0.2030201366744966
 20
2.342593661678411
 30
0.0
 10
0.2058455254364559
 20
2.359735320079491
 30
0.0
 10
0.2102716666727151
 20
2.375986966510446
 30
0.0
 10
0.2167203443256199
 20
2.391214484407394
 30
0.0
 10
0.2247139207433445
 20
2.405652507432245
 30
0.0
 10
0.2348174270521241
 20
2.418968746067764
 30
0.0
 10
0.2465119352514183
 20
2.431528739751083
 30
0.0
 10
0.2555148845546772
 20
2.438831812299799
 30
0.0
 10
0.260096153846154
 20
2.442548076923077
 30
0.0
  0
SPLINE
  5
B0
330
1F
100
AcDbEntity
  8
0
  6
Continuous
 62
     7
370
    25
100
AcDbSpline
210
0.0
220
0.0
230
1.0
 70
     8
 71
     3
 72
    15
 73
    11
 74
     0
 42
0.000000001
 43
0.00000001
 40
0.0
 40
0.0
 40
0.0
 40
0.0
 40
0.1185218400132609
 40
0.2362547631617469
 40
0.3561744339909314
 40
0.4772496548985579
 40
0.601539870821703
 40
0.7296183821680433
 40
0.862158266141439
 40
1.0
 40
1.0
 40
1.0
 40
1.0
 10
0.260096153846154
 20
2.442548076923077
 30
0.0
 10
0.2635479917188728
 20
2.445076869873076
 30
0.0
 10
0.2704286909975939
 20
2.450117623369817
 30
0.0
 10
0.2816482518091005
 20
2.456431577659547
 30
0.0
 10
0.2933866054491179
 20
2.461912422800538
 30
0.0
 10
0.3058334965447751
 20
2.466293332630797
 30
0.0
 10
0.3188414485645385
 20
2.469840704196118
 30
0.0
 10
0.3325034536747456
 20
2.472407197766425
 30
0.0
 10
0.3468154435445576
 20
2.473912297032919
 30
0.0
 10
0.3565670498847524
 20
2.474208148158455
 30
0.0
 10
0.3615384615384617
 20
2.474358974358975
 30
0.0
  0
LINE
  5
B1
330
1F
100
AcDbEntity
  8
0
  6
Continuous
 62
     7
370
    25
100
AcDbLine
 10
0.3615384615
 20
2.4743589744
 30
0.0
 11
0.3615384615
 21
2.2128205128
 31
0.0
  0
SPLINE
  5
B2
330
1F
100
AcDbEntity
  8
0
  6
Continuous
 62
     7
370
    25
100
AcDbSpline
210
0.0
220
0.0
230
1.0
 70
     8
 71
     3
 72
    23
 73
    19
 74
     0
 42
0.000000001
 43
0.00000001
 40
0.0
 40
0.0
 40
0.0
 40
0.0
 40
0.0683846151037683
 40
0.1344755875434508
 40
0.1983910577839564
 40
0.2607534774484861
 40
0.321829222807649
 40
0.383037238479524
 40
0.4446531231064266
 40
0.5073980112040045
 40
0.5698252379730244
 40
0.6307776406313133
 40
0.6909286865237161
 40
0.7509451326917354
 40
0.8110494767293267
 40
0.8723308525469934
 40
0.9350040935894055
 40
1.0
 40
1.0
 40
1.0
 40
1.0
 10
0.3615384615384616
 20
2.212820512820513
 30
0.0
 10
0.3653899431667034
 20
2.212996467840988
 30
0.0
 10
0.3729637264523838
 20
2.213342476292211
 30
0.0
 10
0.3840461016618091
 20
2.214955635511231
 30
0.0
 10
0.3946030550519376
 20
2.217498352514001
 30
0.0
 10
0.4045554027060486
 20
2.221071959672686
 30
0.0
 10
0.4140331315649385
 20
2.225399599130388
 30
0.0
 10
0.4229659357899248
 20
2.230700823905924
 30
0.0
 10
0.4313131277956272
 20
2.237025344357638
 30
0.0
 10
0.4391493720919852
 20
2.244079710001566
 30
0.0
 10
0.4461277447968653
 20
2.251931949468493
 30
0.0
 10
0.4523736620807822
 20
2.260192834865201
 30
0.0
 10
0.4576085874212809
 20
2.268980670863965
 30
0.0
 10
0.4618577176788178
 20
2.278226166120417
 30
0.0
 10
0.4651841537998582
 20
2.287914370136894
 30
0.0
 10
0.4674547618779066
 20
2.298048335292979
 30
0.0
 10
0.4689755740921767
 20
2.308608120019236
 30
0.0
 10
0.4691446786865228
 20
2.315806489622982
 30
0.0
 10
0.4692307692307693
 20
2.319471153846154
 30
0.0
  0
LINE
  5
B3
330
1F
100
AcDbEntity
  8
0
  6
Continuous
 62
     7
370
    25
100
AcDbLine
 10
-2.25
 20
-0.6
 30
0.0
 11
-2.5
 21
-0.6
 31
0.0
  0
LINE
  5
B4
330
1F
100
AcDbEntity
  8
0
  6
Continuous
 62
     7
370
    25
100
AcDbLine
 10
-2.25
 20
-1.8
 30
0.0
 11
-2.25
 21
-0.6
 31
0.0
  0
LINE
  5
B5
330
1F
100
AcDbEntity
  8
0
  6
Continuous
 62
     7
370
    25
100
AcDbLine
 10
-2.5
 20
-1.8
 30
0.0
 11
-2.25
 21
-1.8
 31
0.0
  0
LINE
  5
B6
330
1F
100
AcDbEntity
  8
0
  6
Continuous
 62
     7
370
    25
100
AcDbLine
 10
-2.5
 20
-0.6
 30
0.0
 11
-2.5
 21
-1.8
 31
0.0
  0
LINE
  5
B7
330
1F
100
AcDbEntity
  8
0
  6
Continuous
 62
     7
370
    25
100
AcDbLine
 10
-2.25
 20
1.8
 30
0.0
 11
-2.5
 21
1.8
 31
0.0
  0
LINE
  5
B8
330
1F
100
AcDbEntity
  8
0
  6
Continuous
 62
     7
370
    25
100
AcDbLine
 10
-2.25
 20
0.6
 30
0.0
 11
-2.25
 21
1.8
 31
0.0
  0
LINE
  5
B9
330
1F
100
AcDbEntity
  8
0
  6
Continuous
 62
     7
370
    25
100
AcDbLine
 10
-2.5
 20
0.6
 30
0.0
 11
-2.25
 21
0.6
 31
0.0
  0
LINE
  5
BA
330
1F
100
AcDbEntity
  8
0
  6
Continuous
 62
     7
370
    25
100
AcDbLine
 10
-2.5
 20
1.8
 30
0.0
 11
-2.5
 21
0.6
 31
0.0
  0
LINE
  5
BB
330
1F
100
AcDbEntity
  8
0
  6
Continuous
 62
     7
370
    25
100
AcDbLine
 10
-3.0
 20
-0.6
 30
0.0
 11
-3.0
 21
-1.8
 31
0.0
  0
LINE
  5
BC
330
1F
100
AcDbEntity
  8
0
  6
Continuous
 62
     7
370
    25
100
AcDbLine
 10
-2.75
 20
-1.8
 30
0.0
 11
-3.0
 21
-1.8
 31
0.0
  0
LINE
  5
BD
330
1F
100
AcDbEntity
  8
0
  6
Continuous
 62
     7
370
    25
100
AcDbLine
 10
-2.75
 20
-3.0
 30
0.0
 11
-2.75
 21
-1.8
 31
0.0
  0
LINE
  5
BE
330
1F
100
AcDbEntity
  8
0
  6
Continuous
 62
     7
370
    25
100
AcDbLine
 10
-2.75
 20
-3.0
 30
0.0
 11
3.0
 21
-3.0
 31
0.0
  0
LINE
  5
BF
330
1F
100
AcDbEntity
  8
0
  6
Continuous
 62
     7
370
    25
100
AcDbLine
 10
3.0
 20
-3.0
 30
0.0
 11
3.0
 21
3.0
 31
0.0
  0
LINE
  5
C0
330
1F
100
AcDbEntity
  8
0
  6
Continuous
 62
     7
370
    25
100
AcDbLine
 10
3.0
 20
3.0
 30
0.0
 11
-2.75
 21
3.0
 31
0.0
  0
LINE
  5
C1
330
1F
100
AcDbEntity
  8
0
  6
Continuous
 62
     7
370
    25
100
AcDbLine
 10
-2.75
 20
1.8
 30
0.0
 11
-2.75
 21
3.0
 31
0.0
  0
LINE
  5
C2
330
1F
100
AcDbEntity
  8
0
  6
Continuous
 62
     7
370
    25
100
AcDbLine
 10
-3.0
 20
1.8
 30
0.0
 11
-2.75
 21
1.8
 31
0.0
  0
LINE
  5
C3
330
1F
100
AcDbEntity
  8
0
  6
Continuous
 62
     7
370
    25
100
AcDbLine
 10
-3.0
 20
1.8
 30
0.0
 11
-3.0
 21
0.6
 31
0.0
  0
LINE
  5
C4
330
1F
100
AcDbEntity
  8
0
  6
Continuous
 62
     7
370
    25
100
AcDbLine
 10
-2.75
 20
0.6
 30
0.0
 11
-3.0
 21
0.6
 31
0.0
  0
LINE
  5
C5
330
1F
100
AcDbEntity
  8
0
  6
Continuous
 62
     7
370
    25
100
AcDbLine
 10
-2.75
 20
-0.6
 30
0.0
 11
-2.75
 21
0.6
 31
0.0
  0
LINE
  5
C6
330
1F
100
AcDbEntity
  8
0
  6
Continuous
 62
     7
370
    25
100
AcDbLine
 10
-3.0
 20
-0.6
 30
0.0
 11
-2.75
 21
-0.6
 31
0.0
  0
LINE
  5
C7
330
1F
100
AcDbEntity
  8
0
  6
Continuous
 62
     7
370
    25
100
AcDbLine
 10
0.5
 20
2.0076923077
 30
0.0
 11
0.2076923077
 21
2.0076923077
 31
0.0
  0
LINE
  5
C8
330
1F
100
AcDbEntity
  8
0
  6
Continuous
 62
     7
370
    25
100
AcDbLine
 10
0.2076923077
 20
2.0076923077
 30
0.0
 11
0.2076923077
 21
2.0435897436
 31
0.0
  0
LINE
  5
C9
330
1F
100
AcDbEntity
  8
0
  6
Continuous
 62
     7
370
    25
100
AcDbLine
 10
0.2076923077
 20
2.0435897436
 30
0.0
 11
0.2507211538
 21
2.0435897436
 31
0.0
  0
SPLINE
  5
CA
330
1F
100
AcDbEntity
  8
0
  6
Continuous
 62
     7
370
    25
100
AcDbSpline
210
0.0
220
0.0
230
1.0
 70
     8
 71
     3
 72
    15
 73
    11
 74
     0
 42
0.000000001
 43
0.00000001
 40
0.0
 40
0.0
 40
0.0
 40
0.0
 40
0.1600113821760095
 40
0.3060205251464261
 40
0.4388538946553683
 40
0.5609921737675538
 40
0.6757335017808281
 40
0.7861778170224599
 40
0.8928739439277376
 40
0.9999999999999999
 40
0.9999999999999999
 40
0.9999999999999999
 40
0.9999999999999999
 10
0.250721153846154
 20
2.043589743589743
 30
0.0
 10
0.2467129799029551
 20
2.046238191767069
 30
0.0
 10
0.2390473783795163
 20
2.051303328328146
 30
0.0
 10
0.2289227362494315
 20
2.059761593214884
 30
0.0
 10
0.2204442043408198
 20
2.068332973121784
 30
0.0
 10
0.2137734696008075
 20
2.077242536717547
 30
0.0
 10
0.208732023088413
 20
2.086402932736835
 30
0.0
 10
0.2051895565464376
 20
2.095736916382252
 30
0.0
 10
0.2029927652554777
 20
2.105267312586379
 30
0.0
 10
0.2027071815342453
 20
2.111687365395618
 30
0.0
 10
0.2025641025641027
 20
2.114903846153846
 30
0.0
  0
SPLINE
  5
CB
330
1F
100
AcDbEntity
  8
0
  6
Continuous
 62
     7
370
    25
100
AcDbSpline
210
0.0
220
0.0
230
1.0
 70
     8
 71
     3
 72
    11
 73
     7
 74
     0
 42
0.000000001
 43
0.00000001
 40
0.0
 40
0.0
 40
0.0
 40
0.0
 40
0.2252775478670052
 40
0.4635231951764813
 40
0.7203235553269238
 40
1.0
 40
1.0
 40
1.0
 40
1.0
 10
0.2025641025641027
 20
2.114903846153846
 30
0.0
 10
0.2027001627463791
 20
2.11739828346661
 30
0.0
 10
0.202980115413754
 20
2.122530750347254
 30
0.0
 10
0.2049470668013948
 20
2.130300189182025
 30
0.0
 10
0.2080874122360226
 20
2.138305155114552
 30
0.0
 10
0.2110405805405929
 20
2.143464285086043
 30
0.0
 10
0.2125801282051283
 20
2.146153846153846
 30
0.0
  0
LINE
  5
CC
330
1F
100
AcDbEntity
  8
0
  6
Continuous
 62
     7
370
    25
100
AcDbLine
 10
0.2125801282
 20
2.1461538462
 30
0.0
 11
0.2436698718
 21
2.1264423077
 31
0.0
  0
SPLINE
  5
CD
330
1F
100
AcDbEntity
  8
0
  6
Continuous
 62
     7
370
    25
100
AcDbSpline
210
0.0
220
0.0
230
1.0
 70
     8
 71
     3
 72
    11
 73
     7
 74
     0
 42
0.000000001
 43
0.00000001
 40
0.0
 40
0.0
 40
0.0
 40
0.0
 40
0.2951388013693751
 40
0.5602299448882403
 40
0.7949833567409026
 40
1.0
 40
1.0
 40
1.0
 40
1.0
 10
0.243669871794872
 20
2.126442307692308
 30
0.0
 10
0.2428995556674269
 20
2.124715562418723
 30
0.0
 10
0.2414373481920873
 20
2.12143786933002
 30
0.0
 10
0.2397068327484259
 20
2.116643061756448
 30
0.0
 10
0.2386878709372124
 20
2.112222337558635
 30
0.0
 10
0.2385335032283993
 20
2.109405930888592
 30
0.0
 10
0.2384615384615386
 20
2.108092948717948
 30
0.0
  0
SPLINE
  5
CE
330
1F
100
AcDbEntity
  8
0
  6
Continuous
 62
     7
370
    25
100
AcDbSpline
210
0.0
220
0.0
230
1.0
 70
     8
 71
     3
 72
    19
 73
    15
 74
     0
 42
0.000000001
 43
0.00000001
 40
0.0
 40
0.0
 40
0.0
 40
0.0
 40
0.0937768653224258
 40
0.1912776221140574
 40
0.2946616123056597
 40
0.4097469279640178
 40
0.4713453571275218
 40
0.5358198704789376
 40
0.603222206746116
 40
0.6741986992464232
 40
0.7486032884217834
 40
0.8283376853685313
 40
0.91206762453049
 40
1.0
 40
1.0
 40
1.0
 40
1.0
 10
0.2384615384615386
 20
2.108092948717949
 30
0.0
 10
0.238652039102977
 20
2.105211428586535
 30
0.0
 10
0.2390406051910016
 20
2.099333962786035
 30
0.0
 10
0.242138966949186
 20
2.090733810333169
 30
0.0
 10
0.2470010033587153
 20
2.08231376749268
 30
0.0
 10
0.2525374253456941
 20
2.075691112187837
 30
0.0
 10
0.2578556428456363
 20
2.070545184851299
 30
0.0
 10
0.262510255901399
 20
2.066844364470627
 30
0.0
 10
0.2677777764006798
 20
2.063522823074291
 30
0.0
 10
0.2734546029521841
 20
2.06030083972839
 30
0.0
 10
0.2796832077322614
 20
2.057307373942019
 30
0.0
 10
0.2864737519070823
 20
2.054632272523151
 30
0.0
 10
0.2937701618021834
 20
2.05213053769946
 30
0.0
 10
0.2988435256725183
 20
2.05072167593593
 30
0.0
 10
0.3014423076923078
 20
2.05
 30
0.0
  0
SPLINE
  5
CF
330
1F
100
AcDbEntity
  8
0
  6
Continuous
 62
     7
370
    25
100
AcDbSpline
210
0.0
220
0.0
230
1.0
 70
     8
 71
     3
 72
    15
 73
    11
 74
     0
 42
0.000000001
 43
0.00000001
 40
0.0
 40
0.0
 40
0.0
 40
0.0
 40
0.0708551591251551
 40
0.157725797255715
 40
0.2585976147403186
 40
0.3758886304570596
 40
0.5081644111167619
 40
0.6570319213705533
 40
0.8201760328215124
 40
1.0
 40
1.0
 40
1.0
 40
1.0
 10
0.3014423076923078
 20
2.05
 30
0.0
 10
0.3037595706729284
 20
2.049458220335975
 30
0.0
 10
0.3089178704436473
 20
2.048252201882268
 30
0.0
 10
0.3175324303974936
 20
2.047110899862496
 30
0.0
 10
0.3277037020659414
 20
2.045937827452026
 30
0.0
 10
0.339443501402907
 20
2.045136737108246
 30
0.0
 10
0.3527969564440486
 20
2.044380000445287
 30
0.0
 10
0.3677064603640289
 20
2.043961947924794
 30
0.0
 10
0.3842129921918468
 20
2.043603044552504
 30
0.0
 10
0.3957262333510904
 20
2.043594318701224
 30
0.0
 10
0.4017628205128206
 20
2.043589743589743
 30
0.0
  0
LINE
  5
D0
330
1F
100
AcDbEntity
  8
0
  6
Continuous
 62
     7
370
    25
100
AcDbLine
 10
0.4017628205
 20
2.0435897436
 30
0.0
 11
0.5
 21
2.0435897436
 31
0.0
  0
LINE
  5
D1
330
1F
100
AcDbEntity
  8
0
  6
Continuous
 62
     7
370
    25
100
AcDbLine
 10
0.5
 20
2.0435897436
 30
0.0
 11
0.5
 21
2.0076923077
 31
0.0
  0
LINE
  5
D2
330
1F
100
AcDbEntity
  8
0
  6
Continuous
 62
     7
370
    25
100
AcDbLine
 10
0.5
 20
1.2897435897
 30
0.0
 11
0.1
 21
1.2897435897
 31
0.0
  0
LINE
  5
D3
330
1F
100
AcDbEntity
  8
0
  6
Continuous
 62
     7
370
    25
100
AcDbLine
 10
0.1
 20
1.2897435897
 30
0.0
 11
0.1
 21
1.3256410256
 31
0.0
  0
LINE
  5
D4
330
1F
100
AcDbEntity
  8
0
  6
Continuous
 62
     7
370
    25
100
AcDbLine
 10
0.1
 20
1.3256410256
 30
0.0
 11
0.2641025641
 21
1.3256410256
 31
0.0
  0
LINE
  5
D5
330
1F
100
AcDbEntity
  8
0
  6
Continuous
 62
     7
370
    25
100
AcDbLine
 10
0.2641025641
 20
1.3256410256
 30
0.0
 11
0.2641025641
 21
1.5307692308
 31
0.0
  0
LINE
  5
D6
330
1F
100
AcDbEntity
  8
0
  6
Continuous
 62
     7
370
    25
100
AcDbLine
 10
0.2641025641
 20
1.5307692308
 30
0.0
 11
0.1
 21
1.5307692308
 31
0.0
  0
LINE
  5
D7
330
1F
100
AcDbEntity
  8
0
  6
Continuous
 62
     7
370
    25
100
AcDbLine
 10
0.1
 20
1.5307692308
 30
0.0
 11
0.1
 21
1.5666666667
 31
0.0
  0
LINE
  5
D8
330
1F
100
AcDbEntity
  8
0
  6
Continuous
 62
     7
370
    25
100
AcDbLine
 10
0.1
 20
1.5666666667
 30
0.0
 11
0.5
 21
1.5666666667
 31
0.0
  0
LINE
  5
D9
330
1F
100
AcDbEntity
  8
0
  6
Continuous
 62
     7
370
    25
100
AcDbLine
 10
0.5
 20
1.5666666667
 30
0.0
 11
0.5
 21
1.5307692308
 31
0.0
  0
LINE
  5
DA
330
1F
100
AcDbEntity
  8
0
  6
Continuous
 62
     7
370
    25
100
AcDbLine
 10
0.5
 20
1.5307692308
 30
0.0
 11
0.3051282051
 21
1.5307692308
 31
0.0
  0
LINE
  5
DB
330
1F
100
AcDbEntity
  8
0
  6
Continuous
 62
     7
370
    25
100
AcDbLine
 10
0.3051282051
 20
1.5307692308
 30
0.0
 11
0.3051282051
 21
1.3256410256
 31
0.0
  0
LINE
  5
DC
330
1F
100
AcDbEntity
  8
0
  6
Continuous
 62
     7
370
    25
100
AcDbLine
 10
0.3051282051
 20
1.3256410256
 30
0.0
 11
0.5
 21
1.3256410256
 31
0.0
  0
LINE
  5
DD
330
1F
100
AcDbEntity
  8
0
  6
Continuous
 62
     7
370
    25
100
AcDbLine
 10
0.5
 20
1.3256410256
 30
0.0
 11
0.5
 21
1.2897435897
 31
0.0
  0
LINE
  5
DE
330
1F
100
AcDbEntity
  8
0
  6
Continuous
 62
     7
370
    25
100
AcDbLine
 10
0.2076923077
 20
0.6333333333
 30
0.0
 11
0.2076923077
 21
0.6692307692
 31
0.0
  0
LINE
  5
DF
330
1F
100
AcDbEntity
  8
0
  6
Continuous
 62
     7
370
    25
100
AcDbLine
 10
0.2076923077
 20
0.6692307692
 30
0.0
 11
0.5
 21
0.6692307692
 31
0.0
  0
LINE
  5
E0
330
1F
100
AcDbEntity
  8
0
  6
Continuous
 62
     7
370
    25
100
AcDbLine
 10
0.5
 20
0.6692307692
 30
0.0
 11
0.5
 21
0.6333333333
 31
0.0
  0
LINE
  5
E1
330
1F
100
AcDbEntity
  8
0
  6
Continuous
 62
     7
370
    25
100
AcDbLine
 10
0.5
 20
0.6333333333
 30
0.0
 11
0.4494391026
 21
0.6333333333
 31
0.0
  0
SPLINE
  5
E2
330
1F
100
AcDbEntity
  8
0
  6
Continuous
 62
     7
370
    25
100
AcDbSpline
210
0.0
220
0.0
230
1.0
 70
     8
 71
     3
 72
    15
 73
    11
 74
     0
 42
0.000000001
 43
0.00000001
 40
0.0
 40
0.0
 40
0.0
 40
0.0
 40
0.1342907068119867
 40
0.262459729089614
 40
0.3863049733269985
 40
0.5071927513398152
 40
0.6273215273298086
 40
0.7481593295869928
 40
0.8723774684020381
 40
1.0
 40
1.0
 40
1.0
 40
1.0
 10
0.4494391025641027
 20
0.6333333333333332
 30
0.0
 10
0.4540075162144159
 20
0.6292791521656232
 30
0.0
 10
0.4629360909274016
 20
0.6213556009667519
 30
0.0
 10
0.4747076091816098
 20
0.6082464791320422
 30
0.0
 10
0.484239308395536
 20
0.5941780709933278
 30
0.0
 10
0.4920493809896026
 20
0.5795033942865288
 30
0.0
 10
0.4978923389767134
 20
0.5640787068047755
 30
0.0
 10
0.5020527997006173
 20
0.5479846285168332
 30
0.0
 10
0.5047258246421351
 20
0.5312057834437517
 30
0.0
 10
0.5049928749670045
 20
0.5197484266200543
 30
0.0
 10
0.5051282051282053
 20
0.5139423076923075
 30
0.0
  0
SPLINE
  5
E3
330
1F
100
AcDbEntity
  8
0
  6
Continuous
 62
     7
370
    25
100
AcDbSpline
210
0.0
220
0.0
230
1.0
 70
     8
 71
     3
 72
    23
 73
    19
 74
     0
 42
0.000000001
 43
0.00000001
 40
0.0
 40
0.0
 40
0.0
 40
0.0
 40
0.0646199913407677
 40
0.1274334841444693
 40
0.1890041265579399
 40
0.249930070686047
 40
0.3106684537406719
 40
0.3723289611368242
 40
0.4349391099970084
 40
0.4995755441940339
 40
0.5641912077719238
 40
0.6267352169294786
 40
0.6881093335614014
 40
0.7492936065367511
 40
0.8103305278109454
 40
0.8719011702244159
 40
0.9350459146845316
 40
1.0
 40
1.0
 40
1.0
 40
1.0
 10
0.5051282051282053
 20
0.5139423076923075
 30
0.0
 10
0.5049880482974451
 20
0.508780255825732
 30
0.0
 10
0.5047116528213728
 20
0.49860046098139
 30
0.0
 10
0.5025673895507121
 20
0.4836257093083708
 30
0.0
 10
0.499123889934475
 20
0.4692151665137812
 30
0.0
 10
0.4943352168497019
 20
0.4553552153524338
 30
0.0
 10
0.4879831229481948
 20
0.4421355415885363
 30
0.0
 10
0.4803784088863182
 20
0.4294429591117007
 30
0.0
 10
0.4713223140199588
 20
0.4173432228809447
 30
0.0
 10
0.4609693964939142
 20
0.4060207612850761
 30
0.0
 10
0.4497242551015015
 20
0.3955942469564012
 30
0.0
 10
0.4377304783157726
 20
0.3864443872281517
 30
0.0
 10
0.4250399292994674
 20
0.3788154638161807
 30
0.0
 10
0.4118132831407578
 20
0.372436026021064
 30
0.0
 10
0.3979487209082964
 20
0.36752215808498
 30
0.0
 10
0.3834941874294647
 20
0.3640965998840747
 30
0.0
 10
0.368466773310625
 20
0.3619548345468563
 30
0.0
 10
0.3582336849568411
 20
0.3616785533257187
 30
0.0
 10
0.3530448717948719
 20
0.3615384615384614
 30
0.0
  0
SPLINE
  5
E4
330
1F
100
AcDbEntity
  8
0
  6
Continuous
 62
     7
370
    25
100
AcDbSpline
210
0.0
220
0.0
230
1.0
 70
     8
 71
     3
 72
    23
 73
    19
 74
     0
 42
0.000000001
 43
0.00000001
 40
0.0
 40
0.0
 40
0.0
 40
0.0
 40
0.0637745323056323
 40
0.1260788099895058
 40
0.1869040927472073
 40
0.2475739349176197
 40
0.3080033561644468
 40
0.3691318984609778
 40
0.4320332277442044
 40
0.4967907944370912
 40
0.5616108232295653
 40
0.6249138657484624
 40
0.6867263492419249
 40
0.7480788332577711
 40
0.8095822911398954
 40
0.8716307425688272
 40
0.9348858208285536
 40
1.0
 40
1.0
 40
1.0
 40
1.0
 10
0.3530448717948719
 20
0.3615384615384614
 30
0.0
 10
0.3479633056726514
 20
0.3616816582681623
 30
0.0
 10
0.3379173235790133
 20
0.3619647504778953
 30
0.0
 10
0.3231426152377724
 20
0.3640736898882118
 30
0.0
 10
0.3089119568682591
 20
0.3676200908778322
 30
0.0
 10
0.2952711633569722
 20
0.3725969877539335
 30
0.0
 10
0.2822037290542765
 20
0.3789789254640046
 30
0.0
 10
0.2697004119097121
 20
0.3867421354092449
 30
0.0
 10
0.2577267664854793
 20
0.395887178231969
 30
0.0
 10
0.2465643405633337
 20
0.406430310462413
 30
0.0
 10
0.2362534132182615
 20
0.417851427052429
 30
0.0
 10
0.2272923794534084
 20
0.4300695677284712
 30
0.0
 10
0.2195533110172916
 20
0.4427807998794233
 30
0.0
 10
0.2134214851537088
 20
0.4561822867962674
 30
0.0
 10
0.208460444634342
 20
0.4700756702035807
 30
0.0
 10
0.2050281054228545
 20
0.4845846354318359
 30
0.0
 10
0.2030055544239965
 20
0.4996488158519012
 30
0.0
 10
0.2027126670924439
 20
0.5098763006592862
 30
0.0
 10
0.2025641025641027
 20
0.5150641025641024
 30
0.0
  0
SPLINE
  5
E5
330
1F
100
AcDbEntity
  8
0
  6
Continuous
 62
     7
370
    25
100
AcDbSpline
210
0.0
220
0.0
230
1.0
 70
     8
 71
     3
 72
    15
 73
    11
 74
     0
 42
0.000000001
 43
0.00000001
 40
0.0
 40
0.0
 40
0.0
 40
0.0
 40
0.129875997220445
 40
0.2546807008782868
 40
0.3760546726568538
 40
0.495308092537053
 40
0.6151502400677075
 40
0.7381208964567345
 40
0.8656331872619907
 40
1.0
 40
1.0
 40
1.0
 40
1.0
 10
0.2025641025641027
 20
0.5150641025641024
 30
0.0
 10
0.2027286000558422
 20
0.5210296877502456
 30
0.0
 10
0.2030511718734648
 20
0.5327279187465187
 30
0.0
 10
0.2057300386995693
 20
0.5498412887521609
 30
0.0
 10
0.2102695865185079
 20
0.5660234030252168
 30
0.0
 10
0.2164019610482583
 20
0.5814460502956331
 30
0.0
 10
0.2247215391413108
 20
0.595896941811017
 30
0.0
 10
0.2349227038967527
 20
0.6095559697335927
 30
0.0
 10
0.2474272074759606
 20
0.622132537250188
 30
0.0
 10
0.2569122119060723
 20
0.6295351483982176
 30
0.0
 10
0.2617788461538463
 20
0.6333333333333332
 30
0.0
  0
LINE
  5
E6
330
1F
100
AcDbEntity
  8
0
  6
Continuous
 62
     7
370
    25
100
AcDbLine
 10
0.2617788462
 20
0.6333333333
 30
0.0
 11
0.2076923077
 21
0.6333333333
 31
0.0
  0
LINE
  5
E7
330
1F
100
AcDbEntity
  8
0
  6
Continuous
 62
     7
370
    25
100
AcDbLine
 10
0.5
 20
-0.3461538462
 30
0.0
 11
0.1
 21
-0.3461538462
 31
0.0
  0
LINE
  5
E8
330
1F
100
AcDbEntity
  8
0
  6
Continuous
 62
     7
370
    25
100
AcDbLine
 10
0.1
 20
-0.3461538462
 30
0.0
 11
0.1
 21
-0.2661057692
 31
0.0
  0
SPLINE
  5
E9
330
1F
100
AcDbEntity
  8
0
  6
Continuous
 62
     7
370
    25
100
AcDbSpline
210
0.0
220
0.0
230
1.0
 70
     8
 71
     3
 72
    15
 73
    11
 74
     0
 42
0.000000001
 43
0.00000001
 40
0.0
 40
0.0
 40
0.0
 40
0.0
 40
0.1762577548178
 40
0.3384344138804748
 40
0.4848220507878362
 40
0.6171575782663318
 40
0.7346983606124764
 40
0.8373851838323602
 40
0.9263724209295837
 40
1.0
 40
1.0
 40
1.0
 40
1.0
 10
0.1000000000000001
 20
-0.2661057692307694
 30
0.0
 10
0.1000177812557755
 20
-0.2607639259720747
 30
0.0
 10
0.1000519232365504
 20
-0.2505069951824674
 30
0.0
 10
0.1002422961403382
 20
-0.2358129071413659
 30
0.0
 10
0.100787936792708
 20
-0.2224612389127726
 30
0.0
 10
0.1012574891900929
 20
-0.2104589715622424
 30
0.0
 10
0.1021137110555953
 20
-0.1998063252792363
 30
0.0
 10
0.1029320707264301
 20
-0.190470634908042
 30
0.0
 10
0.1040033462440243
 20
-0.1824948980507606
 30
0.0
 10
0.1049982517258107
 20
-0.1776668007590376
 30
0.0
 10
0.1054487179487181
 20
-0.1754807692307694
 30
0.0
  0
SPLINE
  5
EA
330
1F
100
AcDbEntity
  8
0
  6
Continuous
 62
     7
370
    25
100
AcDbSpline
210
0.0
220
0.0
230
1.0
 70
     8
 71
     3
 72
    23
 73
    19
 74
     0
 42
0.000000001
 43
0.00000001
 40
0.0
 40
0.0
 40
0.0
 40
0.0
 40
0.0642111524816902
 40
0.1270525067799881
 40
0.188727814001975
 40
0.24911002764554
 40
0.3094251126261686
 40
0.3697939065087846
 40
0.4306119826314385
 40
0.4918839808155462
 40
0.5540512746923667
 40
0.61518029321218
 40
0.6762827973006794
 40
0.7384500911774997
 40
0.8007761845394454
 40
0.8651964574921843
 40
0.9316473815698815
 40
0.9999999999999999
 40
0.9999999999999999
 40
0.9999999999999999
 40
0.9999999999999999
 10
0.1054487179487181
 20
-0.1754807692307694
 30
0.0
 10
0.1061717787948415
 20
-0.1725543001762682
 30
0.0
 10
0.1076024756364942
 20
-0.1667637915960888
 30
0.0
 10
0.110626401766786
 20
-0.1584266081802087
 30
0.0
 10
0.1141258916604796
 20
-0.150482235804391
 30
0.0
 10
0.1182356511269468
 20
-0.1429629546877433
 30
0.0
 10
0.1229884656443556
 20
-0.1359090846814212
 30
0.0
 10
0.1282938243220949
 20
-0.129237960333815
 30
0.0
 10
0.1341410115172103
 20
-0.1229712364036042
 30
0.0
 10
0.1405827376892288
 20
-0.1171906986283807
 30
0.0
 10
0.1474817525031172
 20
-0.1119399407064482
 30
0.0
 10
0.1548191213367738
 20
-0.1073342172586901
 30
0.0
 10
0.1625645057327516
 20
-0.1034424656225617
 30
0.0
 10
0.1707299696838014
 20
-0.1003884395107728
 30
0.0
 10
0.1792253133291916
 20
-0.0978257760206186
 30
0.0
 10
0.1881372444460831
 20
-0.096103981855909
 30
0.0
 10
0.1974360122420444
 20
-0.0950314723181337
 30
0.0
 10
0.203763021280871
 20
-0.0949255189208767
 30
0.0
 10
0.206971153846154
 20
-0.094871794871795
 30
0.0
  0
SPLINE
  5
EB
330
1F
100
AcDbEntity
  8
0
  6
Continuous
 62
     7
370
    25
100
AcDbSpline
210
0.0
220
0.0
230
1.0
 70
     8
 71
     3
 72
    23
 73
    19
 74
     0
 42
0.000000001
 43
0.00000001
 40
0.0
 40
0.0
 40
0.0
 40
0.0
 40
0.0787802355821392
 40
0.1537206442085844
 40
0.226713530308781
 40
0.2991911660659365
 40
0.3711899968376685
 40
0.4430064143534094
 40
0.5166891732948805
 40
0.5932172166234123
 40
0.6338729178078458
 40
0.6769891422899793
 40
0.7228995063258272
 40
0.7719586105061444
 40
0.8242113233348359
 40
0.8793786506272023
 40
0.9379481193304183
 40
1.0
 40
1.0
 40
1.0
 40
1.0
 10
0.206971153846154
 20
-0.094871794871795
 30
0.0
 10
0.2123008800874046
 20
-0.095039680369909
 30
0.0
 10
0.2227005564174687
 20
-0.0953672684601536
 30
0.0
 10
0.2377932285784717
 20
-0.0984215660235846
 30
0.0
 10
0.251872007394522
 20
-0.1034245968497282
 30
0.0
 10
0.2649191660134325
 20
-0.110318687022221
 30
0.0
 10
0.2766803826260189
 20
-0.1190980556751907
 30
0.0
 10
0.2870107203750339
 20
-0.129649460372717
 30
0.0
 10
0.2956552818139841
 20
-0.1419787874001082
 30
0.0
 10
0.3016498880655844
 20
-0.1534564235074432
 30
0.0
 10
0.3054890776226993
 20
-0.1635951891870588
 30
0.0
 10
0.3081903757780182
 20
-0.1719418535056901
 30
0.0
 10
0.31027745752397
 20
-0.1810466509337842
 30
0.0
 10
0.3121471868691799
 20
-0.1908223463173134
 30
0.0
 10
0.3135588090876394
 20
-0.2013096212306965
 30
0.0
 10
0.3145927055984228
 20
-0.2124833400180342
 30
0.0
 10
0.3152388825925124
 20
-0.2243514716329014
 30
0.0
 10
0.315335111722677
 20
-0.2325045081304035
 30
0.0
 10
0.3153846153846155
 20
-0.2366987179487181
 30
0.0
  0
LINE
  5
EC
330
1F
100
AcDbEntity
  8
0
  6
Continuous
 62
     7
370
    25
100
AcDbLine
 10
0.3153846154
 20
-0.2366987179
 30
0.0
 11
0.5
 21
-0.0897435897
 31
0.0
  0
LINE
  5
ED
330
1F
100
AcDbEntity
  8
0
  6
Continuous
 62
     7
370
    25
100
AcDbLine
 10
0.5
 20
-0.0897435897
 30
0.0
 11
0.5
 21
-0.1341346154
 31
0.0
  0
LINE
  5
EE
330
1F
100
AcDbEntity
  8
0
  6
Continuous
 62
     7
370
    25
100
AcDbLine
 10
0.5
 20
-0.1341346154
 30
0.0
 11
0.3153846154
 21
-0.2810897436
 31
0.0
  0
LINE
  5
EF
330
1F
100
AcDbEntity
  8
0
  6
Continuous
 62
     7
370
    25
100
AcDbLine
 10
0.3153846154
 20
-0.2810897436
 30
0.0
 11
0.3153846154
 21
-0.3102564103
 31
0.0
  0
LINE
  5
F0
330
1F
100
AcDbEntity
  8
0
  6
Continuous
 62
     7
370
    25
100
AcDbLine
 10
0.3153846154
 20
-0.3102564103
 30
0.0
 11
0.5
 21
-0.3102564103
 31
0.0
  0
LINE
  5
F1
330
1F
100
AcDbEntity
  8
0
  6
Continuous
 62
     7
370
    25
100
AcDbLine
 10
0.5
 20
-0.3102564103
 30
0.0
 11
0.5
 21
-0.3461538462
 31
0.0
  0
SPLINE
  5
F2
330
1F
100
AcDbEntity
  8
0
  6
Continuous
 62
     7
370
    25
100
AcDbSpline
210
0.0
220
0.0
230
1.0
 70
     8
 71
     3
 72
    19
 73
    15
 74
     0
 42
0.000000001
 43
0.00000001
 40
0.0
 40
0.0
 40
0.0
 40
0.0
 40
0.0825973897730137
 40
0.1638890659419892
 40
0.2456739874883928
 40
0.3279192166898939
 40
0.4088085026734916
 40
0.4856888350555673
 40
0.5591133624229466
 40
0.6302171951723627
 40
0.7052594052730747
 40
0.7915699377379802
 40
0.8897895971552955
 40
1.0
 40
1.0
 40
1.0
 40
1.0
 10
0.4692307692307694
 20
-1.147195512820512
 30
0.0
 10
0.4691618366390793
 20
-1.143612368189397
 30
0.0
 10
0.469025061153848
 20
-1.136502721887714
 30
0.0
 10
0.4676760280541677
 20
-1.125917498239322
 30
0.0
 10
0.4655379276830622
 20
-1.115485404492211
 30
0.0
 10
0.4624584128509442
 20
-1.105310028495467
 30
0.0
 10
0.4588523425125868
 20
-1.095539663619949
 30
0.0
 10
0.4546080210058274
 20
-1.086441787237339
 30
0.0
 10
0.4497690140778043
 20
-1.078136677878322
 30
0.0
 10
0.4442700888147038
 20
-1.070344182419215
 30
0.0
 10
0.437521463310264
 20
-1.062826764486397
 30
0.0
 10
0.4291807520562116
 20
-1.055251391970706
 30
0.0
 10
0.4191533544705174
 20
-1.047307880595249
 30
0.0
 10
0.4116564199780007
 20
-1.042255076438037
 30
0.0
 10
0.4076923076923079
 20
-1.039583333333333
 30
0.0
  0
LINE
  5
F3
330
1F
100
AcDbEntity
  8
0
  6
Continuous
 62
     7
370
    25
100
AcDbLine
 10
0.4076923077
 20
-1.0395833333
 30
0.0
 11
0.4244391026
 21
-1.0076923077
 31
0.0
  0
SPLINE
  5
F4
330
1F
100
AcDbEntity
  8
0
  6
Continuous
 62
     7
370
    25
100
AcDbSpline
210
0.0
220
0.0
230
1.0
 70
     8
 71
     3
 72
    19
 73
    15
 74
     0
 42
0.000000001
 43
0.00000001
 40
0.0
 40
0.0
 40
0.0
 40
0.0
 40
0.0933843035104751
 40
0.1816888737727268
 40
0.265545890909673
 40
0.3460389003617323
 40
0.4245971804377605
 40
0.5019124634157561
 40
0.5800134529749204
 40
0.6582914396427479
 40
0.7385326591090108
 40
0.8218665907733591
 40
0.9087866811288314
 40
1.0
 40
1.0
 40
1.0
 40
1.0
 10
0.4244391025641027
 20
-1.007692307692307
 30
0.0
 10
0.4289458432723666
 20
-1.010234966096423
 30
0.0
 10
0.4377141759887777
 20
-1.015181972439742
 30
0.0
 10
0.4497614867102337
 20
-1.023654763589047
 30
0.0
 10
0.460534919250812
 20
-1.032618016982565
 30
0.0
 10
0.4698619599775348
 20
-1.042344448740675
 30
0.0
 10
0.4780988950935058
 20
-1.052540960358742
 30
0.0
 10
0.4852037122560692
 20
-1.063401215297168
 30
0.0
 10
0.491304607991826
 20
-1.074836567938827
 30
0.0
 10
0.496303722775328
 20
-1.086972972975546
 30
0.0
 10
0.5002338117847134
 20
-1.099795892218102
 30
0.0
 10
0.5031362093426648
 20
-1.113379733292023
 30
0.0
 10
0.5048193241380484
 20
-1.127788634092131
 30
0.0
 10
0.5050236036710152
 20
-1.137655829841048
 30
0.0
 10
0.5051282051282053
 20
-1.142708333333333
 30
0.0
  0
SPLINE
  5
F5
330
1F
100
AcDbEntity
  8
0
  6
Continuous
 62
     7
370
    25
100
AcDbSpline
210
0.0
220
0.0
230
1.0
 70
     8
 71
     3
 72
    23
 73
    19
 74
     0
 42
0.000000001
 43
0.00000001
 40
0.0
 40
0.0
 40
0.0
 40
0.0
 40
0.0715779287389554
 40
0.1396278027222126
 40
0.2047946117667373
 40
0.2681322327359259
 40
0.3298103881951568
 40
0.3912974127986466
 40
0.4534288973736154
 40
0.5165464298068841
 40
0.5796253677956427
 40
0.6411123923991329
 40
0.7012869047874496
 40
0.7604890340066117
 40
0.8199335555762227
 40
0.8789208085708153
 40
0.9389834436435341
 40
1.0
 40
1.0
 40
1.0
 40
1.0
 10
0.5051282051282053
 20
-1.142708333333333
 30
0.0
 10
0.5049970993724483
 20
-1.148324559327976
 30
0.0
 10
0.5047413500245266
 20
-1.159280189213317
 30
0.0
 10
0.502536496999137
 20
-1.175227589013963
 30
0.0
 10
0.498939655816823
 20
-1.190242379221389
 30
0.0
 10
0.4939150231778147
 20
-1.20432371841428
 30
0.0
 10
0.487351897987964
 20
-1.217437112685593
 30
0.0
 10
0.4793565376887343
 20
-1.229608661320103
 30
0.0
 10
0.4699699600109959
 20
-1.240902236670268
 30
0.0
 10
0.4591110680773994
 20
-1.250962468083841
 30
0.0
 10
0.4474897899617667
 20
-1.26001771789488
 30
0.0
 10
0.4353822918088395
 20
-1.26801355562485
 30
0.0
 10
0.4228305031575421
 20
-1.274667238918782
 30
0.0
 10
0.4099091044501827
 20
-1.280162322297317
 30
0.0
 10
0.3966474582446787
 20
-1.284496901778394
 30
0.0
 10
0.3829696135321934
 20
-1.287577120779458
 30
0.0
 10
0.368929806941978
 20
-1.289336337753068
 30
0.0
 10
0.3594331659781247
 20
-1.289607127940757
 30
0.0
 10
0.3546474358974361
 20
-1.28974358974359
 30
0.0
  0
SPLINE
  5
F6
330
1F
100
AcDbEntity
  8
0
  6
Continuous
 62
     7
370
    25
100
AcDbSpline
210
0.0
220
0.0
230
1.0
 70
     8
 71
     3
 72
    15
 73
    11
 74
     0
 42
0.000000001
 43
0.00000001
 40
0.0
 40
0.0
 40
0.0
 40
0.0
 40
0.1280448079611204
 40
0.2537679000244898
 40
0.3774284265813018
 40
0.5005508414825328
 40
0.6232958832424763
 40
0.7465783319335074
 40
0.8723475406047169
 40
1.0
 40
1.0
 40
1.0
 40
1.0
 10
0.3546474358974361
 20
-1.289743589743589
 30
0.0
 10
0.3501565981354274
 20
-1.289622545020093
 30
0.0
 10
0.3412563507426422
 20
-1.289382650363059
 30
0.0
 10
0.328083145653467
 20
-1.287870560375209
 30
0.0
 10
0.3152798939359174
 20
-1.28519075545315
 30
0.0
 10
0.3028359570251893
 20
-1.281513461287534
 30
0.0
 10
0.2907721702841511
 20
-1.276764747438023
 30
0.0
 10
0.2790811915843613
 20
-1.270955350956168
 30
0.0
 10
0.2677754613145946
 20
-1.264076222066021
 30
0.0
 10
0.2606436746051299
 20
-1.258765059350996
 30
0.0
 10
0.2570512820512822
 20
-1.256089743589743
 30
0.0
  0
SPLINE
  5
F7
330
1F
100
AcDbEntity
  8
0
  6
Continuous
 62
     7
370
    25
100
AcDbSpline
210
0.0
220
0.0
230
1.0
 70
     8
 71
     3
 72
    15
 73
    11
 74
     0
 42
0.000000001
 43
0.00000001
 40
0.0
 40
0.0
 40
0.0
 40
0.0
 40
0.1288514141696354
 40
0.2532072518977739
 40
0.3746340222150045
 40
0.4953459460202965
 40
0.6163458534169406
 40
0.739634471565341
 40
0.8668256185408373
 40
1.0
 40
1.0
 40
1.0
 40
1.0
 10
0.2570512820512822
 20
-1.256089743589743
 30
0.0
 10
0.252716235310453
 20
-1.252472255675081
 30
0.0
 10
0.2441973899476178
 20
-1.245363492612233
 30
0.0
 10
0.2331059815395352
 20
-1.233215291414034
 30
0.0
 10
0.223618229788444
 20
-1.220238173704718
 30
0.0
 10
0.2158781031529333
 20
-1.206301605224306
 30
0.0
 10
0.2099247219994892
 20
-1.191429061353557
 30
0.0
 10
0.2056901607187801
 20
-1.175697253523817
 30
0.0
 10
0.2030552232692425
 20
-1.159062699447845
 30
0.0
 10
0.2027302984046883
 20
-1.147659530645963
 30
0.0
 10
0.2025641025641027
 20
-1.141826923076923
 30
0.0
  0
SPLINE
  5
F8
330
1F
100
AcDbEntity
  8
0
  6
Continuous
 62
     7
370
    25
100
AcDbSpline
210
0.0
220
0.0
230
1.0
 70
     8
 71
     3
 72
    15
 73
    11
 74
     0
 42
0.000000001
 43
0.00000001
 40
0.0
 40
0.0
 40
0.0
 40
0.0
 40
0.1320486370255619
 40
0.2590493247643342
 40
0.3819041254817491
 40
0.5025162511634204
 40
0.622728182736615
 40
0.7447263881325089
 40
0.8701006615077178
 40
1.0
 40
1.0
 40
1.0
 40
1.0
 10
0.2025641025641027
 20
-1.141826923076923
 30
0.0
 10
0.2027180759636037
 20
-1.135832566382393
 30
0.0
 10
0.2030201366744967
 20
-1.124073004988255
 30
0.0
 10
0.2058455254364559
 20
-1.106931346587175
 30
0.0
 10
0.2102716666727151
 20
-1.09067970015622
 30
0.0
 10
0.2167203443256198
 20
-1.075452182259273
 30
0.0
 10
0.2247139207433446
 20
-1.061014159234422
 30
0.0
 10
0.2348174270521241
 20
-1.047697920598902
 30
0.0
 10
0.2465119352514183
 20
-1.035137926915583
 30
0.0
 10
0.2555148845546772
 20
-1.027834854366867
 30
0.0
 10
0.260096153846154
 20
-1.024118589743589
 30
0.0
  0
SPLINE
  5
F9
330
1F
100
AcDbEntity
  8
0
  6
Continuous
 62
     7
370
    25
100
AcDbSpline
210
0.0
220
0.0
230
1.0
 70
     8
 71
     3
 72
    15
 73
    11
 74
     0
 42
0.000000001
 43
0.00000001
 40
0.0
 40
0.0
 40
0.0
 40
0.0
 40
0.118521840013261
 40
0.2362547631617464
 40
0.356174433990931
 40
0.477249654898558
 40
0.6015398708217022
 40
0.7296183821680426
 40
0.8621582661414389
 40
1.0
 40
1.0
 40
1.0
 40
1.0
 10
0.260096153846154
 20
-1.024118589743589
 30
0.0
 10
0.2635479917188727
 20
-1.021589796793591
 30
0.0
 10
0.2704286909975938
 20
-1.016549043296849
 30
0.0
 10
0.2816482518091004
 20
-1.01023508900712
 30
0.0
 10
0.293386605449118
 20
-1.004754243866128
 30
0.0
 10
0.305833496544775
 20
-1.000373334035869
 30
0.0
 10
0.3188414485645387
 20
-0.9968259624705496
 30
0.0
 10
0.3325034536747455
 20
-0.9942594689002422
 30
0.0
 10
0.3468154435445577
 20
-0.9927543696337466
 30
0.0
 10
0.3565670498847524
 20
-0.9924585185082111
 30
0.0
 10
0.3615384615384616
 20
-0.9923076923076919
 30
0.0
  0
LINE
  5
FA
330
1F
100
AcDbEntity
  8
0
  6
Continuous
 62
     7
370
    25
100
AcDbLine
 10
0.3615384615
 20
-0.9923076923
 30
0.0
 11
0.3615384615
 21
-1.2538461538
 31
0.0
  0
SPLINE
  5
FB
330
1F
100
AcDbEntity
  8
0
  6
Continuous
 62
     7
370
    25
100
AcDbSpline
210
0.0
220
0.0
230
1.0
 70
     8
 71
     3
 72
    23
 73
    19
 74
     0
 42
0.000000001
 43
0.00000001
 40
0.0
 40
0.0
 40
0.0
 40
0.0
 40
0.0683846151037683
 40
0.1344755875434508
 40
0.1983910577839564
 40
0.2607534774484861
 40
0.321829222807649
 40
0.3830372384795241
 40
0.4446531231064261
 40
0.5073980112040045
 40
0.5698252379730244
 40
0.6307776406313134
 40
0.6909286865237169
 40
0.7509451326917355
 40
0.8110494767293275
 40
0.8723308525469934
 40
0.9350040935894054
 40
0.9999999999999999
 40
0.9999999999999999
 40
0.9999999999999999
 40
0.9999999999999999
 10
0.3615384615384616
 20
-1.253846153846154
 30
0.0
 10
0.3653899431667033
 20
-1.253670198825679
 30
0.0
 10
0.3729637264523837
 20
-1.253324190374456
 30
0.0
 10
0.3840461016618092
 20
-1.251711031155435
 30
0.0
 10
0.3946030550519375
 20
-1.249168314152665
 30
0.0
 10
0.4045554027060487
 20
-1.24559470699398
 30
0.0
 10
0.4140331315649384
 20
-1.241267067536278
 30
0.0
 10
0.4229659357899248
 20
-1.235965842760743
 30
0.0
 10
0.4313131277956272
 20
-1.229641322309028
 30
0.0
 10
0.4391493720919852
 20
-1.2225869566651
 30
0.0
 10
0.4461277447968653
 20
-1.214734717198173
 30
0.0
 10
0.4523736620807822
 20
-1.206473831801466
 30
0.0
 10
0.4576085874212809
 20
-1.197685995802702
 30
0.0
 10
0.4618577176788179
 20
-1.18844050054625
 30
0.0
 10
0.4651841537998582
 20
-1.178752296529773
 30
0.0
 10
0.4674547618779066
 20
-1.168618331373687
 30
0.0
 10
0.4689755740921767
 20
-1.158058546647431
 30
0.0
 10
0.4691446786865228
 20
-1.150860177043685
 30
0.0
 10
0.4692307692307693
 20
-1.147195512820512
 30
0.0
  0
LINE
  5
FC
330
1F
100
AcDbEntity
  8
0
  6
Continuous
 62
     7
370
    25
100
AcDbLine
 10
0.2076923077
 20
-1.7564102564
 30
0.0
 11
0.2076923077
 21
-1.7205128205
 31
0.0
  0
LINE
  5
FD
330
1F
100
AcDbEntity
  8
0
  6
Continuous
 62
     7
370
    25
100
AcDbLine
 10
0.2076923077
 20
-1.7205128205
 30
0.0
 11
0.5
 21
-1.7205128205
 31
0.0
  0
LINE
  5
FE
330
1F
100
AcDbEntity
  8
0
  6
Continuous
 62
     7
370
    25
100
AcDbLine
 10
0.5
 20
-1.7205128205
 30
0.0
 11
0.5
 21
-1.7564102564
 31
0.0
  0
LINE
  5
FF
330
1F
100
AcDbEntity
  8
0
  6
Continuous
 62
     7
370
    25
100
AcDbLine
 10
0.5
 20
-1.7564102564
 30
0.0
 11
0.4494391026
 21
-1.7564102564
 31
0.0
  0
SPLINE
  5
100
330
1F
100
AcDbEntity
  8
0
  6
Continuous
 62
     7
370
    25
100
AcDbSpline
210
0.0
220
0.0
230
1.0
 70
     8
 71
     3
 72
    15
 73
    11
 74
     0
 42
0.000000001
 43
0.00000001
 40
0.0
 40
0.0
 40
0.0
 40
0.0
 40
0.1342907068119874
 40
0.2624597290896146
 40
0.3863049733269975
 40
0.507192751339816
 40
0.627321527329808
 40
0.7481593295869923
 40
0.8723774684020374
 40
0.9999999999999999
 40
0.9999999999999999
 40
0.9999999999999999
 40
0.9999999999999999
 10
0.4494391025641027
 20
-1.756410256410256
 30
0.0
 10
0.4540075162144158
 20
-1.760464437577966
 30
0.0
 10
0.4629360909274016
 20
-1.768387988776837
 30
0.0
 10
0.4747076091816097
 20
-1.781497110611547
 30
0.0
 10
0.4842393083955359
 20
-1.795565518750261
 30
0.0
 10
0.4920493809896028
 20
-1.810240195457061
 30
0.0
 10
0.4978923389767134
 20
-1.825664882938813
 30
0.0
 10
0.5020527997006173
 20
-1.841758961226756
 30
0.0
 10
0.5047258246421351
 20
-1.858537806299838
 30
0.0
 10
0.5049928749670046
 20
-1.869995163123535
 30
0.0
 10
0.5051282051282053
 20
-1.875801282051282
 30
0.0
  0
SPLINE
  5
101
330
1F
100
AcDbEntity
  8
0
  6
Continuous
 62
     7
370
    25
100
AcDbSpline
210
0.0
220
0.0
230
1.0
 70
     8
 71
     3
 72
    23
 73
    19
 74
     0
 42
0.000000001
 43
0.00000001
 40
0.0
 40
0.0
 40
0.0
 40
0.0
 40
0.064619991340768
 40
0.1274334841444696
 40
0.1890041265579399
 40
0.2499300706860464
 40
0.3106684537406716
 40
0.3723289611368244
 40
0.4349391099970083
 40
0.4995755441940339
 40
0.5641912077719238
 40
0.6267352169294782
 40
0.688109333561401
 40
0.749293606536751
 40
0.8103305278109452
 40
0.8719011702244157
 40
0.9350459146845314
 40
0.9999999999999999
 40
0.9999999999999999
 40
0.9999999999999999
 40
0.9999999999999999
 10
0.5051282051282053
 20
-1.875801282051282
 30
0.0
 10
0.5049880482974451
 20
-1.880963333917858
 30
0.0
 10
0.5047116528213728
 20
-1.891143128762199
 30
0.0
 10
0.5025673895507123
 20
-1.906117880435218
 30
0.0
 10
0.499123889934475
 20
-1.920528423229809
 30
0.0
 10
0.4943352168497019
 20
-1.934388374391156
 30
0.0
 10
0.4879831229481946
 20
-1.947608048155053
 30
0.0
 10
0.4803784088863186
 20
-1.960300630631889
 30
0.0
 10
0.4713223140199588
 20
-1.972400366862645
 30
0.0
 10
0.4609693964939142
 20
-1.983722828458514
 30
0.0
 10
0.4497242551015018
 20
-1.994149342787189
 30
0.0
 10
0.4377304783157723
 20
-2.003299202515437
 30
0.0
 10
0.4250399292994677
 20
-2.010928125927408
 30
0.0
 10
0.4118132831407577
 20
-2.017307563722526
 30
0.0
 10
0.3979487209082966
 20
-2.022221431658609
 30
0.0
 10
0.3834941874294647
 20
-2.025646989859514
 30
0.0
 10
0.3684667733106251
 20
-2.027788755196733
 30
0.0
 10
0.3582336849568413
 20
-2.028065036417871
 30
0.0
 10
0.3530448717948719
 20
-2.028205128205128
 30
0.0
  0
SPLINE
  5
102
330
1F
100
AcDbEntity
  8
0
  6
Continuous
 62
     7
370
    25
100
AcDbSpline
210
0.0
220
0.0
230
1.0
 70
     8
 71
     3
 72
    23
 73
    19
 74
     0
 42
0.000000001
 43
0.00000001
 40
0.0
 40
0.0
 40
0.0
 40
0.0
 40
0.0637745323056323
 40
0.1260788099895059
 40
0.1869040927472072
 40
0.2475739349176196
 40
0.3080033561644468
 40
0.3691318984609779
 40
0.4320332277442046
 40
0.4967907944370907
 40
0.5616108232295651
 40
0.6249138657484627
 40
0.6867263492419244
 40
0.7480788332577717
 40
0.809582291139896
 40
0.8716307425688278
 40
0.9348858208285534
 40
1.0
 40
1.0
 40
1.0
 40
1.0
 10
0.3530448717948719
 20
-2.028205128205128
 30
0.0
 10
0.3479633056726514
 20
-2.028061931475427
 30
0.0
 10
0.3379173235790133
 20
-2.027778839265694
 30
0.0
 10
0.3231426152377723
 20
-2.025669899855377
 30
0.0
 10
0.3089119568682593
 20
-2.022123498865759
 30
0.0
 10
0.2952711633569723
 20
-2.017146601989656
 30
0.0
 10
0.2822037290542764
 20
-2.010764664279584
 30
0.0
 10
0.2697004119097121
 20
-2.003001454334345
 30
0.0
 10
0.2577267664854794
 20
-1.99385641151162
 30
0.0
 10
0.2465643405633336
 20
-1.983313279281176
 30
0.0
 10
0.2362534132182615
 20
-1.971892162691161
 30
0.0
 10
0.2272923794534085
 20
-1.959674022015119
 30
0.0
 10
0.2195533110172915
 20
-1.946962789864166
 30
0.0
 10
0.2134214851537088
 20
-1.933561302947322
 30
0.0
 10
0.208460444634342
 20
-1.919667919540008
 30
0.0
 10
0.2050281054228546
 20
-1.905158954311754
 30
0.0
 10
0.2030055544239966
 20
-1.890094773891688
 30
0.0
 10
0.2027126670924439
 20
-1.879867289084304
 30
0.0
 10
0.2025641025641027
 20
-1.874679487179487
 30
0.0
  0
SPLINE
  5
103
330
1F
100
AcDbEntity
  8
0
  6
Continuous
 62
     7
370
    25
100
AcDbSpline
210
0.0
220
0.0
230
1.0
 70
     8
 71
     3
 72
    15
 73
    11
 74
     0
 42
0.000000001
 43
0.00000001
 40
0.0
 40
0.0
 40
0.0
 40
0.0
 40
0.129875997220446
 40
0.2546807008782877
 40
0.3760546726568538
 40
0.4953080925370529
 40
0.6151502400677075
 40
0.7381208964567337
 40
0.8656331872619913
 40
1.0
 40
1.0
 40
1.0
 40
1.0
 10
0.2025641025641027
 20
-1.874679487179487
 30
0.0
 10
0.2027286000558422
 20
-1.868713901993344
 30
0.0
 10
0.2030511718734648
 20
-1.85701567099707
 30
0.0
 10
0.2057300386995694
 20
-1.839902300991429
 30
0.0
 10
0.2102695865185078
 20
-1.823720186718372
 30
0.0
 10
0.2164019610482583
 20
-1.808297539447956
 30
0.0
 10
0.2247215391413108
 20
-1.793846647932572
 30
0.0
 10
0.2349227038967528
 20
-1.780187620009997
 30
0.0
 10
0.2474272074759604
 20
-1.767611052493401
 30
0.0
 10
0.2569122119060723
 20
-1.760208441345372
 30
0.0
 10
0.2617788461538463
 20
-1.756410256410256
 30
0.0
  0
LINE
  5
104
330
1F
100
AcDbEntity
  8
0
  6
Continuous
 62
     7
370
    25
100
AcDbLine
 10
0.2617788462
 20
-1.7564102564
 30
0.0
 11
0.2076923077
 21
-1.7564102564
 31
0.0
  0
LINE
  5
105
330
1F
100
AcDbEntity
  8
0
  6
Continuous
 62
     7
370
    25
100
AcDbLine
 10
0.5
 20
-2.4487179487
 30
0.0
 11
0.1
 21
-2.4487179487
 31
0.0
  0
LINE
  5
106
330
1F
100
AcDbEntity
  8
0
  6
Continuous
 62
     7
370
    25
100
AcDbLine
 10
0.1
 20
-2.4487179487
 30
0.0
 11
0.1
 21
-2.3702724359
 31
0.0
  0
SPLINE
  5
107
330
1F
100
AcDbEntity
  8
0
  6
Continuous
 62
     7
370
    25
100
AcDbSpline
210
0.0
220
0.0
230
1.0
 70
     8
 71
     3
 72
    15
 73
    11
 74
     0
 42
0.000000001
 43
0.00000001
 40
0.0
 40
0.0
 40
0.0
 40
0.0
 40
0.1769557521312533
 40
0.3390550796425825
 40
0.4863182249420767
 40
0.6187809228353781
 40
0.7356188277673834
 40
0.8387424767201126
 40
0.926457067876317
 40
1.0
 40
1.0
 40
1.0
 40
1.0
 10
0.1000000000000001
 20
-2.370272435897436
 30
0.0
 10
0.1000059309989537
 20
-2.364876903765817
 30
0.0
 10
0.1000172950563431
 20
-2.354538824587452
 30
0.0
 10
0.1003618374364167
 20
-2.339714246792151
 30
0.0
 10
0.1008220308184471
 20
-2.326250277463427
 30
0.0
 10
0.1014599614690895
 20
-2.314175948214659
 30
0.0
 10
0.102213857497376
 20
-2.303454108433336
 30
0.0
 10
0.1032712334262249
 20
-2.294133274199442
 30
0.0
 10
0.1043752672037481
 20
-2.286140182047004
 30
0.0
 10
0.1054977136631073
 20
-2.28135087353883
 30
0.0
 10
0.1060096153846155
 20
-2.279166666666667
 30
0.0
  0
SPLINE
  5
108
330
1F
100
AcDbEntity
  8
0
  6
Continuous
 62
     7
370
    25
100
AcDbSpline
210
0.0
220
0.0
230
1.0
 70
     8
 71
     3
 72
    23
 73
    19
 74
     0
 42
0.000000001
 43
0.00000001
 40
0.0
 40
0.0
 40
0.0
 40
0.0
 40
0.0624718514428986
 40
0.1234716318564949
 40
0.1833832449898872
 40
0.2431163005141081
 40
0.3020808603235967
 40
0.3612864676158195
 40
0.4214099579157644
 40
0.4824902917959356
 40
0.5441012883206995
 40
0.6057205401879421
 40
0.6671855095049095
 40
0.7300253868203683
 40
0.794582116759238
 40
0.8603668248909624
 40
0.9289181510021454
 40
1.0
 40
1.0
 40
1.0
 40
1.0
 10
0.1060096153846155
 20
-2.279166666666667
 30
0.0
 10
0.106766439261889
 20
-2.276401715492244
 30
0.0
 10
0.1082622534085267
 20
-2.270936965758974
 30
0.0
 10
0.1112576790589816
 20
-2.263062211890131
 30
0.0
 10
0.1148115170726095
 20
-2.255571639207204
 30
0.0
 10
0.118854087281673
 20
-2.248431815177231
 30
0.0
 10
0.1235843836457546
 20
-2.241772780413877
 30
0.0
 10
0.1286877196158612
 20
-2.235372552281192
 30
0.0
 10
0.1344938944642343
 20
-2.229457058425869
 30
0.0
 10
0.1408197796525692
 20
-2.223946174229736
 30
0.0
 10
0.1475851433724947
 20
-2.218852616850372
 30
0.0
 10
0.1549129036310084
 20
-2.214573107651529
 30
0.0
 10
0.1625842869429879
 20
-2.210831238099748
 30
0.0
 10
0.1707035537673349
 20
-2.207767579609694
 30
0.0
 10
0.179278586805371
 20
-2.205489315870058
 30
0.0
 10
0.1882484465268261
 20
-2.203797934578754
 30
0.0
 10
0.1976232190919825
 20
-2.202719447417707
 30
0.0
 10
0.2040301473067622
 20
-2.202616506038764
 30
0.0
 10
0.2072916666666668
 20
-2.202564102564103
 30
0.0
  0
SPLINE
  5
109
330
1F
100
AcDbEntity
  8
0
  6
Continuous
 62
     7
370
    25
100
AcDbSpline
210
0.0
220
0.0
230
1.0
 70
     8
 71
     3
 72
    23
 73
    19
 74
     0
 42
0.000000001
 43
0.00000001
 40
0.0
 40
0.0
 40
0.0
 40
0.0
 40
0.0701188944197148
 40
0.137192352785971
 40
0.2020161807247509
 40
0.264631406974743
 40
0.3261165471458178
 40
0.3860103046676407
 40
0.4458118469576792
 40
0.5052976967309593
 40
0.5646332777264875
 40
0.62428262533384
 40
0.6839020319037503
 40
0.7439527709382698
 40
0.8053877310076342
 40
0.868388030896279
 40
0.9330840282524757
 40
1.0
 40
1.0
 40
1.0
 40
1.0
 10
0.2072916666666668
 20
-2.202564102564103
 30
0.0
 10
0.2105805554423792
 20
-2.20261226539027
 30
0.0
 10
0.2170154884647188
 20
-2.202706499212599
 30
0.0
 10
0.2264295214005693
 20
-2.20383750325018
 30
0.0
 10
0.2354259088441803
 20
-2.205360953720891
 30
0.0
 10
0.2439847031835427
 20
-2.207703473986856
 30
0.0
 10
0.2520550769516301
 20
-2.210771550912388
 30
0.0
 10
0.2597603606111433
 20
-2.214370642666181
 30
0.0
 10
0.266969465970983
 20
-2.218711617565584
 30
0.0
 10
0.2737085651186005
 20
-2.223699598103927
 30
0.0
 10
0.2799839836687913
 20
-2.229248351748829
 30
0.0
 10
0.2857502458965289
 20
-2.235334401822801
 30
0.0
 10
0.2909735988591035
 20
-2.241933178108546
 30
0.0
 10
0.2956657524225764
 20
-2.249023709317273
 30
0.0
 10
0.2997178986508834
 20
-2.256675120612878
 30
0.0
 10
0.3033473049280872
 20
-2.264771366735272
 30
0.0
 10
0.3063954261439153
 20
-2.273382820040634
 30
0.0
 10
0.3079988617355034
 20
-2.279341964494962
 30
0.0
 10
0.3088141025641027
 20
-2.282371794871795
 30
0.0
  0
SPLINE
  5
10A
330
1F
100
AcDbEntity
  8
0
  6
Continuous
 62
     7
370
    25
100
AcDbSpline
210
0.0
220
0.0
230
1.0
 70
     8
 71
     3
 72
    15
 73
    11
 74
     0
 42
0.000000001
 43
0.00000001
 40
0.0
 40
0.0
 40
0.0
 40
0.0
 40
0.0751715905611803
 40
0.164742911407864
 40
0.2680114373901282
 40
0.3859639562109164
 40
0.5177992732835665
 40
0.6636978076578766
 40
0.8244167868186485
 40
1.0
 40
1.0
 40
1.0
 40
1.0
 10
0.3088141025641027
 20
-2.282371794871795
 30
0.0
 10
0.309346617524505
 20
-2.284877804433172
 30
0.0
 10
0.3105136550221823
 20
-2.290369870093554
 30
0.0
 10
0.3118253724893355
 20
-2.299414185503507
 30
0.0
 10
0.3129011241354875
 20
-2.309949799484809
 30
0.0
 10
0.3139050241843138
 20
-2.321940865203742
 30
0.0
 10
0.314436965702859
 20
-2.335415345563735
 30
0.0
 10
0.3150615518139613
 20
-2.350342336553676
 30
0.0
 10
0.3153562598703529
 20
-2.366772356140452
 30
0.0
 10
0.3153748890821034
 20
-2.378231782558126
 30
0.0
 10
0.3153846153846155
 20
-2.384214743589744
 30
0.0
  0
LINE
  5
10B
330
1F
100
AcDbEntity
  8
0
  6
Continuous
 62
     7
370
    25
100
AcDbLine
 10
0.3153846154
 20
-2.3842147436
 30
0.0
 11
0.3153846154
 21
-2.4128205128
 31
0.0
  0
LINE
  5
10C
330
1F
100
AcDbEntity
  8
0
  6
Continuous
 62
     7
370
    25
100
AcDbLine
 10
0.3153846154
 20
-2.4128205128
 30
0.0
 11
0.5
 21
-2.4128205128
 31
0.0
  0
LINE
  5
10D
330
1F
100
AcDbEntity
  8
0
  6
Continuous
 62
     7
370
    25
100
AcDbLine
 10
0.5
 20
-2.4128205128
 30
0.0
 11
0.5
 21
-2.4487179487
 31
0.0
  0
SPLINE
  5
10E
330
1F
100
AcDbEntity
  8
0
  6
Continuous
 62
     7
370
    25
100
AcDbSpline
210
0.0
220
0.0
230
1.0
 70
     8
 71
     3
 72
    23
 73
    19
 74
     0
 42
0.000000001
 43
0.00000001
 40
0.0
 40
0.0
 40
0.0
 40
0.0
 40
0.0656337996756899
 40
0.1291880880571291
 40
0.191218683112189
 40
0.2519128178811575
 40
0.3125074743865502
 40
0.373494433775198
 40
0.4351515996540503
 40
0.4987414744066492
 40
0.5620952169966302
 40
0.624186566811655
 40
0.6854757184651952
 40
0.7460968148060527
 40
0.8076116364477849
 40
0.8699665806571893
 40
0.9339510189149063
 40
1.0
 40
1.0
 40
1.0
 40
1.0
 10
0.3544871794871796
 20
-1.756410256410256
 30
0.0
 10
0.3504485702862931
 20
-1.756519931424152
 30
0.0
 10
0.3424993093315644
 20
-1.756735806558959
 30
0.0
 10
0.3308275930376179
 20
-1.758385014505318
 30
0.0
 10
0.3196580243495815
 20
-1.761008434666681
 30
0.0
 10
0.3089788598857415
 20
-1.764705139811421
 30
0.0
 10
0.2988491438401137
 20
-1.76956128660177
 30
0.0
 10
0.2891961426732204
 20
-1.775418174131644
 30
0.0
 10
0.2800700613715427
 20
-1.78237879695834
 30
0.0
 10
0.2715965675454317
 20
-1.790331105084052
 30
0.0
 10
0.2638678290015205
 20
-1.799035699660676
 30
0.0
 10
0.256969058634462
 20
-1.808246504304342
 30
0.0
 10
0.2513017703213356
 20
-1.818072646813763
 30
0.0
 10
0.2466113392930335
 20
-1.828348879604362
 30
0.0
 10
0.2428788650190218
 20
-1.839093032114312
 30
0.0
 10
0.2403888428740999
 20
-1.850392531522147
 30
0.0
 10
0.2386790918986255
 20
-1.862127272885237
 30
0.0
 10
0.238534819810705
 20
-1.870132536359103
 30
0.0
 10
0.2384615384615386
 20
-1.874198717948718
 30
0.0
  0
SPLINE
  5
10F
330
1F
100
AcDbEntity
  8
0
  6
Continuous
 62
     7
370
    25
100
AcDbSpline
210
0.0
220
0.0
230
1.0
 70
     8
 71
     3
 72
    19
 73
    15
 74
     0
 42
0.000000001
 43
0.00000001
 40
0.0
 40
0.0
 40
0.0
 40
0.0
 40
0.0859275807253894
 40
0.1696073769823643
 40
0.2524962702573218
 40
0.3362721187854041
 40
0.4197766787978662
 40
0.5020301677617867
 40
0.5851025114122497
 40
0.6698193335995465
 40
0.7541646585335035
 40
0.8366448104063471
 40
0.918002985490768
 40
1.0
 40
1.0
 40
1.0
 40
1.0
 10
0.2384615384615386
 20
-1.874198717948718
 30
0.0
 10
0.2386483997047786
 20
-1.879445957921126
 30
0.0
 10
0.2390172340773752
 20
-1.889803175017247
 30
0.0
 10
0.2418918941313595
 20
-1.90500983695401
 30
0.0
 10
0.2466873883340811
 20
-1.919553804585979
 30
0.0
 10
0.2532074246267789
 20
-1.933412461903315
 30
0.0
 10
0.2615614518858194
 20
-1.946199351393663
 30
0.0
 10
0.2714040384747219
 20
-1.957827858468364
 30
0.0
 10
0.2829013235044925
 20
-1.967939430894025
 30
0.0
 10
0.2956418521670291
 20
-1.976635358753667
 30
0.0
 10
0.3093758287919607
 20
-1.983616244171852
 30
0.0
 10
0.3237279340856223
 20
-1.988556160603641
 30
0.0
 10
0.3384497868799389
 20
-1.991808100147981
 30
0.0
 10
0.3484339223926964
 20
-1.992140727980967
 30
0.0
 10
0.353445512820513
 20
-1.992307692307692
 30
0.0
  0
SPLINE
  5
110
330
1F
100
AcDbEntity
  8
0
  6
Continuous
 62
     7
370
    25
100
AcDbSpline
210
0.0
220
0.0
230
1.0
 70
     8
 71
     3
 72
    19
 73
    15
 74
     0
 42
0.000000001
 43
0.00000001
 40
0.0
 40
0.0
 40
0.0
 40
0.0
 40
0.081596167252892
 40
0.1628725050838374
 40
0.2450917893813267
 40
0.3304223696386526
 40
0.4161157649492908
 40
0.4998514098558193
 40
0.5830133118464933
 40
0.6671300368566234
 40
0.7512911467392518
 40
0.8337708989585907
 40
0.9162494902025815
 40
1.0
 40
1.0
 40
1.0
 40
1.0
 10
0.353445512820513
 20
-1.992307692307692
 30
0.0
 10
0.3584269247287384
 20
-1.992093701542659
 30
0.0
 10
0.3683702230926503
 20
-1.99166655878413
 30
0.0
 10
0.3830908122530354
 20
-1.988627359418306
 30
0.0
 10
0.3974107011826201
 20
-1.983461699598243
 30
0.0
 10
0.4112550422175391
 20
-1.976490253815067
 30
0.0
 10
0.4241200599990936
 20
-1.967691981522091
 30
0.0
 10
0.4358238495083509
 20
-1.957590025851795
 30
0.0
 10
0.445820395830641
 20
-1.945905571045204
 30
0.0
 10
0.4541945626758038
 20
-1.933004358589227
 30
0.0
 10
0.4609548793616111
 20
-1.919219307479644
 30
0.0
 10
0.4656598162968493
 20
-1.904724337741559
 30
0.0
 10
0.468697200262445
 20
-1.889789890803406
 30
0.0
 10
0.4690520079591628
 20
-1.879635350273992
 30
0.0
 10
0.4692307692307693
 20
-1.874519230769231
 30
0.0
  0
SPLINE
  5
111
330
1F
100
AcDbEntity
  8
0
  6
Continuous
 62
     7
370
    25
100
AcDbSpline
210
0.0
220
0.0
230
1.0
 70
     8
 71
     3
 72
    19
 73
    15
 74
     0
 42
0.000000001
 43
0.00000001
 40
0.0
 40
0.0
 40
0.0
 40
0.0
 40
0.0848228516583613
 40
0.1687042390531341
 40
0.252747801704567
 40
0.3384562437319071
 40
0.4233396935695016
 40
0.5058129796970059
 40
0.5861290243408118
 40
0.667468814883528
 40
0.748851908315623
 40
0.8304114859759789
 40
0.9134348225799794
 40
0.9999999999999999
 40
0.9999999999999999
 40
0.9999999999999999
 40
0.9999999999999999
 10
0.4692307692307693
 20
-1.874519230769231
 30
0.0
 10
0.4690388674435598
 20
-1.869326052430292
 30
0.0
 10
0.4686571938219924
 20
-1.858997335783668
 30
0.0
 10
0.4657987976403393
 20
-1.843728578391815
 30
0.0
 10
0.4608971626064677
 20
-1.82896172556746
 30
0.0
 10
0.4543098721544909
 20
-1.814797510640078
 30
0.0
 10
0.4461052323475051
 20
-1.801615250817638
 30
0.0
 10
0.4364998155679282
 20
-1.78982409349881
 30
0.0
 10
0.4254056044099483
 20
-1.779735851017813
 30
0.0
 10
0.413071286990344
 20
-1.77133665095119
 30
0.0
 10
0.3996354037260954
 20
-1.764675674918417
 30
0.0
 10
0.3853451988879734
 20
-1.759805254354122
 30
0.0
 10
0.3701716663923366
 20
-1.756957648712899
 30
0.0
 10
0.3597876316650609
 20
-1.756595243444913
 30
0.0
 10
0.3544871794871797
 20
-1.756410256410256
 30
0.0
  0
LINE
  5
112
330
1F
100
AcDbEntity
  8
0
  6
Continuous
 62
     7
370
    25
100
AcDbLine
 10
0.141025641
 20
-2.3396634615
 30
0.0
 11
0.141025641
 21
-2.4128205128
 31
0.0
  0
LINE
  5
113
330
1F
100
AcDbEntity
  8
0
  6
Continuous
 62
     7
370
    25
100
AcDbLine
 10
0.141025641
 20
-2.4128205128
 30
0.0
 11
0.2743589744
 21
-2.4128205128
 31
0.0
  0
LINE
  5
114
330
1F
100
AcDbEntity
  8
0
  6
Continuous
 62
     7
370
    25
100
AcDbLine
 10
0.2743589744
 20
-2.4128205128
 30
0.0
 11
0.2752403846
 21
-2.3427884615
 31
0.0
  0
SPLINE
  5
115
330
1F
100
AcDbEntity
  8
0
  6
Continuous
 62
     7
370
    25
100
AcDbSpline
210
0.0
220
0.0
230
1.0
 70
     8
 71
     3
 72
    23
 73
    19
 74
     0
 42
0.000000001
 43
0.00000001
 40
0.0
 40
0.0
 40
0.0
 40
0.0
 40
0.0725466358671726
 40
0.1400497848722072
 40
0.2025187514244033
 40
0.2606047435747235
 40
0.3132640246592723
 40
0.3617272313157962
 40
0.4048898764882254
 40
0.4443189648693386
 40
0.5165994550425504
 40
0.586409106918946
 40
0.6549956230439089
 40
0.7243019277193722
 40
0.7934109797841584
 40
0.8616100315349607
 40
0.9295377253736504
 40
1.0
 40
1.0
 40
1.0
 40
1.0
 10
0.2752403846153847
 20
-2.342788461538462
 30
0.0
 10
0.2752422675282851
 20
-2.339369017535666
 30
0.0
 10
0.2752459024528197
 20
-2.332767851385785
 30
0.0
 10
0.2747889015130276
 20
-2.323232602825924
 30
0.0
 10
0.2742683756518186
 20
-2.314384741831146
 30
0.0
 10
0.2734811105071186
 20
-2.306257540070744
 30
0.0
 10
0.2724491305599156
 20
-2.298822480765768
 30
0.0
 10
0.2711657602862711
 20
-2.292143784662488
 30
0.0
 10
0.2697705326531368
 20
-2.286121561037692
 30
0.0
 10
0.2674394534135485
 20
-2.279194159380504
 30
0.0
 10
0.2638551798716145
 20
-2.271407531685206
 30
0.0
 10
0.2586374701191295
 20
-2.262901235279471
 30
0.0
 10
0.2518781763463837
 20
-2.255748072641809
 30
0.0
 10
0.2442995789380705
 20
-2.249569425635475
 30
0.0
 10
0.2358914068799736
 20
-2.244569763227606
 30
0.0
 10
0.2268478436354898
 20
-2.241042700867919
 30
0.0
 10
0.2173028686561661
 20
-2.238870881453078
 30
0.0
 10
0.210775421175194
 20
-2.238599642021545
 30
0.0
 10
0.2074519230769232
 20
-2.238461538461539
 30
0.0
  0
SPLINE
  5
116
330
1F
100
AcDbEntity
  8
0
  6
Continuous
 62
     7
370
    25
100
AcDbSpline
210
0.0
220
0.0
230
1.0
 70
     8
 71
     3
 72
    23
 73
    19
 74
     0
 42
0.000000001
 43
0.00000001
 40
0.0
 40
0.0
 40
0.0
 40
0.0
 40
0.0700338021960794
 40
0.1392185309890247
 40
0.2081678701726038
 40
0.2791337038703988
 40
0.3499370785383938
 40
0.4182943975547194
 40
0.4875402944044485
 40
0.5575765146860603
 40
0.5954902100367268
 40
0.6381180465595561
 40
0.6859574095254504
 40
0.7382223685571454
 40
0.7961316210116776
 40
0.8585366487549829
 40
0.9266681484102272
 40
0.9999999999999999
 40
0.9999999999999999
 40
0.9999999999999999
 40
0.9999999999999999
 10
0.2074519230769232
 20
-2.238461538461539
 30
0.0
 10
0.2042360961106225
 20
-2.238605842347282
 30
0.0
 10
0.1978434301104272
 20
-2.23889270061228
 30
0.0
 10
0.1884743825392278
 20
-2.241024778174332
 30
0.0
 10
0.1795333360246503
 20
-2.244607637333881
 30
0.0
 10
0.1711928761835365
 20
-2.24957379661073
 30
0.0
 10
0.1636309547667186
 20
-2.25560249743164
 30
0.0
 10
0.1570507548793635
 20
-2.262603997933274
 30
0.0
 10
0.1517963070439056
 20
-2.270596210124821
 30
0.0
 10
0.1482742352788856
 20
-2.277968836775232
 30
0.0
 10
0.1462121866259617
 20
-2.284570933231707
 30
0.0
 10
0.1447228439954866
 20
-2.290277197210625
 30
0.0
 10
0.1436958395905986
 20
-2.296753139480933
 30
0.0
 10
0.1427131244716356
 20
-2.303937228761249
 30
0.0
 10
0.141919877261233
 20
-2.311820343801616
 30
0.0
 10
0.1413690161116194
 20
-2.320452587783414
 30
0.0
 10
0.1410500089587076
 20
-2.329805214515681
 30
0.0
 10
0.1410339603252698
 20
-2.336297820695143
 30
0.0
 10
0.1410256410256411
 20
-2.339663461538462
 30
0.0
  0
LINE
  5
117
330
1F
100
AcDbEntity
  8
0
  6
Continuous
 62
     7
370
    25
100
AcDbLine
 10
0.3256410256
 20
-1.2500801282
 30
0.0
 11
0.3256410256
 21
-1.0282051282
 31
0.0
  0
SPLINE
  5
118
330
1F
100
AcDbEntity
  8
0
  6
Continuous
 62
     7
370
    25
100
AcDbSpline
210
0.0
220
0.0
230
1.0
 70
     8
 71
     3
 72
    19
 73
    15
 74
     0
 42
0.000000001
 43
0.00000001
 40
0.0
 40
0.0
 40
0.0
 40
0.0
 40
0.0962571573018459
 40
0.1847824702750659
 40
0.2675251500516337
 40
0.3444386181248736
 40
0.4196464124670808
 40
0.4966233725220257
 40
0.5766717974337031
 40
0.6603165314445154
 40
0.7452604569441237
 40
0.8300652781082851
 40
0.914432110434799
 40
1.0
 40
1.0
 40
1.0
 40
1.0
 10
0.3256410256410258
 20
-1.028205128205128
 30
0.0
 10
0.3208771749251304
 20
-1.029513707420653
 30
0.0
 10
0.3117321292165354
 20
-1.032025754387063
 30
0.0
 10
0.2990728766206046
 20
-1.037375594913825
 30
0.0
 10
0.2877572450791262
 20
-1.043255371970262
 30
0.0
 10
0.2779732751760237
 20
-1.050333466568097
 30
0.0
 10
0.2692698890790824
 20
-1.058274817174738
 30
0.0
 10
0.2617857092373618
 20
-1.067574330726855
 30
0.0
 10
0.2548876841167299
 20
-1.077828676676719
 30
0.0
 10
0.2491432713670161
 20
-1.089242100881076
 30
0.0
 10
0.2444227467936496
 20
-1.101364514745403
 30
0.0
 10
0.2409517020084921
 20
-1.113946754838747
 30
0.0
 10
0.238911317889399
 20
-1.126883433360418
 30
0.0
 10
0.2386121697063325
 20
-1.135596599846374
 30
0.0
 10
0.2384615384615386
 20
-1.139983974358974
 30
0.0
  0
SPLINE
  5
119
330
1F
100
AcDbEntity
  8
0
  6
Continuous
 62
     7
370
    25
100
AcDbSpline
210
0.0
220
0.0
230
1.0
 70
     8
 71
     3
 72
    15
 73
    11
 74
     0
 42
0.000000001
 43
0.00000001
 40
0.0
 40
0.0
 40
0.0
 40
0.0
 40
0.1311028947107433
 40
0.2591628598158421
 40
0.3841937597397098
 40
0.5063279470327989
 40
0.6290671975267813
 40
0.7506483570294696
 40
0.8740284465074227
 40
1.0
 40
1.0
 40
1.0
 40
1.0
 10
0.2384615384615386
 20
-1.139983974358974
 30
0.0
 10
0.238530628611702
 20
-1.143567041114628
 30
0.0
 10
0.2386672053130859
 20
-1.150650010787839
 30
0.0
 10
0.2399898550666922
 20
-1.16108046288548
 30
0.0
 10
0.2421152063443584
 20
-1.171123358029862
 30
0.0
 10
0.2452402081782893
 20
-1.180748718717213
 30
0.0
 10
0.2490427177943506
 20
-1.190020393418929
 30
0.0
 10
0.2537167715136143
 20
-1.198931682645555
 30
0.0
 10
0.2593677842439887
 20
-1.207368030172521
 30
0.0
 10
0.2636845633379576
 20
-1.212640735437479
 30
0.0
 10
0.2658653846153847
 20
-1.215304487179487
 30
0.0
  0
SPLINE
  5
11A
330
1F
100
AcDbEntity
  8
0
  6
Continuous
 62
     7
370
    25
100
AcDbSpline
210
0.0
220
0.0
230
1.0
 70
     8
 71
     3
 72
    15
 73
    11
 74
     0
 42
0.000000001
 43
0.00000001
 40
0.0
 40
0.0
 40
0.0
 40
0.0
 40
0.1099881983153735
 40
0.2225893071868159
 40
0.3385132689194081
 40
0.4596958728817729
 40
0.5855189417853005
 40
0.7175065621879434
 40
0.8546610674070444
 40
1.0
 40
1.0
 40
1.0
 40
1.0
 10
0.2658653846153847
 20
-1.215304487179487
 30
0.0
 10
0.2675902679448512
 20
-1.217212589829688
 30
0.0
 10
0.2710810114170111
 20
-1.221074124553001
 30
0.0
 10
0.2770986078118137
 20
-1.226228374558317
 30
0.0
 10
0.2835912419988372
 20
-1.231200190555546
 30
0.0
 10
0.2908423234413016
 20
-1.235618373511378
 30
0.0
 10
0.2986415786376093
 20
-1.239817200530474
 30
0.0
 10
0.3070459168349722
 20
-1.243643420604432
 30
0.0
 10
0.3160908129377546
 20
-1.247122397078099
 30
0.0
 10
0.3223967229272897
 20
-1.249075357377496
 30
0.0
 10
0.3256410256410258
 20
-1.250080128205128
 30
0.0
  0
LINE
  5
11B
330
1F
100
AcDbEntity
  8
0
  6
Continuous
 62
     7
370
    25
100
AcDbLine
 10
0.3307692308
 20
-0.5247596154
 30
0.0
 11
0.1779647436
 21
-0.5952724359
 31
0.0
  0
LINE
  5
11C
330
1F
100
AcDbEntity
  8
0
  6
Continuous
 62
     7
370
    25
100
AcDbLine
 10
0.1779647436
 20
-0.5952724359
 30
0.0
 11
0.3307692308
 21
-0.6677083333
 31
0.0
  0
LINE
  5
11D
330
1F
100
AcDbEntity
  8
0
  6
Continuous
 62
     7
370
    25
100
AcDbLine
 10
0.3307692308
 20
-0.6677083333
 30
0.0
 11
0.3307692308
 21
-0.5247596154
 31
0.0
  0
LINE
  5
11E
330
1F
100
AcDbEntity
  8
0
  6
Continuous
 62
     7
370
    25
100
AcDbLine
 10
0.141025641
 20
-0.2352564103
 30
0.0
 11
0.141025641
 21
-0.3102564103
 31
0.0
  0
LINE
  5
11F
330
1F
100
AcDbEntity
  8
0
  6
Continuous
 62
     7
370
    25
100
AcDbLine
 10
0.141025641
 20
-0.3102564103
 30
0.0
 11
0.2743589744
 21
-0.3102564103
 31
0.0
  0
LINE
  5
120
330
1F
100
AcDbEntity
  8
0
  6
Continuous
 62
     7
370
    25
100
AcDbLine
 10
0.2743589744
 20
-0.3102564103
 30
0.0
 11
0.2749198718
 21
-0.2370192308
 31
0.0
  0
SPLINE
  5
121
330
1F
100
AcDbEntity
  8
0
  6
Continuous
 62
     7
370
    25
100
AcDbSpline
210
0.0
220
0.0
230
1.0
 70
     8
 71
     3
 72
    23
 73
    19
 74
     0
 42
0.000000001
 43
0.00000001
 40
0.0
 40
0.0
 40
0.0
 40
0.0
 40
0.0716548250710893
 40
0.138887459387847
 40
0.2011471656056693
 40
0.2590762516377466
 40
0.3121969866808197
 40
0.3606144513840449
 40
0.4050108293391091
 40
0.4450189048796566
 40
0.5184533866764872
 40
0.5894227141269575
 40
0.6580393556681652
 40
0.7272810892556879
 40
0.7958269083608775
 40
0.8631875938675813
 40
0.9304039132606168
 40
0.9999999999999999
 40
0.9999999999999999
 40
0.9999999999999999
 40
0.9999999999999999
 10
0.2749198717948719
 20
-0.2370192307692309
 30
0.0
 10
0.2749213854360935
 20
-0.2335997973035287
 30
0.0
 10
0.2749243193038893
 20
-0.2269719613395725
 30
0.0
 10
0.2744678758289357
 20
-0.2173833199615792
 30
0.0
 10
0.2739486799672782
 20
-0.2084552866806868
 30
0.0
 10
0.2731543338586138
 20
-0.2002221263304312
 30
0.0
 10
0.2721312270115359
 20
-0.1926797784631764
 30
0.0
 10
0.270849437155913
 20
-0.1858332649957878
 30
0.0
 10
0.2693624939042841
 20
-0.1796673251880739
 30
0.0
 10
0.2670372053009843
 20
-0.1724993455714575
 30
0.0
 10
0.2635140934491774
 20
-0.1644005593141999
 30
0.0
 10
0.2580420677842998
 20
-0.1557913759817552
 30
0.0
 10
0.2514670263948022
 20
-0.1482375083303528
 30
0.0
 10
0.2437314371004395
 20
-0.1420854441536364
 30
0.0
 10
0.2353612937323509
 20
-0.1369310166644015
 30
0.0
 10
0.2262708704307442
 20
-0.1334622919817998
 30
0.0
 10
0.2167550516772942
 20
-0.1311505342403394
 30
0.0
 10
0.2102169431072515
 20
-0.1308977973271282
 30
0.0
 10
0.2068910256410257
 20
-0.1307692307692309
 30
0.0
  0
SPLINE
  5
122
330
1F
100
AcDbEntity
  8
0
  6
Continuous
 62
     7
370
    25
100
AcDbSpline
210
0.0
220
0.0
230
1.0
 70
     8
 71
     3
 72
    23
 73
    19
 74
     0
 42
0.000000001
 43
0.00000001
 40
0.0
 40
0.0
 40
0.0
 40
0.0
 40
0.068801498682118
 40
0.136339465285964
 40
0.2039814127803943
 40
0.2735013363706026
 40
0.342898898776512
 40
0.4109383679499801
 40
0.479129006802769
 40
0.5494902105016465
 40
0.5878266497964583
 40
0.6308137465019764
 40
0.678938503431036
 40
0.73198415042472
 40
0.7911502691905412
 40
0.8553101019675184
 40
0.9250998701705924
 40
1.0
 40
1.0
 40
1.0
 40
1.0
 10
0.2068910256410257
 20
-0.1307692307692309
 30
0.0
 10
0.2036745366504386
 20
-0.1309070125618928
 30
0.0
 10
0.1973006291415197
 20
-0.1311800457995038
 30
0.0
 10
0.1879646797481859
 20
-0.1333969489164695
 30
0.0
 10
0.1791506770328567
 20
-0.1371869665027646
 30
0.0
 10
0.1708472408311064
 20
-0.1421727514401663
 30
0.0
 10
0.1634276631433762
 20
-0.1484299328298108
 30
0.0
 10
0.1570104346638178
 20
-0.1556258792817866
 30
0.0
 10
0.1517570496396425
 20
-0.1637592060010209
 30
0.0
 10
0.1482654596730377
 20
-0.1712939502922718
 30
0.0
 10
0.1462150028827031
 20
-0.1780826041494929
 30
0.0
 10
0.1447246666171007
 20
-0.1839487796165698
 30
0.0
 10
0.1436903176893087
 20
-0.1906095884510261
 30
0.0
 10
0.1427106006881116
 20
-0.1980347393507633
 30
0.0
 10
0.1419174933101481
 20
-0.2062384028118101
 30
0.0
 10
0.1413704186438674
 20
-0.2152446229926988
 30
0.0
 10
0.1410500271158305
 20
-0.224997609283046
 30
0.0
 10
0.1410339588957147
 20
-0.231757228019946
 30
0.0
 10
0.1410256410256411
 20
-0.2352564102564104
 30
0.0
  0
SPLINE
  5
123
330
1F
100
AcDbEntity
  8
0
  6
Continuous
 62
     7
370
    25
100
AcDbSpline
210
0.0
220
0.0
230
1.0
 70
     8
 71
     3
 72
    23
 73
    19
 74
     0
 42
0.000000001
 43
0.00000001
 40
0.0
 40
0.0
 40
0.0
 40
0.0
 40
0.0656337996756899
 40
0.1291880880571289
 40
0.1912186831121889
 40
0.2519128178811573
 40
0.3125074743865507
 40
0.3734944337751981
 40
0.4351515996540499
 40
0.4987414744066494
 40
0.562095216996631
 40
0.6241865668116557
 40
0.6854757184651953
 40
0.7460968148060527
 40
0.8076116364477849
 40
0.8699665806571898
 40
0.9339510189149071
 40
1.0
 40
1.0
 40
1.0
 40
1.0
 10
0.3544871794871796
 20
0.6333333333333332
 30
0.0
 10
0.3504485702862931
 20
0.633223658319437
 30
0.0
 10
0.3424993093315644
 20
0.6330077831846306
 30
0.0
 10
0.3308275930376179
 20
0.6313585752382712
 30
0.0
 10
0.3196580243495815
 20
0.6287351550769088
 30
0.0
 10
0.3089788598857414
 20
0.625038449932169
 30
0.0
 10
0.2988491438401137
 20
0.620182303141819
 30
0.0
 10
0.2891961426732203
 20
0.6143254156119453
 30
0.0
 10
0.2800700613715428
 20
0.6073647927852497
 30
0.0
 10
0.2715965675454317
 20
0.5994124846595383
 30
0.0
 10
0.2638678290015203
 20
0.5907078900829135
 30
0.0
 10
0.256969058634462
 20
0.5814970854392473
 30
0.0
 10
0.2513017703213355
 20
0.5716709429298265
 30
0.0
 10
0.2466113392930335
 20
0.5613947101392268
 30
0.0
 10
0.2428788650190218
 20
0.5506505576292777
 30
0.0
 10
0.2403888428740998
 20
0.5393510582214434
 30
0.0
 10
0.2386790918986257
 20
0.5276163168583514
 30
0.0
 10
0.2385348198107051
 20
0.5196110533844869
 30
0.0
 10
0.2384615384615386
 20
0.5155448717948716
 30
0.0
  0
SPLINE
  5
124
330
1F
100
AcDbEntity
  8
0
  6
Continuous
 62
     7
370
    25
100
AcDbSpline
210
0.0
220
0.0
230
1.0
 70
     8
 71
     3
 72
    19
 73
    15
 74
     0
 42
0.000000001
 43
0.00000001
 40
0.0
 40
0.0
 40
0.0
 40
0.0
 40
0.0859275807253894
 40
0.1696073769823651
 40
0.2524962702573222
 40
0.3362721187854049
 40
0.4197766787978669
 40
0.5020301677617862
 40
0.5851025114122497
 40
0.6698193335995462
 40
0.7541646585335033
 40
0.836644810406347
 40
0.918002985490768
 40
1.0
 40
1.0
 40
1.0
 40
1.0
 10
0.2384615384615386
 20
0.5155448717948716
 30
0.0
 10
0.2386483997047786
 20
0.5102976318224629
 30
0.0
 10
0.2390172340773753
 20
0.4999404147263427
 30
0.0
 10
0.2418918941313594
 20
0.484733752789579
 30
0.0
 10
0.2466873883340812
 20
0.4701897851576104
 30
0.0
 10
0.2532074246267788
 20
0.4563311278402741
 30
0.0
 10
0.2615614518858192
 20
0.4435442383499274
 30
0.0
 10
0.2714040384747221
 20
0.4319157312752255
 30
0.0
 10
0.2829013235044923
 20
0.4218041588495646
 30
0.0
 10
0.2956418521670293
 20
0.4131082309899225
 30
0.0
 10
0.3093758287919607
 20
0.406127345571738
 30
0.0
 10
0.3237279340856224
 20
0.4011874291399484
 30
0.0
 10
0.3384497868799389
 20
0.3979354895956074
 30
0.0
 10
0.3484339223926964
 20
0.3976028617626218
 30
0.0
 10
0.353445512820513
 20
0.3974358974358972
 30
0.0
  0
SPLINE
  5
125
330
1F
100
AcDbEntity
  8
0
  6
Continuous
 62
     7
370
    25
100
AcDbSpline
210
0.0
220
0.0
230
1.0
 70
     8
 71
     3
 72
    19
 73
    15
 74
     0
 42
0.000000001
 43
0.00000001
 40
0.0
 40
0.0
 40
0.0
 40
0.0
 40
0.081596167252892
 40
0.1628725050838373
 40
0.2450917893813264
 40
0.3304223696386523
 40
0.4161157649492906
 40
0.4998514098558197
 40
0.5830133118464936
 40
0.6671300368566232
 40
0.7512911467392515
 40
0.833770898958591
 40
0.9162494902025806
 40
1.0
 40
1.0
 40
1.0
 40
1.0
 10
0.353445512820513
 20
0.3974358974358972
 30
0.0
 10
0.3584269247287386
 20
0.3976498882009309
 30
0.0
 10
0.3683702230926503
 20
0.3980770309594601
 30
0.0
 10
0.3830908122530353
 20
0.4011162303252831
 30
0.0
 10
0.3974107011826202
 20
0.4062818901453459
 30
0.0
 10
0.4112550422175389
 20
0.4132533359285214
 30
0.0
 10
0.4241200599990936
 20
0.4220516082214982
 30
0.0
 10
0.4358238495083508
 20
0.4321535638917939
 30
0.0
 10
0.4458203958306412
 20
0.4438380186983865
 30
0.0
 10
0.4541945626758037
 20
0.4567392311543619
 30
0.0
 10
0.4609548793616109
 20
0.4705242822639463
 30
0.0
 10
0.4656598162968495
 20
0.4850192520020303
 30
0.0
 10
0.468697200262445
 20
0.4999536989401837
 30
0.0
 10
0.4690520079591628
 20
0.510108239469597
 30
0.0
 10
0.4692307692307693
 20
0.5152243589743588
 30
0.0
  0
SPLINE
  5
126
330
1F
100
AcDbEntity
  8
0
  6
Continuous
 62
     7
370
    25
100
AcDbSpline
210
0.0
220
0.0
230
1.0
 70
     8
 71
     3
 72
    19
 73
    15
 74
     0
 42
0.000000001
 43
0.00000001
 40
0.0
 40
0.0
 40
0.0
 40
0.0
 40
0.084822851658361
 40
0.1687042390531339
 40
0.2527478017045668
 40
0.3384562437319062
 40
0.4233396935695014
 40
0.5058129796970061
 40
0.586129024340812
 40
0.667468814883528
 40
0.7488519083156228
 40
0.8304114859759791
 40
0.9134348225799794
 40
1.0
 40
1.0
 40
1.0
 40
1.0
 10
0.4692307692307693
 20
0.5152243589743588
 30
0.0
 10
0.4690388674435598
 20
0.5204175373132975
 30
0.0
 10
0.4686571938219924
 20
0.5307462539599219
 30
0.0
 10
0.4657987976403394
 20
0.5460150113517747
 30
0.0
 10
0.4608971626064676
 20
0.56078186417613
 30
0.0
 10
0.454309872154491
 20
0.5749460791035116
 30
0.0
 10
0.446105232347505
 20
0.5881283389259506
 30
0.0
 10
0.4364998155679284
 20
0.59991949624478
 30
0.0
 10
0.4254056044099483
 20
0.6100077387257776
 30
0.0
 10
0.4130712869903441
 20
0.6184069387924
 30
0.0
 10
0.3996354037260954
 20
0.6250679148251719
 30
0.0
 10
0.3853451988879735
 20
0.6299383353894676
 30
0.0
 10
0.3701716663923368
 20
0.6327859410306904
 30
0.0
 10
0.3597876316650609
 20
0.6331483462986766
 30
0.0
 10
0.3544871794871796
 20
0.6333333333333332
 30
0.0
  0
SPLINE
  5
127
330
1F
100
AcDbEntity
  8
0
  6
Continuous
 62
     7
370
    25
100
AcDbSpline
210
0.0
220
0.0
230
1.0
 70
     8
 71
     3
 72
    19
 73
    15
 74
     0
 42
0.000000001
 43
0.00000001
 40
0.0
 40
0.0
 40
0.0
 40
0.0
 40
0.0892231902026255
 40
0.1743107603914226
 40
0.2575565216124314
 40
0.3398567934787889
 40
0.4213089206476272
 40
0.501537606745801
 40
0.5827753890817384
 40
0.6663479258916644
 40
0.7502459655375804
 40
0.8327796793294292
 40
0.9156659501690236
 40
1.0
 40
1.0
 40
1.0
 40
1.0
 10
0.3522435897435899
 20
1.007692307692307
 30
0.0
 10
0.3469159482518336
 20
1.007538939494439
 30
0.0
 10
0.3365076089242222
 20
1.007239311929792
 30
0.0
 10
0.3213395320945401
 20
1.004420634079152
 30
0.0
 10
0.3070630636610203
 20
0.9998482620423502
 30
0.0
 10
0.2937147339652652
 20
0.9935025422702409
 30
0.0
 10
0.2814804674316371
 20
0.9855140406143235
 30
0.0
 10
0.2706700671492343
 20
0.9757979713037704
 30
0.0
 10
0.260985392275212
 20
0.9647842611257804
 30
0.0
 10
0.2530223126331118
 20
0.952203568189251
 30
0.0
 10
0.2465315031568905
 20
0.9387378617527455
 30
0.0
 10
0.2418198900091831
 20
0.9245857399908951
 30
0.0
 10
0.2390462250895709
 20
0.9098841073850776
 30
0.0
 10
0.2386575556928261
 20
0.8999046993252102
 30
0.0
 10
0.2384615384615386
 20
0.8948717948717947
 30
0.0
  0
SPLINE
  5
128
330
1F
100
AcDbEntity
  8
0
  6
Continuous
 62
     7
370
    25
100
AcDbSpline
210
0.0
220
0.0
230
1.0
 70
     8
 71
     3
 72
    19
 73
    15
 74
     0
 42
0.000000001
 43
0.00000001
 40
0.0
 40
0.0
 40
0.0
 40
0.0
 40
0.0855159706796895
 40
0.1693034888457983
 40
0.2522092660751222
 40
0.3365573854732414
 40
0.4206296193274024
 40
0.5027724155295628
 40
0.584832052524149
 40
0.6682941281964763
 40
0.7518459120420757
 40
0.8340614035513276
 40
0.916222668147
 40
1.0
 40
1.0
 40
1.0
 40
1.0
 10
0.2384615384615386
 20
0.8948717948717947
 30
0.0
 10
0.2386406006729299
 20
0.8896229053951664
 30
0.0
 10
0.2389951058825188
 20
0.8792312172239857
 30
0.0
 10
0.2420009639630958
 20
0.8639934008115557
 30
0.0
 10
0.2467586108303358
 20
0.8493167620083841
 30
0.0
 10
0.2533806980174892
 20
0.8353460146411077
 30
0.0
 10
0.2617498403433112
 20
0.822402990035749
 30
0.0
 10
0.2717069277361298
 20
0.8108200293353844
 30
0.0
 10
0.2831153590696383
 20
0.8007213232454388
 30
0.0
 10
0.2958281667303033
 20
0.7921763287091542
 30
0.0
 10
0.3095647726029452
 20
0.7853501686126082
 30
0.0
 10
0.3240375153319035
 20
0.7805818101884012
 30
0.0
 10
0.3389935801376265
 20
0.7774299799732685
 30
0.0
 10
0.3491827315606758
 20
0.7770931381015609
 30
0.0
 10
0.3543269230769232
 20
0.7769230769230768
 30
0.0
  0
SPLINE
  5
129
330
1F
100
AcDbEntity
  8
0
  6
Continuous
 62
     7
370
    25
100
AcDbSpline
210
0.0
220
0.0
230
1.0
 70
     8
 71
     3
 72
    23
 73
    19
 74
     0
 42
0.000000001
 43
0.00000001
 40
0.0
 40
0.0
 40
0.0
 40
0.0
 40
0.0649819332923192
 40
0.127800460152941
 40
0.1890531045412636
 40
0.2488129515760052
 40
0.3077025410261754
 40
0.3669874410710669
 40
0.4273498338843751
 40
0.488803454478201
 40
0.5506813746677978
 40
0.6120517435359858
 40
0.673374722781813
 40
0.7349342853269675
 40
0.7978134247507779
 40
0.8628940164414817
 40
0.9300965325674676
 40
1.0
 40
1.0
 40
1.0
 40
1.0
 10
0.3543269230769232
 20
0.7769230769230768
 30
0.0
 10
0.3582048857093118
 20
0.7770063538248297
 30
0.0
 10
0.3658317041766189
 20
0.7771701351379565
 30
0.0
 10
0.3770263978150487
 20
0.7787337930104998
 30
0.0
 10
0.3877050227428018
 20
0.7812919538809503
 30
0.0
 10
0.3978574369793311
 20
0.784826300059075
 30
0.0
 10
0.4074849343935679
 20
0.7893425023839171
 30
0.0
 10
0.4165868428139692
 20
0.7949127224877864
 30
0.0
 10
0.4251682571581607
 20
0.8015058541138417
 30
0.0
 10
0.4331567648005556
 20
0.8090312992818751
 30
0.0
 10
0.440432156690009
 20
0.8173260739386302
 30
0.0
 10
0.4468251148729034
 20
0.8263224656856191
 30
0.0
 10
0.4520537582054723
 20
0.8360088034971989
 30
0.0
 10
0.4565727139073503
 20
0.8461467183028674
 30
0.0
 10
0.4598731780333457
 20
0.8569822350261178
 30
0.0
 10
0.4623918958546093
 20
0.8683592729418173
 30
0.0
 10
0.4638328966561552
 20
0.880358324104942
 30
0.0
 10
0.4640115021270486
 20
0.8885379514316605
 30
0.0
 10
0.4641025641025642
 20
0.8927083333333332
 30
0.0
  0
SPLINE
  5
12A
330
1F
100
AcDbEntity
  8
0
  6
Continuous
 62
     7
370
    25
100
AcDbSpline
210
0.0
220
0.0
230
1.0
 70
     8
 71
     3
 72
    23
 73
    19
 74
     0
 42
0.000000001
 43
0.00000001
 40
0.0
 40
0.0
 40
0.0
 40
0.0
 40
0.0701214992195633
 40
0.1371218486740219
 40
0.2014871210766346
 40
0.2637651191668755
 40
0.3245600950367297
 40
0.3847388869594637
 40
0.4449046043522679
 40
0.5052319196167139
 40
0.5654939949839914
 40
0.6250997441456838
 40
0.6843497139440939
 40
0.7438828254849644
 40
0.8046082057523067
 40
0.8672389137717531
 40
0.932094288020851
 40
1.0
 40
1.0
 40
1.0
 40
1.0
 10
0.4641025641025642
 20
0.8927083333333332
 30
0.0
 10
0.4640148373551393
 20
0.8969327628414082
 30
0.0
 10
0.4638432886301553
 20
0.9051935899798376
 30
0.0
 10
0.462368603080918
 20
0.9172588398533142
 30
0.0
 10
0.4599889486481634
 20
0.9286911530386079
 30
0.0
 10
0.4566103171821662
 20
0.93948004702285
 30
0.0
 10
0.4522992599677617
 20
0.9496662574301478
 30
0.0
 10
0.4468436465379969
 20
0.9591353562421709
 30
0.0
 10
0.4406305685901575
 20
0.9680903788784966
 30
0.0
 10
0.4333834812506132
 20
0.976245397116669
 30
0.0
 10
0.4253966246802944
 20
0.9836195874620758
 30
0.0
 10
0.4167057795357513
 20
0.9900459608211926
 30
0.0
 10
0.4074417202160231
 20
0.9955218978525762
 30
0.0
 10
0.3976054909960501
 20
1.000056488692021
 30
0.0
 10
0.387120650645793
 20
1.003518340596852
 30
0.0
 10
0.3760134099860531
 20
1.005840501169015
 30
0.0
 10
0.3643369826876556
 20
1.007464129187471
 30
0.0
 10
0.3563359979817561
 20
1.007615092009555
 30
0.0
 10
0.3522435897435899
 20
1.007692307692307
 30
0.0
  0
LINE
  5
12B
330
1F
100
AcDbEntity
  8
0
  6
Continuous
 62
     7
370
    25
100
AcDbLine
 10
0.3256410256
 20
1.6883814103
 30
0.0
 11
0.3256410256
 21
1.9102564103
 31
0.0
  0
SPLINE
  5
12C
330
1F
100
AcDbEntity
  8
0
  6
Continuous
 62
     7
370
    25
100
AcDbSpline
210
0.0
220
0.0
230
1.0
 70
     8
 71
     3
 72
    19
 73
    15
 74
     0
 42
0.000000001
 43
0.00000001
 40
0.0
 40
0.0
 40
0.0
 40
0.0
 40
0.0962571573018461
 40
0.1847824702750658
 40
0.2675251500516336
 40
0.3444386181248729
 40
0.4196464124670801
 40
0.496623372522025
 40
0.5766717974337024
 40
0.6603165314445147
 40
0.7452604569441238
 40
0.8300652781082852
 40
0.914432110434799
 40
1.0
 40
1.0
 40
1.0
 40
1.0
 10
0.3256410256410258
 20
1.910256410256411
 30
0.0
 10
0.3208771749251303
 20
1.908947831040885
 30
0.0
 10
0.3117321292165353
 20
1.906435784074475
 30
0.0
 10
0.2990728766206047
 20
1.901085943547714
 30
0.0
 10
0.2877572450791261
 20
1.895206166491275
 30
0.0
 10
0.2779732751760237
 20
1.888128071893441
 30
0.0
 10
0.2692698890790823
 20
1.8801867212868
 30
0.0
 10
0.2617857092373619
 20
1.870887207734685
 30
0.0
 10
0.2548876841167299
 20
1.860632861784819
 30
0.0
 10
0.2491432713670161
 20
1.849219437580462
 30
0.0
 10
0.2444227467936497
 20
1.837097023716135
 30
0.0
 10
0.2409517020084921
 20
1.824514783622792
 30
0.0
 10
0.238911317889399
 20
1.81157810510112
 30
0.0
 10
0.2386121697063325
 20
1.802864938615164
 30
0.0
 10
0.2384615384615386
 20
1.798477564102564
 30
0.0
  0
SPLINE
  5
12D
330
1F
100
AcDbEntity
  8
0
  6
Continuous
 62
     7
370
    25
100
AcDbSpline
210
0.0
220
0.0
230
1.0
 70
     8
 71
     3
 72
    15
 73
    11
 74
     0
 42
0.000000001
 43
0.00000001
 40
0.0
 40
0.0
 40
0.0
 40
0.0
 40
0.1311028947107433
 40
0.2591628598158421
 40
0.3841937597397114
 40
0.5063279470327989
 40
0.6290671975267813
 40
0.7506483570294696
 40
0.8740284465074227
 40
1.0
 40
1.0
 40
1.0
 40
1.0
 10
0.2384615384615386
 20
1.798477564102564
 30
0.0
 10
0.238530628611702
 20
1.79489449734691
 30
0.0
 10
0.2386672053130859
 20
1.787811527673699
 30
0.0
 10
0.2399898550666922
 20
1.777381075576059
 30
0.0
 10
0.2421152063443585
 20
1.767338180431676
 30
0.0
 10
0.2452402081782893
 20
1.757712819744326
 30
0.0
 10
0.2490427177943505
 20
1.748441145042609
 30
0.0
 10
0.2537167715136143
 20
1.739529855815983
 30
0.0
 10
0.2593677842439885
 20
1.731093508289018
 30
0.0
 10
0.2636845633379576
 20
1.725820803024059
 30
0.0
 10
0.2658653846153847
 20
1.723157051282052
 30
0.0
  0
SPLINE
  5
12E
330
1F
100
AcDbEntity
  8
0
  6
Continuous
 62
     7
370
    25
100
AcDbSpline
210
0.0
220
0.0
230
1.0
 70
     8
 71
     3
 72
    15
 73
    11
 74
     0
 42
0.000000001
 43
0.00000001
 40
0.0
 40
0.0
 40
0.0
 40
0.0
 40
0.1099881983153749
 40
0.2225893071868173
 40
0.3385132689194083
 40
0.459695872881773
 40
0.5855189417853006
 40
0.7175065621879435
 40
0.8546610674070445
 40
1.0
 40
1.0
 40
1.0
 40
1.0
 10
0.2658653846153848
 20
1.723157051282052
 30
0.0
 10
0.2675902679448511
 20
1.721248948631851
 30
0.0
 10
0.271081011417011
 20
1.717387413908538
 30
0.0
 10
0.2770986078118136
 20
1.712233163903221
 30
0.0
 10
0.2835912419988373
 20
1.707261347905992
 30
0.0
 10
0.2908423234413017
 20
1.70284316495016
 30
0.0
 10
0.2986415786376094
 20
1.698644337931064
 30
0.0
 10
0.3070459168349722
 20
1.694818117857107
 30
0.0
 10
0.3160908129377545
 20
1.69133914138344
 30
0.0
 10
0.3223967229272897
 20
1.689386181084042
 30
0.0
 10
0.3256410256410258
 20
1.688381410256411
 30
0.0
  0
LINE
  5
12F
330
1F
100
AcDbEntity
  8
0
  6
Continuous
 62
     7
370
    25
100
AcDbLine
 10
0.3256410256
 20
2.2165865385
 30
0.0
 11
0.3256410256
 21
2.4384615385
 31
0.0
  0
SPLINE
  5
130
330
1F
100
AcDbEntity
  8
0
  6
Continuous
 62
     7
370
    25
100
AcDbSpline
210
0.0
220
0.0
230
1.0
 70
     8
 71
     3
 72
    19
 73
    15
 74
     0
 42
0.000000001
 43
0.00000001
 40
0.0
 40
0.0
 40
0.0
 40
0.0
 40
0.0962571573018462
 40
0.1847824702750658
 40
0.2675251500516336
 40
0.344438618124873
 40
0.4196464124670802
 40
0.4966233725220265
 40
0.5766717974337024
 40
0.6603165314445163
 40
0.7452604569441238
 40
0.8300652781082852
 40
0.914432110434799
 40
1.0
 40
1.0
 40
1.0
 40
1.0
 10
0.3256410256410258
 20
2.438461538461539
 30
0.0
 10
0.3208771749251303
 20
2.437152959246013
 30
0.0
 10
0.3117321292165353
 20
2.434640912279603
 30
0.0
 10
0.2990728766206048
 20
2.429291071752842
 30
0.0
 10
0.2877572450791262
 20
2.423411294696404
 30
0.0
 10
0.2779732751760238
 20
2.416333200098569
 30
0.0
 10
0.2692698890790822
 20
2.408391849491928
 30
0.0
 10
0.261785709237362
 20
2.399092335939812
 30
0.0
 10
0.2548876841167297
 20
2.388837989989947
 30
0.0
 10
0.2491432713670164
 20
2.377424565785591
 30
0.0
 10
0.2444227467936495
 20
2.365302151921262
 30
0.0
 10
0.2409517020084922
 20
2.35271991182792
 30
0.0
 10
0.2389113178893989
 20
2.339783233306248
 30
0.0
 10
0.2386121697063325
 20
2.331070066820292
 30
0.0
 10
0.2384615384615386
 20
2.326682692307692
 30
0.0
  0
SPLINE
  5
131
330
1F
100
AcDbEntity
  8
0
  6
Continuous
 62
     7
370
    25
100
AcDbSpline
210
0.0
220
0.0
230
1.0
 70
     8
 71
     3
 72
    15
 73
    11
 74
     0
 42
0.000000001
 43
0.00000001
 40
0.0
 40
0.0
 40
0.0
 40
0.0
 40
0.1311028947107433
 40
0.2591628598158421
 40
0.3841937597397114
 40
0.5063279470327989
 40
0.6290671975267813
 40
0.7506483570294696
 40
0.8740284465074227
 40
1.0
 40
1.0
 40
1.0
 40
1.0
 10
0.2384615384615386
 20
2.326682692307692
 30
0.0
 10
0.238530628611702
 20
2.323099625552038
 30
0.0
 10
0.2386672053130859
 20
2.316016655878827
 30
0.0
 10
0.2399898550666922
 20
2.305586203781187
 30
0.0
 10
0.2421152063443585
 20
2.295543308636804
 30
0.0
 10
0.2452402081782893
 20
2.285917947949454
 30
0.0
 10
0.2490427177943505
 20
2.276646273247737
 30
0.0
 10
0.2537167715136143
 20
2.267734984021111
 30
0.0
 10
0.2593677842439885
 20
2.259298636494146
 30
0.0
 10
0.2636845633379576
 20
2.254025931229187
 30
0.0
 10
0.2658653846153847
 20
2.25136217948718
 30
0.0
  0
SPLINE
  5
132
330
1F
100
AcDbEntity
  8
0
  6
Continuous
 62
     7
370
    25
100
AcDbSpline
210
0.0
220
0.0
230
1.0
 70
     8
 71
     3
 72
    15
 73
    11
 74
     0
 42
0.000000001
 43
0.00000001
 40
0.0
 40
0.0
 40
0.0
 40
0.0
 40
0.1099881983153749
 40
0.2225893071868173
 40
0.3385132689194083
 40
0.459695872881773
 40
0.5855189417853006
 40
0.7175065621879435
 40
0.8546610674070445
 40
1.0
 40
1.0
 40
1.0
 40
1.0
 10
0.2658653846153848
 20
2.25136217948718
 30
0.0
 10
0.2675902679448511
 20
2.249454076836979
 30
0.0
 10
0.271081011417011
 20
2.245592542113666
 30
0.0
 10
0.2770986078118136
 20
2.240438292108349
 30
0.0
 10
0.2835912419988373
 20
2.23546647611112
 30
0.0
 10
0.2908423234413017
 20
2.231048293155288
 30
0.0
 10
0.2986415786376094
 20
2.226849466136192
 30
0.0
 10
0.3070459168349722
 20
2.223023246062235
 30
0.0
 10
0.3160908129377545
 20
2.219544269588568
 30
0.0
 10
0.3223967229272897
 20
2.21759130928917
 30
0.0
 10
0.3256410256410258
 20
2.216586538461538
 30
0.0
  0
MTEXT
  5
134
330
1F
100
AcDbEntity
  8
0
  6
Continuous
 62
     7
100
AcDbMText
 10
-3.0
 20
-3.0401404091
 30
0.0
 40
0.1903
 41
0.0
 71
     1
 72
     1
  1
SOLIDWORKS Educational Product.
  7
SLDTEXTSTYLE0
 73
     1
 44
1.0
  0
MTEXT
  5
135
330
1F
100
AcDbEntity
  8
0
  6
Continuous
 62
     7
100
AcDbMText
 10
-3.0
 20
-3.3255904091
 30
0.0
 40
0.1903
 41
0.0
 71
     1
 72
     1
  1
For Instructional Use Only.
  7
SLDTEXTSTYLE0
 73
     1
 44
1.0
  0
ENDSEC
  0
SECTION
  2
OBJECTS
  0
DICTIONARY
  5
C
330
0
100
AcDbDictionary
281
     1
  3
ACAD_GROUP
350
D
  3
ACAD_LAYOUT
350
1A
  3
ACAD_MLINESTYLE
350
17
  3
ACAD_PLOTSETTINGS
350
19
  3
ACAD_PLOTSTYLENAME
350
E
  3
ACAD_SCALELIST
350
47
  0
DICTIONARY
  5
D
102
{ACAD_REACTORS
330
C
102
}
330
C
100
AcDbDictionary
281
     1
  0
DICTIONARY
  5
1A
102
{ACAD_REACTORS
330
C
102
}
330
C
100
AcDbDictionary
281
     1
  3
Layout1
350
1E
  3
Layout2
350
26
  3
Model
350
22
  0
DICTIONARY
  5
17
102
{ACAD_REACTORS
330
C
102
}
330
C
100
AcDbDictionary
281
     1
  3
Standard
350
18
  0
DICTIONARY
  5
19
102
{ACAD_REACTORS
330
C
102
}
330
C
100
AcDbDictionary
281
     1
  0
ACDBDICTIONARYWDFLT
  5
E
102
{ACAD_REACTORS
330
C
102
}
330
C
100
AcDbDictionary
281
     1
  3
Normal
350
F
100
AcDbDictionaryWithDefault
340
F
  0
DICTIONARY
  5
47
102
{ACAD_REACTORS
330
C
102
}
330
C
100
AcDbDictionary
281
     1
  3
A0
350
48
  3
A1
350
49
  3
A2
350
4A
  3
A3
350
4B
  3
A4
350
4C
  3
A5
350
4D
  3
A6
350
4E
  3
A7
350
4F
  3
A8
350
50
  3
A9
350
51
  3
B0
350
52
  3
B1
350
53
  3
B2
350
54
  3
B3
350
55
  3
B4
350
56
  3
B5
350
57
  3
B6
350
58
  3
B7
350
59
  3
B8
350
5A
  3
B9
350
5B
  3
C0
350
5C
  3
C1
350
5D
  3
C2
350
5E
  3
C3
350
5F
  3
C4
350
60
  3
C5
350
61
  3
C6
350
62
  3
C7
350
63
  3
C8
350
64
  3
C9
350
65
  3
D0
350
66
  3
D1
350
67
  3
D2
350
68
  0
LAYOUT
  5
1E
102
{ACAD_REACTORS
330
1A
102
}
330
1A
100
AcDbPlotSettings
  1

  2
none_device
  4

  6

 40
0.0
 41
0.0
 42
0.0
 43
0.0
 44
0.0
 45
0.0
 46
0.0
 47
0.0
 48
0.0
 49
0.0
140
0.0
141
0.0
142
1.0
143
1.0
 70
   688
 72
     0
 73
     0
 74
     5
  7

 75
    16
147
1.0
148
0.0
149
0.0
100
AcDbLayout
  1
Layout1
 70
     1
 71
     1
 10
0.0
 20
0.0
 11
12.0
 21
9.0
 12
0.0
 22
0.0
 32
0.0
 14
1.0000000000E+20
 24
1.0000000000E+20
 34
1.0000000000E+20
 15
-1.0000000000E+20
 25
-1.0000000000E+20
 35
-1.0000000000E+20
146
0.0
 13
0.0
 23
0.0
 33
0.0
 16
1.0
 26
0.0
 36
0.0
 17
0.0
 27
1.0
 37
0.0
 76
     0
330
1B
  0
LAYOUT
  5
26
102
{ACAD_REACTORS
330
1A
102
}
330
1A
100
AcDbPlotSettings
  1

  2
none_device
  4

  6

 40
0.0
 41
0.0
 42
0.0
 43
0.0
 44
0.0
 45
0.0
 46
0.0
 47
0.0
 48
0.0
 49
0.0
140
0.0
141
0.0
142
1.0
143
1.0
 70
   688
 72
     0
 73
     0
 74
     5
  7

 75
    16
147
1.0
148
0.0
149
0.0
100
AcDbLayout
  1
Layout2
 70
     1
 71
     2
 10
0.0
 20
0.0
 11
0.0
 21
0.0
 12
0.0
 22
0.0
 32
0.0
 14
0.0
 24
0.0
 34
0.0
 15
0.0
 25
0.0
 35
0.0
146
0.0
 13
0.0
 23
0.0
 33
0.0
 16
1.0
 26
0.0
 36
0.0
 17
0.0
 27
1.0
 37
0.0
 76
     0
330
23
  0
LAYOUT
  5
22
102
{ACAD_REACTORS
330
1A
102
}
330
1A
100
AcDbPlotSettings
  1

  2
none_device
  4
ANSI_A_(11.00_x_8.50_Inches)
  6

 40
6.35
 41
19.05
 42
6.35000508
 43
19.05000254
 44
279.4
 45
215.9
 46
133.34999746
 47
88.89999873
 48
0.0
 49
0.0
140
0.0
141
0.0
142
1.4025
143
1.0
 70
  1696
 72
     0
 73
     0
 74
     0
  7

 75
     0
147
0.5913241897
148
-39.4088153714
149
0.0
100
AcDbLayout
  1
Model
 70
     1
 71
     0
 10
0.0
 20
0.0
 11
12.0
 21
9.0
 12
0.0
 22
0.0
 32
0.0
 14
-3.0
 24
-3.0
 34
0.0
 15
3.0
 25
3.0
 35
0.0
146
0.0
 13
0.0
 23
0.0
 33
0.0
 16
1.0
 26
0.0
 36
0.0
 17
0.0
 27
1.0
 37
0.0
 76
     0
330
1F
331
29
  0
MLINESTYLE
  5
18
102
{ACAD_REACTORS
330
17
102
}
330
17
100
AcDbMlineStyle
  2
Standard
 70
     0
  3

 62
   256
 51
90.0
 52
90.0
 71
     2
 49
0.5
 62
   256
  6
BYLAYER
 49
-0.5
 62
   256
  6
BYLAYER
  0
ACDBPLACEHOLDER
  5
F
102
{ACAD_REACTORS
330
E
102
}
330
E
  0
SCALE
  5
48
102
{ACAD_REACTORS
330
47
102
}
330
47
100
AcDbScale
 70
     0
300
1:1
140
1.0
141
1.0
290
     1
  0
SCALE
  5
49
102
{ACAD_REACTORS
330
47
102
}
330
47
100
AcDbScale
 70
     0
300
1:2
140
1.0
141
2.0
290
     0
  0
SCALE
  5
4A
102
{ACAD_REACTORS
330
47
102
}
330
47
100
AcDbScale
 70
     0
300
1:4
140
1.0
141
4.0
290
     0
  0
SCALE
  5
4B
102
{ACAD_REACTORS
330
47
102
}
330
47
100
AcDbScale
 70
     0
300
1:5
140
1.0
141
5.0
290
     0
  0
SCALE
  5
4C
102
{ACAD_REACTORS
330
47
102
}
330
47
100
AcDbScale
 70
     0
300
1:8
140
1.0
141
8.0
290
     0
  0
SCALE
  5
4D
102
{ACAD_REACTORS
330
47
102
}
330
47
100
AcDbScale
 70
     0
300
1:10
140
1.0
141
10.0
290
     0
  0
SCALE
  5
4E
102
{ACAD_REACTORS
330
47
102
}
330
47
100
AcDbScale
 70
     0
300
1:16
140
1.0
141
16.0
290
     0
  0
SCALE
  5
4F
102
{ACAD_REACTORS
330
47
102
}
330
47
100
AcDbScale
 70
     0
300
1:20
140
1.0
141
20.0
290
     0
  0
SCALE
  5
50
102
{ACAD_REACTORS
330
47
102
}
330
47
100
AcDbScale
 70
     0
300
1:30
140
1.0
141
30.0
290
     0
  0
SCALE
  5
51
102
{ACAD_REACTORS
330
47
102
}
330
47
100
AcDbScale
 70
     0
300
1:40
140
1.0
141
40.0
290
     0
  0
SCALE
  5
52
102
{ACAD_REACTORS
330
47
102
}
330
47
100
AcDbScale
 70
     0
300
1:50
140
1.0
141
50.0
290
     0
  0
SCALE
  5
53
102
{ACAD_REACTORS
330
47
102
}
330
47
100
AcDbScale
 70
     0
300
1:100
140
1.0
141
100.0
290
     0
  0
SCALE
  5
54
102
{ACAD_REACTORS
330
47
102
}
330
47
100
AcDbScale
 70
     0
300
2:1
140
2.0
141
1.0
290
     0
  0
SCALE
  5
55
102
{ACAD_REACTORS
330
47
102
}
330
47
100
AcDbScale
 70
     0
300
4:1
140
4.0
141
1.0
290
     0
  0
SCALE
  5
56
102
{ACAD_REACTORS
330
47
102
}
330
47
100
AcDbScale
 70
     0
300
8:1
140
8.0
141
1.0
290
     0
  0
SCALE
  5
57
102
{ACAD_REACTORS
330
47
102
}
330
47
100
AcDbScale
 70
     0
300
10:1
140
10.0
141
1.0
290
     0
  0
SCALE
  5
58
102
{ACAD_REACTORS
330
47
102
}
330
47
100
AcDbScale
 70
     0
300
100:1
140
100.0
141
1.0
290
     0
  0
SCALE
  5
59
102
{ACAD_REACTORS
330
47
102
}
330
47
100
AcDbScale
 70
     0
300
1/128" = 1'-0"
140
0.0078125
141
12.0
290
     0
  0
SCALE
  5
5A
102
{ACAD_REACTORS
330
47
102
}
330
47
100
AcDbScale
 70
     0
300
1/64" = 1'-0"
140
0.015625
141
12.0
290
     0
  0
SCALE
  5
5B
102
{ACAD_REACTORS
330
47
102
}
330
47
100
AcDbScale
 70
     0
300
1/32" = 1'-0"
140
0.03125
141
12.0
290
     0
  0
SCALE
  5
5C
102
{ACAD_REACTORS
330
47
102
}
330
47
100
AcDbScale
 70
     0
300
1/16" = 1'-0"
140
0.0625
141
12.0
290
     0
  0
SCALE
  5
5D
102
{ACAD_REACTORS
330
47
102
}
330
47
100
AcDbScale
 70
     0
300
3/32" = 1'-0"
140
0.09375
141
12.0
290
     0
  0
SCALE
  5
5E
102
{ACAD_REACTORS
330
47
102
}
330
47
100
AcDbScale
 70
     0
300
1/8" = 1'-0"
140
0.125
141
12.0
290
     0
  0
SCALE
  5
5F
102
{ACAD_REACTORS
330
47
102
}
330
47
100
AcDbScale
 70
     0
300
3/16" = 1'-0"
140
0.1875
141
12.0
290
     0
  0
SCALE
  5
60
102
{ACAD_REACTORS
330
47
102
}
330
47
100
AcDbScale
 70
     0
300
1/4" = 1'-0"
140
0.25
141
12.0
290
     0
  0
SCALE
  5
61
102
{ACAD_REACTORS
330
47
102
}
330
47
100
AcDbScale
 70
     0
300
3/8" = 1'-0"
140
0.375
141
12.0
290
     0
  0
SCALE
  5
62
102
{ACAD_REACTORS
330
47
102
}
330
47
100
AcDbScale
 70
     0
300
1/2" = 1'-0"
140
0.5
141
12.0
290
     0
  0
SCALE
  5
63
102
{ACAD_REACTORS
330
47
102
}
330
47
100
AcDbScale
 70
     0
300
3/4" = 1'-0"
140
0.75
141
12.0
290
     0
  0
SCALE
  5
64
102
{ACAD_REACTORS
330
47
102
}
330
47
100
AcDbScale
 70
     0
300
1" = 1'-0"
140
1.0
141
12.0
290
     0
  0
SCALE
  5
65
102
{ACAD_REACTORS
330
47
102
}
330
47
100
AcDbScale
 70
     0
300
1-1/2" = 1'-0"
140
1.5
141
12.0
290
     0
  0
SCALE
  5
66
102
{ACAD_REACTORS
330
47
102
}
330
47
100
AcDbScale
 70
     0
300
3" = 1'-0"
140
3.0
141
12.0
290
     0
  0
SCALE
  5
67
102
{ACAD_REACTORS
330
47
102
}
330
47
100
AcDbScale
 70
     0
300
6" = 1'-0"
140
6.0
141
12.0
290
     0
  0
SCALE
  5
68
102
{ACAD_REACTORS
330
47
102
}
330
47
100
AcDbScale
 70
     0
300
1'-0" = 1'-0"
140
12.0
141
12.0
290
     0
  0
ENDSEC
  0
EOF
